<svg xmlns="http://www.w3.org/2000/svg" xmlns:xlink="http://www.w3.org/1999/xlink" version="1.1" width="300" height="400" viewBox="0 0 300 400" xml:space="preserve">
<desc>Created with Fabric.js 4.3.1</desc>
<defs>
</defs>
<g transform="matrix(1 0 0 1 150.99 204.55)">
<path style="stroke: rgb(0,0,0); stroke-width: 20; stroke-dasharray: none; stroke-linecap: round; stroke-dashoffset: 0; stroke-linejoin: round; stroke-miterlimit: 10; fill: none; fill-rule: nonzero; opacity: 1;" transform=" translate(-150.99, -204.55)" d="M 17.763157894736842 379.2279207920792 Q 17.763157894736842 379.2079207920792 17.763157894736842 378.7128712871287 Q 17.763157894736842 378.2178217821782 17.763157894736842 377.2277227722772 Q 17.763157894736842 376.23762376237624 18.25657894736842 374.7524752475248 Q 18.75 373.26732673267327 20.230263157894736 370.2970297029703 Q 21.710526315789473 367.3267326732673 24.17763157894737 364.35643564356434 Q 26.644736842105264 361.38613861386136 29.60526315789474 356.9306930693069 Q 32.56578947368421 352.4752475247525 37.993421052631575 345.049504950495 Q 43.421052631578945 337.6237623762376 46.875 332.17821782178214 Q 50.32894736842105 326.73267326732673 52.30263157894737 322.7722772277228 Q 54.276315789473685 318.81188118811883 57.23684210526316 313.36633663366337 Q 60.19736842105263 307.9207920792079 62.171052631578945 304.45544554455444 Q 64.14473684210526 300.990099009901 68.09210526315789 292.57425742574253 Q 72.03947368421052 284.15841584158414 75 278.7128712871287 Q 77.96052631578947 273.26732673267327 80.42763157894737 267.3267326732673 Q 82.89473684210526 261.38613861386136 85.36184210526315 255.44554455445544 Q 87.82894736842105 249.5049504950495 89.30921052631578 245.04950495049505 Q 90.78947368421052 240.59405940594058 92.26973684210526 235.14851485148515 Q 93.75 229.7029702970297 96.21710526315789 223.76237623762376 Q 98.68421052631578 217.82178217821783 101.64473684210526 212.87128712871288 Q 104.60526315789473 207.92079207920793 107.5657894736842 202.97029702970298 Q 110.52631578947368 198.01980198019803 114.47368421052632 188.6138613861386 Q 118.42105263157895 179.2079207920792 119.90131578947367 175.74257425742573 Q 121.38157894736841 172.27722772277227 123.35526315789473 166.83168316831683 Q 125.32894736842104 161.3861386138614 125.82236842105263 158.91089108910893 Q 126.3157894736842 156.43564356435644 127.79605263157893 152.4752475247525 Q 129.27631578947367 148.5148514851485 131.25 142.07920792079207 Q 133.2236842105263 135.64356435643563 134.70394736842104 130.1980198019802 Q 136.18421052631578 124.75247524752476 137.17105263157896 120.79207920792079 Q 138.1578947368421 116.83168316831683 141.11842105263156 110.39603960396039 Q 144.07894736842104 103.96039603960396 145.55921052631578 100 Q 147.03947368421052 96.03960396039604 149.01315789473682 92.07920792079207 Q 150.98684210526315 88.11881188118812 153.45394736842104 82.17821782178217 Q 155.92105263157893 76.23762376237623 157.40131578947367 72.27722772277227 Q 158.8815789473684 68.31683168316832 160.36184210526315 62.37623762376238 Q 161.8421052631579 56.43564356435643 162.82894736842104 49.00990099009901 Q 163.8157894736842 41.584158415841586 163.8157894736842 39.10891089108911 Q 163.8157894736842 36.633663366336634 163.8157894736842 34.15841584158416 Q 163.8157894736842 31.683168316831683 163.3223684210526 30.198019801980198 Q 162.82894736842104 28.712871287128714 162.82894736842104 27.22772277227723 Q 162.82894736842104 25.742574257425744 162.33552631578948 23.762376237623762 Q 161.8421052631579 21.78217821782178 161.3486842105263 20.792079207920793 Q 160.85526315789474 19.801980198019802 160.85526315789474 18.81188118811881 Q 160.85526315789474 17.821782178217823 160.85526315789474 17.32673267326733 Q 160.85526315789474 16.831683168316832 160.85526315789474 16.336633663366335 Q 160.85526315789474 15.841584158415841 160.85526315789474 15.346534653465346 Q 160.85526315789474 14.85148514851485 160.85526315789474 14.356435643564357 Q 160.85526315789474 13.861386138613861 160.85526315789474 13.366336633663366 Q 160.85526315789474 12.871287128712872 160.36184210526315 13.861386138613861 Q 159.86842105263156 14.85148514851485 159.375 15.841584158415841 Q 158.8815789473684 16.831683168316832 158.8815789473684 18.81188118811881 Q 158.8815789473684 20.792079207920793 158.8815789473684 22.772277227722775 Q 158.8815789473684 24.752475247524753 158.8815789473684 30.1980198019802 Q 158.8815789473684 35.64356435643565 158.38815789473682 40.5940594059406 Q 157.89473684210526 45.54455445544554 158.8815789473684 50.495049504950494 Q 159.86842105263156 55.445544554455445 160.36184210526315 61.38613861386139 Q 160.85526315789474 67.32673267326733 161.3486842105263 70.79207920792079 Q 161.8421052631579 74.25742574257426 162.82894736842104 79.70297029702971 Q 163.8157894736842 85.14851485148515 164.30921052631578 88.61386138613861 Q 164.80263157894737 92.07920792079207 165.29605263157896 95.54455445544554 Q 165.78947368421052 99.00990099009901 166.28289473684208 104.45544554455446 Q 166.77631578947367 109.9009900990099 166.77631578947367 113.86138613861385 Q 166.77631578947367 117.82178217821782 166.28289473684208 120.79207920792078 Q 165.78947368421052 123.76237623762376 165.29605263157896 128.7128712871287 Q 164.80263157894737 133.66336633663366 164.80263157894737 137.6237623762376 Q 164.80263157894737 141.58415841584159 164.80263157894737 144.55445544554453 Q 164.80263157894737 147.5247524752475 166.28289473684208 151.98019801980197 Q 167.76315789473682 156.43564356435644 169.24342105263156 160.3960396039604 Q 170.7236842105263 164.35643564356437 172.6973684210526 169.8019801980198 Q 174.67105263157893 175.24752475247524 176.15131578947367 178.7128712871287 Q 177.6315789473684 182.17821782178217 178.125 184.65346534653463 Q 178.61842105263156 187.12871287128712 179.11184210526315 190.0990099009901 Q 179.60526315789474 193.06930693069307 180.0986842105263 194.55445544554456 Q 180.5921052631579 196.03960396039605 181.08552631578948 198.01980198019803 Q 181.57894736842104 200 181.57894736842104 201.4851485148515 Q 181.57894736842104 202.97029702970298 182.0723684210526 205.44554455445547 Q 182.5657894736842 207.92079207920793 184.04605263157893 212.87128712871288 Q 185.52631578947367 217.82178217821783 187.0065789473684 221.2871287128713 Q 188.48684210526315 224.75247524752476 190.46052631578948 229.20792079207922 Q 192.43421052631578 233.66336633663366 194.90131578947367 238.6138613861386 Q 197.36842105263156 243.56435643564356 198.8486842105263 246.03960396039605 Q 200.32894736842104 248.5148514851485 201.80921052631578 250.99009900990097 Q 203.28947368421052 253.46534653465346 205.7565789473684 256.9306930693069 Q 208.2236842105263 260.3960396039604 210.69078947368422 263.86138613861385 Q 213.1578947368421 267.3267326732673 215.625 271.2871287128713 Q 218.0921052631579 275.2475247524753 221.05263157894734 280.1980198019802 Q 224.01315789473682 285.1485148514852 225.49342105263156 287.62376237623766 Q 226.9736842105263 290.0990099009901 227.96052631578948 291.58415841584156 Q 228.94736842105263 293.0693069306931 230.42763157894737 296.03960396039605 Q 231.9078947368421 299.009900990099 232.89473684210526 300 Q 233.8815789473684 300.990099009901 234.86842105263156 302.4752475247525 Q 235.85526315789474 303.96039603960395 237.33552631578948 305.94059405940595 Q 238.8157894736842 307.9207920792079 239.80263157894734 309.9009900990099 Q 240.78947368421052 311.8811881188119 243.2565789473684 314.3564356435644 Q 245.7236842105263 316.83168316831683 247.20394736842104 319.30693069306926 Q 248.68421052631578 321.78217821782175 250.16447368421052 323.26732673267327 Q 251.64473684210526 324.7524752475247 252.13815789473682 325.74257425742576 Q 252.6315789473684 326.73267326732673 252.6315789473684 327.2277227722772 Q 252.6315789473684 327.7227722772277 253.125 328.7128712871287 Q 253.61842105263156 329.7029702970297 254.11184210526315 329.7029702970297 Q 254.60526315789474 329.7029702970297 254.60526315789474 330.1980198019802 Q 254.60526315789474 330.6930693069307 255.0986842105263 330.6930693069307 Q 255.5921052631579 330.6930693069307 255.5921052631579 331.18811881188117 Q 255.5921052631579 331.68316831683165 255.5921052631579 332.17821782178214 Q 255.5921052631579 332.6732673267327 255.5921052631579 333.16831683168317 Q 255.5921052631579 333.66336633663366 256.0855263157895 334.15841584158414 Q 256.57894736842104 334.65346534653463 258.5526315789474 338.61386138613864 Q 260.5263157894737 342.5742574257426 261.5131578947369 345.54455445544556 Q 262.5 348.5148514851485 264.4736842105263 352.4752475247525 Q 266.4473684210526 356.43564356435644 267.4342105263158 358.41584158415844 Q 268.42105263157896 360.3960396039604 269.90131578947364 362.37623762376234 Q 271.3815789473684 364.35643564356434 272.8618421052631 367.8217821782178 Q 274.34210526315786 371.28712871287127 275.32894736842104 373.76237623762376 Q 276.3157894736842 376.23762376237624 277.3026315789474 378.7128712871287 Q 278.2894736842105 381.18811881188117 279.27631578947364 383.1683168316831 Q 280.2631578947368 385.1485148514851 280.75657894736844 386.6336633663366 Q 281.25 388.1188118811881 281.74342105263156 388.61386138613864 Q 282.2368421052631 389.1089108910891 282.7302631578947 390.0990099009901 Q 283.2236842105263 391.08910891089107 283.7171052631579 392.0792079207921 Q 284.2105263157895 393.0693069306931 284.2105263157895 394.05940594059405 Q 284.2105263157895 395.049504950495 284.2105263157895 395.54455445544556 L 284.2105263157895 396.05960396039603" stroke-linecap="round"></path>
</g>
<g transform="matrix(1 0 0 1 147.04 204.45)">
<path style="stroke: rgb(0,0,0); stroke-width: 20; stroke-dasharray: none; stroke-linecap: round; stroke-dashoffset: 0; stroke-linejoin: round; stroke-miterlimit: 10; fill: none; fill-rule: nonzero; opacity: 1;" transform=" translate(-147.04, -204.45)" d="M 46.361578947368415 199.98 Q 46.38157894736842 200 50.82236842105263 200.99009900990097 Q 55.26315789473684 201.98019801980197 69.07894736842105 203.96039603960395 Q 82.89473684210526 205.94059405940595 90.78947368421052 206.43564356435644 Q 98.68421052631578 206.93069306930693 110.0328947368421 206.93069306930693 Q 121.38157894736841 206.93069306930693 127.79605263157895 206.93069306930693 Q 134.21052631578948 206.93069306930693 141.11842105263156 206.93069306930693 Q 148.02631578947367 206.93069306930693 158.8815789473684 206.93069306930693 Q 169.73684210526315 206.93069306930693 176.15131578947367 207.4257425742574 Q 182.5657894736842 207.92079207920793 188.48684210526315 207.92079207920793 Q 194.4078947368421 207.92079207920793 200.82236842105263 208.41584158415841 Q 207.23684210526315 208.9108910891089 211.18421052631578 208.9108910891089 Q 215.1315789473684 208.9108910891089 218.0921052631579 208.9108910891089 Q 221.05263157894737 208.9108910891089 225 208.9108910891089 Q 228.94736842105263 208.9108910891089 229.93421052631578 208.9108910891089 Q 230.92105263157893 208.9108910891089 231.41447368421052 208.9108910891089 Q 231.9078947368421 208.9108910891089 232.4013157894737 208.9108910891089 Q 232.89473684210526 208.9108910891089 233.38815789473682 208.9108910891089 Q 233.8815789473684 208.9108910891089 234.375 208.9108910891089 Q 234.86842105263156 208.9108910891089 236.84210526315786 208.9108910891089 Q 238.8157894736842 208.9108910891089 240.29605263157893 208.9108910891089 Q 241.77631578947367 208.9108910891089 242.76315789473682 208.9108910891089 Q 243.75 208.9108910891089 244.73684210526315 208.9108910891089 Q 245.7236842105263 208.9108910891089 246.71052631578948 208.9108910891089 L 247.71736842105264 208.9108910891089" stroke-linecap="round"></path>
</g>
</svg>
