<svg xmlns="http://www.w3.org/2000/svg" xmlns:xlink="http://www.w3.org/1999/xlink" version="1.1" width="400" height="400" viewBox="0 0 400 400" xml:space="preserve">
<desc>Created with Fabric.js 4.3.1</desc>
<defs>
</defs>
<g transform="matrix(1 0 0 1 187.04 173.98)">
<path style="stroke: rgb(0,0,0); stroke-width: 5; stroke-dasharray: none; stroke-linecap: round; stroke-dashoffset: 0; stroke-linejoin: round; stroke-miterlimit: 10; fill: none; fill-rule: nonzero; opacity: 1;" transform=" translate(-187.04, -173.98)" d="M 84.16341584158415 178.21282178217822 Q 84.15841584158416 178.21782178217822 83.16831683168317 179.7029702970297 Q 82.17821782178218 181.1881188118812 79.70297029702971 188.61386138613864 Q 77.22772277227723 196.03960396039605 77.22772277227723 200.4950495049505 Q 77.22772277227723 204.95049504950495 79.20792079207921 208.91089108910893 Q 81.18811881188118 212.87128712871288 93.06930693069307 217.32673267326732 Q 104.95049504950495 221.78217821782178 121.78217821782178 218.31683168316832 Q 138.6138613861386 214.85148514851485 152.97029702970298 207.4257425742574 Q 167.32673267326732 200 187.6237623762376 179.7029702970297 Q 207.92079207920793 159.40594059405942 218.31683168316832 141.58415841584159 Q 228.7128712871287 123.76237623762376 236.13861386138615 108.9108910891089 Q 243.56435643564356 94.05940594059406 248.5148514851485 79.20792079207921 Q 253.46534653465346 64.35643564356435 252.97029702970298 62.871287128712865 Q 252.47524752475246 61.386138613861384 243.06930693069307 63.366336633663366 Q 233.66336633663366 65.34653465346534 225.24752475247524 72.27722772277227 Q 216.83168316831683 79.20792079207921 204.95049504950495 92.57425742574257 Q 193.06930693069307 105.94059405940594 182.1782178217822 124.25742574257427 Q 171.2871287128713 142.5742574257426 166.33663366336634 153.46534653465346 Q 161.3861386138614 164.35643564356437 159.9009900990099 173.76237623762376 Q 158.41584158415841 183.16831683168317 159.40594059405942 191.08910891089107 Q 160.3960396039604 199.009900990099 163.86138613861385 200.99009900990097 Q 167.32673267326732 202.97029702970298 173.76237623762376 202.97029702970298 Q 180.1980198019802 202.97029702970298 194.05940594059405 195.04950495049505 Q 207.92079207920793 187.12871287128712 215.34653465346537 180.69306930693068 Q 222.77227722772278 174.25742574257424 228.71287128712873 169.8019801980198 Q 234.65346534653466 165.34653465346534 230.69306930693068 175.74257425742576 Q 226.73267326732673 186.13861386138615 220.2970297029703 197.02970297029702 Q 213.86138613861385 207.92079207920793 205.94059405940595 217.82178217821783 Q 198.01980198019803 227.72277227722773 187.6237623762376 233.16831683168317 Q 177.22772277227722 238.6138613861386 171.28712871287127 237.12871287128712 Q 165.34653465346534 235.64356435643563 160.89108910891088 230.69306930693068 Q 156.43564356435644 225.74257425742573 156.43564356435644 209.9009900990099 Q 156.43564356435644 194.05940594059405 160.3960396039604 186.13861386138615 Q 164.35643564356437 178.21782178217822 175.74257425742576 174.25742574257424 Q 187.12871287128712 170.2970297029703 198.5148514851485 174.25742574257424 Q 209.9009900990099 178.21782178217822 223.26732673267327 191.58415841584159 Q 236.63366336633663 204.95049504950495 250.4950495049505 224.75247524752476 Q 264.35643564356434 244.55445544554456 270.7920792079208 254.45544554455444 Q 277.2277227722772 264.35643564356434 281.6831683168317 270.7920792079208 Q 286.13861386138615 277.2277227722772 290.0990099009901 281.18811881188117 Q 294.05940594059405 285.1485148514852 295.049504950495 285.64356435643566 Q 296.03960396039605 286.13861386138615 296.53465346534654 286.13861386138615 Q 297.029702970297 286.13861386138615 296.039603960396 285.1485148514852 L 295.044504950495 284.15341584158415" stroke-linecap="round"></path>
</g>
<g transform="matrix(1 0 0 1 140.98 201.98)">
<path style="stroke: rgb(0,0,0); stroke-width: 5; stroke-dasharray: none; stroke-linecap: round; stroke-dashoffset: 0; stroke-linejoin: round; stroke-miterlimit: 10; fill: none; fill-rule: nonzero; opacity: 1;" transform=" translate(-140.98, -201.98)" d="M 52.47024752475247 109.89599009900991 Q 52.475247524752476 109.9009900990099 55.94059405940594 110.89108910891089 Q 59.4059405940594 111.88118811881188 69.3069306930693 114.35643564356435 Q 79.20792079207921 116.83168316831683 107.42574257425741 120.79207920792079 Q 135.64356435643563 124.75247524752476 149.009900990099 126.73267326732673 Q 162.37623762376236 128.7128712871287 180.69306930693068 130.69306930693068 Q 199.009900990099 132.67326732673268 209.40594059405942 133.66336633663366 Q 219.8019801980198 134.65346534653466 224.25742574257424 135.14851485148515 Q 228.7128712871287 135.64356435643563 229.20792079207922 135.64356435643563 Q 229.7029702970297 135.64356435643563 227.7227722772277 134.65346534653463 Q 225.74257425742573 133.66336633663366 212.37623762376236 128.21782178217822 Q 199.009900990099 122.77227722772277 174.75247524752473 121.2871287128713 Q 150.4950495049505 119.8019801980198 142.07920792079207 122.77227722772278 Q 133.66336633663366 125.74257425742574 127.22772277227722 130.69306930693068 Q 120.79207920792079 135.64356435643563 116.33663366336634 151.98019801980197 Q 111.88118811881188 168.31683168316832 113.36633663366337 179.20792079207922 Q 114.85148514851485 190.0990099009901 119.8019801980198 202.97029702970298 Q 124.75247524752476 215.84158415841583 135.64356435643566 233.16831683168317 Q 146.53465346534654 250.4950495049505 156.43564356435644 261.8811881188119 Q 166.33663366336634 273.26732673267327 177.22772277227722 282.17821782178214 Q 188.11881188118812 291.08910891089107 192.0792079207921 292.57425742574253 Q 196.03960396039605 294.05940594059405 197.02970297029702 294.05940594059405 Q 198.01980198019803 294.05940594059405 194.55445544554456 279.2079207920792 Q 191.0891089108911 264.35643564356434 177.72277227722773 242.57425742574256 Q 164.35643564356437 220.79207920792078 150.990099009901 203.96039603960395 Q 137.62376237623764 187.12871287128712 127.72277227722773 180.69306930693068 Q 117.82178217821782 174.25742574257424 114.85148514851485 174.25742574257424 Q 111.88118811881188 174.25742574257424 111.38613861386139 173.76237623762376 Q 110.89108910891089 173.26732673267327 110.39603960396039 175.24752475247524 Q 109.9009900990099 177.22772277227722 109.9009900990099 184.65346534653463 Q 109.9009900990099 192.07920792079207 113.86138613861385 201.48514851485146 Q 117.82178217821782 210.89108910891088 129.2079207920792 224.25742574257424 Q 140.59405940594058 237.6237623762376 149.5049504950495 243.06930693069307 Q 158.41584158415841 248.5148514851485 169.8019801980198 252.4752475247525 Q 181.1881188118812 256.43564356435644 193.06930693069307 254.95049504950495 L 204.95549504950495 253.46034653465347" stroke-linecap="round"></path>
</g>
</svg>
