<svg xmlns="http://www.w3.org/2000/svg" xmlns:xlink="http://www.w3.org/1999/xlink" version="1.1" width="300" height="400" viewBox="0 0 300 400" xml:space="preserve">
<desc>Created with Fabric.js 4.3.1</desc>
<defs>
</defs>
<g transform="matrix(1 0 0 1 62.66 186.63)">
<path style="stroke: rgb(0,0,0); stroke-width: 20; stroke-dasharray: none; stroke-linecap: round; stroke-dashoffset: 0; stroke-linejoin: round; stroke-miterlimit: 10; fill: none; fill-rule: nonzero; opacity: 1;" transform=" translate(-62.66, -186.63)" d="M 45.41473684210526 33.64336633663366 Q 45.39473684210526 33.663366336633665 44.901315789473685 33.663366336633665 Q 44.4078947368421 33.663366336633665 43.91447368421052 34.15841584158416 Q 43.421052631578945 34.65346534653465 43.421052631578945 35.148514851485146 Q 43.421052631578945 35.64356435643565 43.421052631578945 36.633663366336634 Q 43.421052631578945 37.62376237623762 43.421052631578945 38.61386138613861 Q 43.421052631578945 39.603960396039604 43.421052631578945 40.5940594059406 Q 43.421052631578945 41.584158415841586 43.421052631578945 42.07920792079208 Q 43.421052631578945 42.57425742574257 43.421052631578945 43.56435643564356 Q 43.421052631578945 44.554455445544555 42.92763157894737 45.54455445544555 Q 42.43421052631579 46.53465346534654 42.43421052631579 48.019801980198025 Q 42.43421052631579 49.504950495049506 43.421052631578945 53.960396039603964 Q 44.4078947368421 58.415841584158414 44.901315789473685 61.88118811881188 Q 45.39473684210526 65.34653465346534 45.888157894736835 69.8019801980198 Q 46.38157894736842 74.25742574257426 46.875 77.72277227722772 Q 47.368421052631575 81.18811881188118 47.86184210526315 83.16831683168317 Q 48.35526315789473 85.14851485148515 48.848684210526315 89.60396039603961 Q 49.34210526315789 94.05940594059406 49.835526315789465 97.02970297029702 Q 50.32894736842105 100 51.80921052631579 103.96039603960395 Q 53.28947368421053 107.92079207920791 54.276315789473685 112.87128712871286 Q 55.26315789473684 117.82178217821782 55.756578947368425 120.79207920792078 Q 56.25 123.76237623762376 57.23684210526316 127.22772277227722 Q 58.223684210526315 130.69306930693068 59.703947368421055 135.14851485148515 Q 61.18421052631579 139.6039603960396 62.171052631578945 144.05940594059405 Q 63.1578947368421 148.5148514851485 65.13157894736842 156.43564356435644 Q 67.10526315789474 164.35643564356437 68.09210526315789 171.78217821782178 Q 69.07894736842105 179.2079207920792 69.57236842105263 184.15841584158414 Q 70.0657894736842 189.1089108910891 71.05263157894737 196.03960396039605 Q 72.03947368421052 202.97029702970298 72.03947368421052 208.41584158415841 Q 72.03947368421052 213.86138613861385 72.03947368421052 218.8118811881188 Q 72.03947368421052 223.76237623762376 72.53289473684211 231.18811881188117 Q 73.02631578947368 238.6138613861386 73.51973684210526 242.5742574257426 Q 74.01315789473684 246.53465346534654 74.01315789473684 250.4950495049505 Q 74.01315789473684 254.45544554455446 74.50657894736841 260.3960396039604 Q 75 266.33663366336634 75 269.8019801980198 Q 75 273.26732673267327 75.49342105263158 279.2079207920792 Q 75.98684210526315 285.1485148514852 76.48026315789474 289.1089108910891 Q 76.97368421052632 293.0693069306931 77.46710526315789 297.029702970297 Q 77.96052631578947 300.990099009901 78.94736842105263 307.4257425742574 Q 79.93421052631578 313.86138613861385 80.92105263157893 324.7524752475248 Q 81.9078947368421 335.64356435643566 82.40131578947367 336.63366336633663 Q 82.89473684210526 337.6237623762376 82.89473684210526 338.61386138613864 L 82.89473684210526 339.6239603960396" stroke-linecap="round"></path>
</g>
<g transform="matrix(1 0 0 1 117.34 176.72)">
<path style="stroke: rgb(0,0,0); stroke-width: 20; stroke-dasharray: none; stroke-linecap: round; stroke-dashoffset: 0; stroke-linejoin: round; stroke-miterlimit: 10; fill: none; fill-rule: nonzero; opacity: 1;" transform=" translate(-117.34, -176.72)" d="M 33.53263157894737 18.79188118811881 Q 33.55263157894737 18.81188118811881 37.993421052631575 20.297029702970296 Q 42.43421052631579 21.78217821782178 45.888157894736835 23.26732673267327 Q 49.34210526315789 24.752475247524753 51.80921052631579 25.24752475247525 Q 54.276315789473685 25.742574257425744 59.703947368421055 27.22772277227723 Q 65.13157894736842 28.712871287128714 69.57236842105263 29.7029702970297 Q 74.01315789473684 30.693069306930692 80.42763157894737 31.683168316831683 Q 86.84210526315789 32.67326732673267 96.71052631578948 33.16831683168317 Q 106.57894736842105 33.663366336633665 112.00657894736841 34.15841584158416 Q 117.43421052631578 34.65346534653465 124.34210526315789 35.148514851485146 Q 131.25 35.64356435643565 133.7171052631579 36.13861386138614 Q 136.18421052631578 36.633663366336634 139.14473684210526 37.12871287128713 Q 142.10526315789474 37.62376237623762 146.05263157894737 38.61386138613861 Q 150 39.603960396039604 152.96052631578948 40.5940594059406 Q 155.92105263157893 41.584158415841586 158.8815789473684 42.57425742574257 Q 161.8421052631579 43.56435643564356 165.29605263157896 45.54455445544554 Q 168.75 47.524752475247524 170.23026315789474 48.51485148514851 Q 171.71052631578948 49.504950495049506 173.19078947368422 52.475247524752476 Q 174.67105263157893 55.445544554455445 175.65789473684208 61.38613861386139 Q 176.64473684210526 67.32673267326733 176.64473684210526 71.78217821782178 Q 176.64473684210526 76.23762376237623 176.1513157894737 82.17821782178217 Q 175.6578947368421 88.11881188118812 174.67105263157896 92.07920792079207 Q 173.68421052631578 96.03960396039604 171.71052631578948 100 Q 169.73684210526315 103.96039603960396 164.30921052631578 110.89108910891089 Q 158.8815789473684 117.82178217821782 152.4671052631579 123.26732673267327 Q 146.05263157894737 128.7128712871287 138.1578947368421 133.16831683168317 Q 130.26315789473685 137.62376237623764 120.39473684210526 141.0891089108911 Q 110.52631578947368 144.55445544554456 105.59210526315789 146.03960396039605 Q 100.6578947368421 147.5247524752475 95.23026315789474 148.5148514851485 Q 89.80263157894737 149.5049504950495 87.82894736842105 150 Q 85.85526315789474 150.4950495049505 84.375 150.4950495049505 Q 82.89473684210526 150.4950495049505 81.90789473684211 150.4950495049505 Q 80.92105263157895 150.4950495049505 80.42763157894737 150.4950495049505 Q 79.93421052631578 150.4950495049505 77.46710526315789 150.4950495049505 Q 75 150.4950495049505 72.53289473684211 150.4950495049505 Q 70.0657894736842 150.4950495049505 67.10526315789474 150.99009900990097 Q 64.14473684210526 151.4851485148515 57.73026315789473 153.46534653465346 Q 51.315789473684205 155.44554455445544 47.368421052631575 156.93069306930693 Q 43.421052631578945 158.41584158415841 40.953947368421055 159.40594059405942 Q 38.48684210526316 160.3960396039604 36.51315789473684 161.38613861386136 Q 34.53947368421053 162.37623762376236 34.046052631578945 162.37623762376236 Q 33.55263157894737 162.37623762376236 37.993421052631575 163.36633663366337 Q 42.43421052631579 164.35643564356437 49.34210526315789 164.35643564356437 Q 56.25 164.35643564356437 65.13157894736841 164.85148514851485 Q 74.01315789473684 165.34653465346534 80.42763157894737 165.84158415841586 Q 86.84210526315789 166.33663366336634 92.76315789473684 166.83168316831683 Q 98.68421052631578 167.32673267326732 108.55263157894737 169.8019801980198 Q 118.42105263157895 172.27722772277227 125.82236842105263 174.75247524752473 Q 133.2236842105263 177.22772277227722 142.10526315789474 181.18811881188117 Q 150.98684210526315 185.14851485148515 155.92105263157896 187.12871287128712 Q 160.85526315789474 189.1089108910891 163.81578947368422 191.58415841584156 Q 166.77631578947367 194.05940594059405 172.20394736842104 198.019801980198 Q 177.6315789473684 201.98019801980197 180.0986842105263 204.95049504950495 Q 182.5657894736842 207.92079207920793 186.01973684210526 210.3960396039604 Q 189.4736842105263 212.87128712871288 195.39473684210526 216.33663366336634 Q 201.3157894736842 219.8019801980198 204.76973684210526 221.78217821782178 Q 208.2236842105263 223.76237623762376 210.69078947368422 225.74257425742576 Q 213.1578947368421 227.72277227722773 215.13157894736844 229.7029702970297 Q 217.10526315789474 231.68316831683168 217.10526315789474 232.1782178217822 Q 217.10526315789474 232.67326732673268 217.5986842105263 234.65346534653466 Q 218.0921052631579 236.63366336633663 217.10526315789474 240.59405940594058 Q 216.11842105263156 244.55445544554456 214.14473684210526 250 Q 212.17105263157893 255.44554455445544 209.21052631578948 262.3762376237624 Q 206.25 269.3069306930693 205.26315789473682 272.7722772277228 Q 204.27631578947367 276.23762376237624 203.78289473684208 279.7029702970297 Q 203.28947368421052 283.16831683168317 201.80921052631578 286.63366336633663 Q 200.32894736842104 290.0990099009901 199.83552631578948 292.57425742574253 Q 199.3421052631579 295.049504950495 197.86184210526315 298.019801980198 Q 196.3815789473684 300.990099009901 193.42105263157896 304.45544554455444 Q 190.46052631578948 307.9207920792079 187.99342105263156 310.3960396039604 Q 185.52631578947367 312.8712871287129 177.6315789473684 317.3267326732673 Q 169.73684210526315 321.78217821782175 161.3486842105263 324.25742574257424 Q 152.96052631578948 326.73267326732673 142.5986842105263 328.7128712871287 Q 132.23684210526315 330.6930693069307 120.88815789473684 332.17821782178214 Q 109.53947368421052 333.66336633663366 104.11184210526315 334.15841584158414 Q 98.68421052631578 334.65346534653463 94.73684210526315 334.65346534653463 Q 90.78947368421052 334.65346534653463 85.36184210526315 334.65346534653463 Q 79.93421052631578 334.65346534653463 77.96052631578947 334.15841584158414 Q 75.98684210526315 333.66336633663366 74.01315789473684 333.16831683168317 Q 72.03947368421052 332.6732673267327 68.09210526315789 331.18811881188117 Q 64.14473684210526 329.7029702970297 61.18421052631579 328.7128712871287 Q 58.223684210526315 327.7227722772277 55.263157894736835 326.73267326732673 Q 52.30263157894736 325.74257425742576 48.35526315789473 324.25742574257424 Q 44.4078947368421 322.7722772277228 41.940789473684205 322.2772277227723 Q 39.473684210526315 321.78217821782175 36.51315789473684 321.78217821782175 Q 33.55263157894737 321.78217821782175 32.56578947368421 321.78217821782175 Q 31.57894736842105 321.78217821782175 29.605263157894736 321.78217821782175 Q 27.63157894736842 321.78217821782175 25.657894736842103 321.78217821782175 Q 23.684210526315788 321.78217821782175 22.20394736842105 321.78217821782175 Q 20.723684210526315 321.78217821782175 19.24342105263158 322.2772277227723 Q 17.763157894736842 322.7722772277228 17.269736842105264 323.26732673267327 L 16.756315789473685 323.78237623762374" stroke-linecap="round"></path>
</g>
</svg>
