<svg xmlns="http://www.w3.org/2000/svg" xmlns:xlink="http://www.w3.org/1999/xlink" version="1.1" width="300" height="400" viewBox="0 0 300 400" xml:space="preserve">
<desc>Created with Fabric.js 4.3.1</desc>
<defs>
</defs>
<g transform="matrix(1 0 0 1 154.45 184.65)">
<path style="stroke: rgb(0,0,0); stroke-width: 20; stroke-dasharray: none; stroke-linecap: round; stroke-dashoffset: 0; stroke-linejoin: round; stroke-miterlimit: 10; fill: none; fill-rule: nonzero; opacity: 1;" transform=" translate(-154.45, -184.65)" d="M 251.66473684210527 125.76257425742574 Q 251.64473684210526 125.74257425742574 251.15131578947367 125.24752475247524 Q 250.65789473684208 124.75247524752476 249.67105263157893 124.25742574257426 Q 248.68421052631578 123.76237623762376 248.19078947368422 123.26732673267327 Q 247.69736842105263 122.77227722772277 246.2171052631579 121.78217821782178 Q 244.73684210526315 120.79207920792079 243.2565789473684 119.8019801980198 Q 241.77631578947367 118.8118811881188 240.78947368421052 117.82178217821782 Q 239.80263157894737 116.83168316831683 238.81578947368422 115.34653465346534 Q 237.82894736842104 113.86138613861387 236.8421052631579 112.37623762376238 Q 235.85526315789474 110.89108910891089 234.86842105263156 109.4059405940594 Q 233.8815789473684 107.92079207920791 233.38815789473682 106.43564356435644 Q 232.89473684210526 104.95049504950495 232.4013157894737 103.46534653465346 Q 231.9078947368421 101.98019801980197 230.92105263157896 100 Q 229.93421052631578 98.01980198019803 229.44078947368422 97.02970297029702 Q 228.94736842105263 96.03960396039604 228.45394736842104 94.55445544554456 Q 227.96052631578945 93.06930693069307 226.48026315789474 90.5940594059406 Q 225 88.11881188118812 224.01315789473682 86.63366336633663 Q 223.02631578947367 85.14851485148515 222.03947368421052 83.16831683168317 Q 221.05263157894737 81.18811881188118 218.58552631578948 78.7128712871287 Q 216.11842105263156 76.23762376237623 214.63815789473682 74.25742574257426 Q 213.1578947368421 72.27722772277228 210.69078947368422 70.29702970297029 Q 208.2236842105263 68.31683168316832 206.25 66.83168316831683 Q 204.27631578947367 65.34653465346534 201.80921052631578 63.86138613861386 Q 199.3421052631579 62.37623762376238 196.3815789473684 59.9009900990099 Q 193.42105263157893 57.42574257425743 190.95394736842104 55.94059405940594 Q 188.48684210526315 54.45544554455446 186.51315789473682 53.46534653465346 Q 184.53947368421052 52.475247524752476 181.57894736842104 50.99009900990099 Q 178.61842105263156 49.504950495049506 177.13815789473682 49.00990099009901 Q 175.6578947368421 48.51485148514851 174.17763157894737 48.01980198019802 Q 172.69736842105263 47.524752475247524 170.23026315789474 47.02970297029703 Q 167.76315789473682 46.53465346534654 166.28289473684208 46.039603960396036 Q 164.80263157894737 45.54455445544554 161.8421052631579 45.04950495049505 Q 158.8815789473684 44.554455445544555 156.90789473684208 44.554455445544555 Q 154.93421052631578 44.554455445544555 153.94736842105263 44.554455445544555 Q 152.96052631578948 44.554455445544555 150 44.554455445544555 Q 147.03947368421052 44.554455445544555 146.05263157894734 44.554455445544555 Q 145.0657894736842 44.554455445544555 143.09210526315786 44.554455445544555 Q 141.11842105263156 44.554455445544555 138.65131578947367 44.554455445544555 Q 136.18421052631578 44.554455445544555 134.21052631578948 44.554455445544555 Q 132.23684210526315 44.554455445544555 130.7565789473684 45.04950495049505 Q 129.27631578947367 45.54455445544554 126.80921052631578 46.039603960396036 Q 124.34210526315789 46.53465346534654 122.36842105263158 47.02970297029703 Q 120.39473684210526 47.524752475247524 117.43421052631578 48.51485148514851 Q 114.47368421052632 49.504950495049506 112.99342105263158 50 Q 111.51315789473684 50.495049504950494 109.53947368421052 51.48514851485149 Q 107.5657894736842 52.475247524752476 105.0986842105263 54.45544554455445 Q 102.63157894736841 56.43564356435643 100.6578947368421 58.415841584158414 Q 98.68421052631578 60.396039603960396 96.71052631578947 62.37623762376238 Q 94.73684210526315 64.35643564356435 92.26973684210526 67.32673267326732 Q 89.80263157894737 70.29702970297029 88.32236842105263 72.27722772277227 Q 86.84210526315789 74.25742574257426 85.36184210526315 76.73267326732673 Q 83.88157894736841 79.20792079207921 82.40131578947367 82.67326732673267 Q 80.92105263157895 86.13861386138613 79.4407894736842 89.1089108910891 Q 77.96052631578947 92.07920792079207 76.48026315789474 96.03960396039604 Q 75 100 74.01315789473685 102.47524752475248 Q 73.02631578947368 104.95049504950495 72.03947368421052 107.92079207920793 Q 71.05263157894737 110.89108910891089 70.06578947368422 114.35643564356435 Q 69.07894736842105 117.82178217821782 68.09210526315789 120.29702970297029 Q 67.10526315789474 122.77227722772277 66.61184210526315 124.75247524752476 Q 66.11842105263158 126.73267326732673 65.13157894736841 130.69306930693068 Q 64.14473684210526 134.65346534653466 63.651315789473685 136.63366336633663 Q 63.1578947368421 138.6138613861386 62.171052631578945 142.07920792079207 Q 61.18421052631579 145.54455445544554 60.690789473684205 148.019801980198 Q 60.19736842105263 150.4950495049505 59.703947368421055 151.98019801980197 Q 59.21052631578947 153.46534653465346 58.71710526315789 156.93069306930693 Q 58.223684210526315 160.3960396039604 57.73026315789474 162.3762376237624 Q 57.23684210526316 164.35643564356437 57.23684210526316 166.83168316831683 Q 57.23684210526316 169.30693069306932 57.23684210526316 173.26732673267327 Q 57.23684210526316 177.22772277227722 57.23684210526316 179.7029702970297 Q 57.23684210526316 182.17821782178217 57.23684210526316 184.65346534653463 Q 57.23684210526316 187.12871287128712 57.23684210526316 190.59405940594058 Q 57.23684210526316 194.05940594059405 57.23684210526316 196.03960396039605 Q 57.23684210526316 198.01980198019803 57.23684210526316 201.980198019802 Q 57.23684210526316 205.94059405940595 57.23684210526316 208.41584158415841 Q 57.23684210526316 210.89108910891088 57.23684210526316 212.87128712871288 Q 57.23684210526316 214.85148514851485 57.23684210526316 218.81188118811883 Q 57.23684210526316 222.77227722772278 57.23684210526316 224.75247524752476 Q 57.23684210526316 226.73267326732673 57.23684210526316 229.7029702970297 Q 57.23684210526316 232.67326732673268 57.23684210526316 236.13861386138615 Q 57.23684210526316 239.6039603960396 57.73026315789474 242.0792079207921 Q 58.223684210526315 244.55445544554456 58.71710526315789 248.01980198019803 Q 59.21052631578947 251.4851485148515 59.21052631578947 253.46534653465346 Q 59.21052631578947 255.44554455445544 59.703947368421055 257.4257425742574 Q 60.19736842105263 259.4059405940594 61.18421052631579 262.3762376237624 Q 62.171052631578945 265.34653465346537 62.66447368421052 266.83168316831683 Q 63.1578947368421 268.3168316831683 63.1578947368421 270.2970297029703 Q 63.1578947368421 272.2772277227723 64.14473684210526 274.7524752475248 Q 65.13157894736842 277.2277227722772 65.625 278.7128712871287 Q 66.11842105263158 280.1980198019802 66.61184210526315 281.6831683168317 Q 67.10526315789474 283.16831683168317 68.09210526315789 285.6435643564356 Q 69.07894736842105 288.1188118811881 69.57236842105263 289.6039603960396 Q 70.0657894736842 291.08910891089107 70.55921052631578 294.05940594059405 Q 71.05263157894737 297.029702970297 72.03947368421052 298.5148514851485 Q 73.02631578947368 300 73.51973684210526 301.4851485148515 Q 74.01315789473684 302.970297029703 75 304.45544554455444 Q 75.98684210526315 305.94059405940595 76.48026315789474 306.9306930693069 Q 76.97368421052632 307.9207920792079 77.46710526315789 308.9108910891089 Q 77.96052631578947 309.9009900990099 79.4407894736842 311.8811881188119 Q 80.92105263157895 313.86138613861385 82.40131578947367 314.8514851485148 Q 83.88157894736841 315.84158415841586 85.85526315789474 316.83168316831683 Q 87.82894736842105 317.8217821782178 89.80263157894737 318.81188118811883 Q 91.77631578947368 319.8019801980198 93.25657894736841 320.2970297029703 Q 94.73684210526315 320.7920792079208 97.20394736842104 321.28712871287127 Q 99.67105263157895 321.78217821782175 101.64473684210526 322.2772277227723 Q 103.61842105263158 322.7722772277228 104.60526315789474 322.7722772277228 Q 105.59210526315789 322.7722772277228 107.5657894736842 323.26732673267327 Q 109.53947368421052 323.76237623762376 111.01973684210526 324.25742574257424 Q 112.5 324.7524752475247 113.98026315789474 324.7524752475247 Q 115.46052631578947 324.7524752475247 117.92763157894737 324.7524752475247 Q 120.39473684210526 324.7524752475247 121.38157894736841 324.7524752475247 Q 122.36842105263158 324.7524752475247 124.83552631578948 323.76237623762376 Q 127.30263157894737 322.7722772277228 128.7828947368421 322.2772277227723 Q 130.26315789473685 321.78217821782175 132.23684210526318 321.28712871287127 Q 134.21052631578948 320.7920792079208 135.69078947368422 320.7920792079208 Q 137.17105263157893 320.7920792079208 139.14473684210526 319.30693069306926 Q 141.11842105263156 317.8217821782178 143.09210526315786 317.3267326732673 Q 145.0657894736842 316.83168316831683 148.02631578947367 314.8514851485148 Q 150.98684210526315 312.8712871287129 152.96052631578948 311.38613861386136 Q 154.93421052631578 309.9009900990099 156.41447368421052 308.9108910891089 Q 157.89473684210526 307.9207920792079 160.36184210526315 305.94059405940595 Q 162.82894736842104 303.96039603960395 164.80263157894734 302.4752475247525 Q 166.77631578947367 300.990099009901 169.24342105263156 298.5148514851485 Q 171.71052631578948 296.03960396039605 174.17763157894737 294.05940594059405 Q 176.64473684210526 292.0792079207921 179.11184210526315 290.0990099009901 Q 181.57894736842104 288.1188118811881 185.52631578947367 283.1683168316831 Q 189.4736842105263 278.2178217821782 191.94078947368422 275.74257425742576 Q 194.4078947368421 273.26732673267327 196.875 270.2970297029703 Q 199.3421052631579 267.3267326732673 201.80921052631578 263.36633663366337 Q 204.27631578947367 259.4059405940594 205.7565789473684 256.9306930693069 Q 207.23684210526315 254.45544554455446 209.70394736842104 249.5049504950495 Q 212.17105263157893 244.55445544554456 214.14473684210526 241.58415841584159 Q 216.11842105263156 238.6138613861386 217.5986842105263 235.64356435643566 Q 219.07894736842104 232.67326732673268 220.06578947368422 231.1881188118812 Q 221.05263157894737 229.7029702970297 223.0263157894737 226.73267326732673 Q 225 223.76237623762376 225.49342105263156 222.27722772277227 Q 225.98684210526315 220.79207920792078 227.4671052631579 219.30693069306932 Q 228.94736842105263 217.82178217821783 228.94736842105263 216.83168316831683 L 228.94736842105263 215.82158415841582" stroke-linecap="round"></path>
</g>
</svg>
