<?xml version="1.0" encoding="UTF-8" standalone="no" ?>
<!DOCTYPE svg PUBLIC "-//W3C//DTD SVG 1.1//EN" "http://www.w3.org/Graphics/SVG/1.1/DTD/svg11.dtd">
<svg xmlns="http://www.w3.org/2000/svg" xmlns:xlink="http://www.w3.org/1999/xlink" version="1.1" width="200" height="300" viewBox="0 0 200 300" xml:space="preserve">
<desc>Created with Fabric.js 4.4.0</desc>
<defs>
</defs>
<g transform="matrix(1 0 0 1 88.32 98.55)"  >
<path style="stroke: rgb(0,0,0); stroke-width: 20; stroke-dasharray: none; stroke-linecap: round; stroke-dashoffset: 0; stroke-linejoin: round; stroke-miterlimit: 10; fill: none; fill-rule: nonzero; opacity: 1;"  transform=" translate(-88.32, -98.55)" d="M 8.98 233.10331298828126 Q 9 233.08331298828125 9 232.58331298828125 Q 9 232.08331298828125 9.5 231.58331298828125 Q 10 231.08331298828125 10.5 230.58331298828125 Q 11.000000000000002 230.08331298828128 12 228.58331298828128 Q 13 227.08331298828128 14 225.08331298828125 Q 15 223.08331298828125 16.5 220.58331298828125 Q 18 218.08331298828128 20.5 215.08331298828128 Q 23 212.08331298828128 25.5 209.08331298828128 Q 28.000000000000004 206.08331298828128 30.5 202.08331298828125 Q 33 198.08331298828125 35.5 193.08331298828125 Q 38 188.08331298828128 42 181.58331298828125 Q 46 175.08331298828125 50.5 166.58331298828125 Q 55 158.08331298828128 60 149.58331298828125 Q 65 141.08331298828125 70.5 129.58331298828125 Q 76 118.08331298828125 82 105.08331298828125 Q 88.00000000000001 92.08331298828125 94.5 79.08331298828125 Q 101 66.08331298828125 107 52.08331298828125 Q 113 38.08331298828125 122.5 19.58331298828125 Q 132 1.08331298828125 138 -14.91668701171875 Q 144 -30.91668701171875 149 -42.41668701171875 Q 154 -53.91668701171875 158 -64.41668701171875 Q 162 -74.91668701171875 162.5 -78.41668701171875 Q 163 -81.91668701171876 163 -82.91668701171875 Q 163 -83.91668701171875 163 -82.41668701171875 Q 163 -80.91668701171875 162.5 -79.41668701171875 Q 162 -77.91668701171875 162 -75.91668701171875 Q 162 -73.91668701171875 162 -70.91668701171875 Q 162 -67.91668701171875 162 -63.41668701171875 Q 162 -58.91668701171875 162 -55.41668701171875 Q 162 -51.91668701171875 160.5 -47.91668701171875 Q 159 -43.91668701171876 157 -34.91668701171875 Q 155.00000000000003 -25.91668701171875 153 -14.41668701171875 Q 151 -2.91668701171875 148.5 11.083312988281252 Q 146 25.083312988281254 144.5 40.08331298828125 Q 143 55.08331298828125 143 70.58331298828125 Q 143 86.08331298828125 143 102.58331298828125 Q 143 119.08331298828125 143 134.08331298828125 Q 143 149.08331298828125 143 161.58331298828125 Q 143 174.08331298828125 143 184.58331298828125 Q 143 195.08331298828125 143 202.08331298828125 Q 143 209.08331298828128 143 212.58331298828125 Q 143 216.08331298828125 143.5 217.08331298828125 Q 144 218.08331298828128 144 218.58331298828125 Q 144 219.08331298828125 144 220.08331298828125 Q 144 221.08331298828128 144.5 222.58331298828128 Q 145 224.08331298828128 145.5 225.08331298828125 Q 146 226.08331298828125 146.5 228.08331298828125 Q 147 230.08331298828128 147.5 232.58331298828125 Q 148 235.08331298828125 149 237.58331298828125 Q 150 240.08331298828125 152.5 246.58331298828125 Q 155.00000000000003 253.08331298828125 157.5 258.58331298828125 Q 160 264.08331298828125 162 270.08331298828125 Q 164.00000000000003 276.08331298828125 166 278.58331298828125 Q 168 281.08331298828125 167 280.08331298828125 Q 166 279.08331298828125 166 278.58331298828125 Q 166 278.08331298828125 165 276.58331298828125 L 163.98000000000002 275.06331298828127" stroke-linecap="round" />
</g>
<g transform="matrix(1 0 0 1 88.99 121.58)"  >
<path style="stroke: rgb(0,0,0); stroke-width: 20; stroke-dasharray: none; stroke-linecap: round; stroke-dashoffset: 0; stroke-linejoin: round; stroke-miterlimit: 10; fill: none; fill-rule: nonzero; opacity: 1;"  transform=" translate(-88.99, -121.58)" d="M 39.98 126.08331298828125 Q 40 126.08331298828125 41 126.08331298828125 Q 42 126.08331298828125 43 126.08331298828125 Q 44.00000000000001 126.08331298828125 63.5 124.58331298828125 Q 83 123.08331298828125 97.5 123.08331298828125 Q 112.00000000000001 123.08331298828125 121 120.58331298828125 Q 130 118.08331298828125 133 117.58331298828125 Q 136 117.08331298828125 137 117.08331298828125 Q 138 117.08331298828125 138 117.58331298828125 Q 138 118.08331298828125 137.5 118.58331298828125 Q 137 119.08331298828125 135 122.08331298828125 L 132.98 125.10331298828125" stroke-linecap="round" />
</g>
</svg>