<?xml version="1.0" encoding="UTF-8" standalone="no" ?>
<!DOCTYPE svg PUBLIC "-//W3C//DTD SVG 1.1//EN" "http://www.w3.org/Graphics/SVG/1.1/DTD/svg11.dtd">
<svg xmlns="http://www.w3.org/2000/svg" xmlns:xlink="http://www.w3.org/1999/xlink" version="1.1" width="200" height="300" viewBox="0 0 200 300" xml:space="preserve">
<desc>Created with Fabric.js 4.4.0</desc>
<defs>
</defs>
<g transform="matrix(1 0 0 1 99.82 142.55)"  >
<path style="stroke: rgb(0,0,0); stroke-width: 20; stroke-dasharray: none; stroke-linecap: round; stroke-dashoffset: 0; stroke-linejoin: round; stroke-miterlimit: 10; fill: none; fill-rule: nonzero; opacity: 1;"  transform=" translate(-99.82, -142.55)" d="M 32.98 265.68666412353514 Q 33 265.66666412353516 33.333335876464844 264.3333206176758 Q 33.66667175292969 262.9999771118164 35.500003814697266 258.3333206176758 Q 37.333335876464844 253.66666412353516 42.000003814697266 243.16666412353516 Q 46.66667175292969 232.66666412353516 50.500003814697266 224.83332061767578 Q 54.333335876464844 216.9999771118164 58.66666793823242 207.83332061767578 Q 63 198.66666412353516 67.83333587646484 188.83332061767578 Q 72.66667175292969 178.9999771118164 77.66667175292969 168.66666412353516 Q 82.66667175292969 158.3333511352539 87.83333587646484 147.6666717529297 Q 93 136.99999237060547 97.66667175292969 126.99999237060547 Q 102.33334350585938 116.99999237060547 106.83334350585938 107.66666412353516 Q 111.33334350585938 98.33333587646484 115.33334350585938 90.16666412353516 Q 119.33334350585938 81.99999237060547 123.83334350585938 71.66666412353516 Q 128.33334350585938 61.333335876464844 129.6666717529297 58.333335876464844 Q 131 55.333335876464844 133.1666717529297 49.833335876464844 Q 135.33334350585938 44.333335876464844 138.00000762939453 38.166664123535156 Q 140.6666717529297 31.99999237060547 141.33333587646484 30.49999237060547 Q 142 28.99999237060547 143 26.99999237060547 Q 144 24.99999237060547 145 22.99999237060547 Q 146 20.99999237060547 146.33333587646484 20.49999237060547 Q 146.6666717529297 19.99999237060547 147.1666717529297 19.666664123535156 Q 147.6666717529297 19.333335876464844 147.83333587646484 19.666664123535156 Q 148 19.99999237060547 148.83333587646484 22.666664123535156 Q 149.6666717529297 25.333335876464844 151.00000762939453 30.666664123535156 Q 152.33334350585938 35.99999237060547 153.33334350585938 43.333335876464844 Q 154.33334350585938 50.66667938232422 155.33334350585938 59.16667938232422 Q 156.33334350585938 67.66667938232422 157.50000762939453 81.16667938232422 Q 158.6666717529297 94.66667938232422 159.50000762939453 103.66667938232422 Q 160.33334350585938 112.66667938232422 160.6666717529297 117.00000762939453 Q 161 121.33333587646484 161.5 130.16666412353516 Q 162 138.99999237060547 162.5 147.1666717529297 Q 163 155.3333511352539 163.33333587646484 163.00000762939453 Q 163.6666717529297 170.66666412353516 164.00000762939453 177.50000762939453 Q 164.33334350585938 184.3333511352539 164.83334350585938 189.8333511352539 Q 165.33334350585938 195.3333511352539 165.6666717529297 199.50000762939453 Q 166 203.66666412353516 166.33333587646484 207.33332061767578 Q 166.6666717529297 210.9999771118164 166.6666717529297 213.66666412353516 L 166.6666717529297 216.35335113525392" stroke-linecap="round" />
</g>
<g transform="matrix(1 0 0 1 122.17 141.33)"  >
<path style="stroke: rgb(0,0,0); stroke-width: 20; stroke-dasharray: none; stroke-linecap: round; stroke-dashoffset: 0; stroke-linejoin: round; stroke-miterlimit: 10; fill: none; fill-rule: nonzero; opacity: 1;"  transform=" translate(-122.17, -141.33)" d="M 62.31334350585937 152.68666412353517 Q 62.333343505859375 152.66666412353516 64.00000762939453 152.66666412353516 Q 65.66667175292969 152.66666412353516 72.83333587646484 152.00000762939453 Q 80 151.3333511352539 87.83333587646484 150.16666412353516 Q 95.66667175292969 148.9999771118164 108.00000762939453 146.33332061767578 Q 120.33334350585938 143.66666412353516 128.50000762939453 141.5 Q 136.6666717529297 139.33333587646484 150.50000762939453 135.66666412353516 Q 164.33334350585938 131.99999237060547 173.1666717529297 130.99999237060547 L 182.02 129.97999237060546" stroke-linecap="round" />
</g>
</svg>