<?xml version="1.0" encoding="UTF-8" standalone="no" ?><!DOCTYPE svg PUBLIC "-//W3C//DTD SVG 1.1//EN" "http://www.w3.org/Graphics/SVG/1.1/DTD/svg11.dtd"><svg version="1.1" viewBox="0 0 200 300" xml:space="preserve"><desc>Created with Fabric.js 4.6.0</desc><defs/><g transform="matrix(1 0 0 1 100.41 126.68)"><path style="stroke:rgb(0,0,0);stroke-width:20;stroke-dasharray:none;stroke-linecap:round;stroke-dashoffset:0;stroke-linejoin:round;stroke-miterlimit:10;fill:none;fill-rule:nonzero;opacity:1" transform=" translate(-100.41, -126.68)" d="M 105.02 122 Q 105 122 100.5 121 Q 96 120 91 120 Q 86 120 77.5 122 Q 69 124 63 128.5 Q 57 133 53 140.5 Q 49 148 49 154 Q 49 160 50.5 166 Q 52 172 61 180 Q 70 188 79.5 190.5 Q 89 193 99.5 192.5 Q 110 192 124 187 Q 138 182 143.5 177 Q 149 172 150.5 166.5 Q 152 161 148 151 Q 144 141 135.5 134 Q 127 127 115.5 120.5 Q 104 114 99.5 111.5 Q 95 109 93 108 Q 91 107 90 106.5 Q 89 106 89 104.5 Q 89 103 92 100 Q 95 97 105 92 Q 115 87 119 86 Q 123 85 123.5 84.5 Q 124 84 124.5 84 Q 125 84 121 84.5 Q 117 85 101.5 85 Q 86 85 76.5 83 Q 67 81 61.5 78.5 Q 56 76 53.5 69 Q 51 62 52 57 Q 53 52 58 46.5 Q 63 41 76.5 36.5 Q 90 32 101 33.5 Q 112 35 119 38.5 Q 126 42 131 53.5 Q 136 65 135.5 78.5 Q 135 92 131 113 Q 127 134 124 143 Q 121 152 118 159 Q 115 166 110.5 174.5 Q 106 183 104.5 185 Q 103 187 103 187.5 Q 103 188 103 189.5 Q 103 191 107.5 194.5 Q 112 198 120.5 202.5 Q 129 207 139.5 212.5 Q 150 218 151 218.5 Q 152 219 151.5 219.5 Q 151 220 147.5 220.5 Q 144 221 127.5 218.5 Q 111 216 102.5 212.5 Q 94 209 88 205 Q 82 201 81.5 200.5 Q 81 200 81 199.5 Q 81 199 88.5 195 L 96.02 190.98" stroke-linecap="round"/></g></svg>