<?xml version="1.0" encoding="UTF-8" standalone="no" ?>
<!DOCTYPE svg PUBLIC "-//W3C//DTD SVG 1.1//EN" "http://www.w3.org/Graphics/SVG/1.1/DTD/svg11.dtd">
<svg xmlns="http://www.w3.org/2000/svg" xmlns:xlink="http://www.w3.org/1999/xlink" version="1.1" width="200" height="300" viewBox="0 0 200 300" xml:space="preserve">
<desc>Created with Fabric.js 4.4.0</desc>
<defs>
</defs>
<g transform="matrix(1 0 0 1 78.67 139.9)"  >
<path style="stroke: rgb(0,0,0); stroke-width: 20; stroke-dasharray: none; stroke-linecap: round; stroke-dashoffset: 0; stroke-linejoin: round; stroke-miterlimit: 10; fill: none; fill-rule: nonzero; opacity: 1;"  transform=" translate(-78.67, -139.9)" d="M 88.68667175292968 154.3333282470703 Q 88.66667175292969 154.3333282470703 88.16667175292969 153.8333282470703 Q 87.66667175292969 153.3333282470703 87.16667175292969 153.3333282470703 Q 86.66667175292969 153.3333282470703 85.66667175292969 153.3333282470703 Q 84.66667175292969 153.3333282470703 83.16667175292969 152.8333282470703 Q 81.66667175292969 152.3333282470703 79.16667175292969 151.8333282470703 Q 76.66667175292969 151.3333282470703 75.16667175292969 150.8333282470703 Q 73.66667175292969 150.3333282470703 72.16667175292969 149.8333282470703 Q 70.66667175292969 149.3333282470703 69.66667175292969 148.8333282470703 Q 68.66667175292969 148.3333282470703 66.66667175292969 147.8333282470703 Q 64.66667175292969 147.3333282470703 63.16667175292969 147.3333282470703 Q 61.66667175292969 147.3333282470703 59.16667175292969 148.3333282470703 Q 56.66667175292969 149.3333282470703 54.16667175292969 151.3333282470703 Q 51.66667175292969 153.3333282470703 48.16667175292969 156.3333282470703 Q 44.66667175292969 159.3333282470703 41.66667175292969 163.8333282470703 Q 38.66667175292969 168.3333282470703 36.66667175292969 172.3333282470703 Q 34.66667175292969 176.3333282470703 34.66667175292969 179.3333282470703 Q 34.66667175292969 182.3333282470703 34.66667175292969 183.8333282470703 Q 34.66667175292969 185.3333282470703 35.16667175292969 185.8333282470703 Q 35.66667175292969 186.3333282470703 36.16667175292969 187.3333282470703 Q 36.66667175292969 188.3333282470703 38.16667175292969 188.3333282470703 Q 39.66667175292969 188.3333282470703 41.16667175292969 188.3333282470703 Q 42.66667175292969 188.3333282470703 48.16667175292969 187.8333282470703 Q 53.66667175292969 187.3333282470703 58.16667175292969 186.3333282470703 Q 62.66667175292969 185.3333282470703 72.16667175292969 182.3333282470703 Q 81.66667175292969 179.3333282470703 86.16667175292969 177.3333282470703 Q 90.66667175292969 175.3333282470703 93.66667175292969 171.3333282470703 Q 96.66667175292969 167.3333282470703 98.66667175292969 162.8333282470703 Q 100.66667175292969 158.3333282470703 104.16667175292969 149.8333282470703 Q 107.66667175292969 141.3333282470703 109.16667175292969 131.8333282470703 Q 110.66667175292969 122.33332824707031 110.66667175292969 114.83332824707031 Q 110.66667175292969 107.33332824707031 110.16667175292969 101.33332824707031 Q 109.66667175292969 95.33332824707031 108.66667175292969 91.33332824707031 Q 107.66667175292969 87.33332824707031 106.16667175292969 83.83332824707031 Q 104.66667175292969 80.33332824707031 104.16667175292969 79.33332824707031 Q 103.66667175292969 78.33332824707031 103.16667175292969 77.33332824707031 Q 102.66667175292969 76.33332824707031 102.66667175292969 75.83332824707031 Q 102.66667175292969 75.33332824707031 102.66667175292969 75.83332824707031 Q 102.66667175292969 76.33332824707031 102.16667175292969 77.33332824707031 Q 101.66667175292969 78.33332824707031 101.66667175292969 79.33332824707031 Q 101.66667175292969 80.33332824707031 101.16667175292969 84.83332824707031 Q 100.66667175292969 89.33332824707031 100.66667175292969 92.33332824707031 Q 100.66667175292969 95.33332824707031 101.66667175292969 100.33332824707031 Q 102.66667175292969 105.33332824707031 103.66667175292969 111.83332824707031 Q 104.66667175292969 118.33332824707031 106.16667175292969 123.33332824707031 Q 107.66667175292969 128.3333282470703 109.16667175292969 137.3333282470703 Q 110.66667175292969 146.3333282470703 111.66667175292969 153.8333282470703 Q 112.66667175292969 161.3333282470703 114.16667175292969 165.8333282470703 Q 115.66667175292969 170.3333282470703 116.16667175292969 174.3333282470703 Q 116.66667175292969 178.3333282470703 117.66667175292969 182.3333282470703 Q 118.66667175292969 186.3333282470703 118.66667175292969 188.3333282470703 Q 118.66667175292969 190.3333282470703 119.16667175292969 191.8333282470703 Q 119.66667175292969 193.3333282470703 120.16667175292969 194.8333282470703 Q 120.66667175292969 196.3333282470703 120.66667175292969 197.3333282470703 Q 120.66667175292969 198.3333282470703 121.66667175292969 199.8333282470703 Q 122.66667175292969 201.3333282470703 122.66667175292969 201.8333282470703 Q 122.66667175292969 202.3333282470703 122.66667175292969 202.8333282470703 Q 122.66667175292969 203.3333282470703 122.66667175292969 203.8333282470703 Q 122.66667175292969 204.3333282470703 122.16667175292969 204.3333282470703 L 121.64667175292969 204.3333282470703" stroke-linecap="round" />
</g>
</svg>