<?xml version="1.0" encoding="UTF-8" standalone="no" ?><!DOCTYPE svg PUBLIC "-//W3C//DTD SVG 1.1//EN" "http://www.w3.org/Graphics/SVG/1.1/DTD/svg11.dtd"><svg version="1.1" viewBox="0 0 200 300" xml:space="preserve"><desc>Created with Fabric.js 4.6.0</desc><defs/><g transform="matrix(1 0 0 1 88.51 127.41)"><path style="stroke:rgb(0,0,0);stroke-width:20;stroke-dasharray:none;stroke-linecap:round;stroke-dashoffset:0;stroke-linejoin:round;stroke-miterlimit:10;fill:none;fill-rule:nonzero;opacity:1" transform=" translate(-88.51, -127.41)" d="M 145.52 89.5 Q 145.5 89.5 145 89 Q 144.5 88.5 144 88.5 Q 143.5 88.5 143 88.5 Q 142.5 88.5 141.5 88 Q 140.5 87.5 139 87 Q 137.5 86.5 135 86 Q 132.5 85.5 125.5 85 Q 118.5 84.5 113 84.5 Q 107.5 84.5 102.5 84.5 Q 97.5 84.5 94.5 84.5 Q 91.5 84.5 88 84.5 Q 84.5 84.5 79 85 Q 73.5 85.5 71 86 Q 68.5 86.5 66 88 Q 63.5 89.5 60 92 Q 56.5 94.5 53.5 97.5 Q 50.5 100.5 47.5 105 Q 44.5 109.5 43.5 113 Q 42.5 116.5 40 123 Q 37.5 129.5 36.5 133 Q 35.5 136.5 34 142 Q 32.5 147.5 32 153.5 Q 31.5 159.5 31.5 162.5 Q 31.5 165.5 31.5 167 Q 31.5 168.5 36 169.5 Q 40.5 170.5 43 170 Q 45.5 169.5 51.5 167 Q 57.5 164.5 66 162 Q 74.5 159.5 82 157 Q 89.5 154.5 96 151.5 Q 102.5 148.5 107.5 146 Q 112.5 143.5 114.5 142 Q 116.5 140.5 119.5 139 Q 122.5 137.5 124 136.5 Q 125.5 135.5 126.5 134 Q 127.5 132.5 128 130 Q 128.5 127.5 129 122.5 Q 129.5 117.5 130 114.5 Q 130.5 111.5 131 110.5 Q 131.5 109.5 131.5 108 Q 131.5 106.5 131.5 106 Q 131.5 105.5 131 105 Q 130.5 104.5 129.5 104 Q 128.5 103.5 127.5 102.5 Q 126.5 101.5 126 100.5 Q 125.5 99.5 125 98.5 L 124.48 97.48" stroke-linecap="round"/></g></svg>