<?xml version="1.0" encoding="UTF-8" standalone="no" ?>
<!DOCTYPE svg PUBLIC "-//W3C//DTD SVG 1.1//EN" "http://www.w3.org/Graphics/SVG/1.1/DTD/svg11.dtd">
<svg xmlns="http://www.w3.org/2000/svg" xmlns:xlink="http://www.w3.org/1999/xlink" version="1.1" width="200" height="300" viewBox="0 0 200 300" xml:space="preserve">
<desc>Created with Fabric.js 4.4.0</desc>
<defs>
</defs>
<g transform="matrix(1 0 0 1 72.83 139.33)"  >
<path style="stroke: rgb(0,0,0); stroke-width: 20; stroke-dasharray: none; stroke-linecap: round; stroke-dashoffset: 0; stroke-linejoin: round; stroke-miterlimit: 10; fill: none; fill-rule: nonzero; opacity: 1;"  transform=" translate(-72.83, -139.33)" d="M 46.646671752929684 48.979984741210934 Q 46.66667175292969 48.99998474121094 47.16667175292969 49.83332824707031 Q 47.66667175292969 50.66667175292969 51.333335876464844 57.83332824707031 Q 55 64.99998474121094 59.5 77.5 Q 64 90.00001525878906 74.83333587646484 126.66667175292969 Q 85.66667175292969 163.3333282470703 88.50000762939453 175.5 Q 91.33334350585938 187.6666717529297 93.33334350585938 197.3333282470703 Q 95.33334350585938 206.99998474121094 96.50000762939453 213.8333282470703 Q 97.66667175292969 220.6666717529297 98.33333587646484 225.1666717529297 L 99.02 229.6866717529297" stroke-linecap="round" />
</g>
<g transform="matrix(1 0 0 1 102.22 135.18)"  >
<path style="stroke: rgb(0,0,0); stroke-width: 20; stroke-dasharray: none; stroke-linecap: round; stroke-dashoffset: 0; stroke-linejoin: round; stroke-miterlimit: 10; fill: none; fill-rule: nonzero; opacity: 1;"  transform=" translate(-102.22, -135.18)" d="M 16.646671752929688 49.353328247070316 Q 16.666671752929688 49.33332824707031 18.000003814697266 48.83332824707031 Q 19.333335876464844 48.33332824707031 30.666667938232422 45.5 Q 42 42.66667175292969 54.5 41.16667175292969 Q 67 39.66667175292969 75.5 39.83332824707031 Q 84 39.99998474121094 92.16667175292969 40.83332824707031 Q 100.33334350585938 41.66667175292969 115.00000762939453 46.33332824707031 Q 129.6666717529297 50.99998474121094 133.00000762939453 57.166656494140625 Q 136.33334350585938 63.33332824707031 135.50000762939453 68 Q 134.6666717529297 72.66667175292969 131.50000762939453 78 Q 128.33334350585938 83.33332824707031 123.50000762939453 88.66667175292969 Q 118.66667175292969 94.00001525878906 112.16667175292969 99.33334350585938 Q 105.66667175292969 104.66667175292969 99.83333587646484 108.83332824707031 Q 94 112.99998474121094 87 117.16665649414062 Q 80 121.33332824707031 77 123.33332824707031 Q 74 125.33332824707031 73.16667175292969 126 Q 72.33334350585938 126.66667175292969 72.16667175292969 127 Q 72 127.33332824707031 75 127.83332824707031 Q 78 128.3333282470703 81 128.3333282470703 Q 84 128.3333282470703 95 127.5 Q 106 126.66667175292969 113.16667175292969 126.33332824707031 Q 120.33334350585938 125.99998474121094 131.00000762939453 126.66665649414062 Q 141.6666717529297 127.33332824707031 150.83333587646484 129.66665649414062 Q 160 131.99998474121094 162.1666717529297 132.8333282470703 Q 164.33334350585938 133.6666717529297 168.00000762939453 135.8333282470703 Q 171.6666717529297 137.99998474121094 174.83333587646484 140.66665649414062 Q 178 143.3333282470703 180.33333587646484 146.16665649414062 Q 182.6666717529297 148.99998474121094 184.50000762939453 152.3333282470703 Q 186.33334350585938 155.6666717529297 187.1666717529297 159.6666717529297 Q 188 163.6666717529297 187.1666717529297 168.8333282470703 Q 186.33334350585938 173.99998474121094 183.6666717529297 179.66665649414062 Q 181 185.3333282470703 171 196.16665649414062 Q 161 206.99998474121094 153.5 211.99998474121094 Q 146 216.99998474121094 138.33333587646484 220.49998474121094 Q 130.6666717529297 223.99998474121094 124.33333587646484 225.99998474121094 Q 118 227.99998474121094 111.33333587646484 229.16665649414062 Q 104.66667175292969 230.3333282470703 97.16667175292969 230.5 Q 89.66667175292969 230.6666717529297 86.16667175292969 230 Q 82.66667175292969 229.3333282470703 81.66667175292969 228.8333282470703 L 80.64667175292969 228.3133282470703" stroke-linecap="round" />
</g>
</svg>