<?xml version="1.0" encoding="UTF-8" standalone="no" ?>
<!DOCTYPE svg PUBLIC "-//W3C//DTD SVG 1.1//EN" "http://www.w3.org/Graphics/SVG/1.1/DTD/svg11.dtd">
<svg xmlns="http://www.w3.org/2000/svg" xmlns:xlink="http://www.w3.org/1999/xlink" version="1.1" width="200" height="300" viewBox="0 0 200 300" xml:space="preserve">
<desc>Created with Fabric.js 4.4.0</desc>
<defs>
</defs>
<g transform="matrix(1 0 0 1 118.82 126.62)"  >
<path style="stroke: rgb(0,0,0); stroke-width: 20; stroke-dasharray: none; stroke-linecap: round; stroke-dashoffset: 0; stroke-linejoin: round; stroke-miterlimit: 10; fill: none; fill-rule: nonzero; opacity: 1;"  transform=" translate(-118.82, -126.62)" d="M 57.98 45.98 Q 58 46 58.5 48.66667175292969 Q 59 51.333343505859375 59.66667175292969 54.16667175292969 Q 60.333343505859375 57 61.00000762939453 61 Q 61.66667175292969 65 62.833335876464844 75.83334350585938 Q 64 86.66668701171875 64.33333587646484 92.16668701171875 Q 64.66667175292969 97.66668701171875 65.16667175292969 108.66668701171875 Q 65.66667175292969 119.66668701171875 66.33333587646484 130.66668701171875 Q 67 141.66668701171875 67.5 146.33334350585938 Q 68 151 69 158.6666717529297 Q 70 166.33334350585938 70.66667175292969 170.00001525878906 Q 71.33334350585938 173.66668701171875 73.00000762939453 182.00001525878906 Q 74.66667175292969 190.33334350585938 75.33333587646484 192.50001525878906 Q 76 194.66668701171875 76.33333587646484 195.66668701171875 Q 76.66667175292969 196.66668701171875 77.50000762939453 200.16668701171875 Q 78.33334350585938 203.66668701171875 78.50000762939453 204.16668701171875 Q 78.66667175292969 204.66668701171875 78.66667175292969 205.50001525878906 Q 78.66667175292969 206.33334350585938 78.66667175292969 205.83334350585938 Q 78.66667175292969 205.33334350585938 78.66667175292969 204.50001525878906 Q 78.66667175292969 203.66668701171875 79.00000762939453 201.66668701171875 Q 79.33334350585938 199.66668701171875 79.33334350585938 195.00001525878906 Q 79.33334350585938 190.33334350585938 79.66667175292969 185.1666717529297 Q 80 180 80.66667175292969 173.5 Q 81.33334350585938 167 82.50000762939453 161.5 Q 83.66667175292969 156 84.00000762939453 155 Q 84.33334350585938 154 86.33334350585938 150 Q 88.33334350585938 146 89.66667175292969 144.33334350585938 Q 91 142.66668701171875 93.83333587646484 140.50001525878906 Q 96.66667175292969 138.33334350585938 98.66667175292969 137.1666717529297 Q 100.66667175292969 136 106.16667175292969 134.33334350585938 Q 111.66667175292969 132.66668701171875 114.83333587646484 132.33334350585938 Q 118 132 121.66667175292969 132 Q 125.33334350585938 132 126.66667175292969 132.1666717529297 Q 128 132.33334350585938 130.83333587646484 132.83334350585938 Q 133.6666717529297 133.33334350585938 136.83333587646484 134.33334350585938 Q 140 135.33334350585938 143 137.00001525878906 Q 146 138.66668701171875 154.83333587646484 145.83334350585938 Q 163.6666717529297 153 166.33333587646484 156.1666717529297 Q 169 159.33334350585938 170.83333587646484 161.83334350585938 Q 172.6666717529297 164.33334350585938 174.1666717529297 166.6666717529297 Q 175.6666717529297 169 176.83333587646484 171 Q 178 173 178.83333587646484 176 Q 179.6666717529297 179 179.6666717529297 181.83334350585938 Q 179.6666717529297 184.66668701171875 179.00000762939453 186.00001525878906 Q 178.33334350585938 187.33334350585938 173.50000762939453 191.00001525878906 Q 168.6666717529297 194.66668701171875 165.6666717529297 196.33334350585938 Q 162.6666717529297 198 159.1666717529297 199.6666717529297 Q 155.6666717529297 201.33334350585938 151.6666717529297 202.83334350585938 Q 147.6666717529297 204.33334350585938 144.1666717529297 205.33334350585938 Q 140.6666717529297 206.33334350585938 134.33333587646484 206.83334350585938 Q 128 207.33334350585938 126 207.1666717529297 Q 124 207 120 206.1666717529297 Q 116 205.33334350585938 112.5 204.00001525878906 Q 109 202.66668701171875 106.5 201.33334350585938 L 103.98 199.98" stroke-linecap="round" />
</g>
</svg>