<?xml version="1.0" encoding="UTF-8" standalone="no" ?>
<!DOCTYPE svg PUBLIC "-//W3C//DTD SVG 1.1//EN" "http://www.w3.org/Graphics/SVG/1.1/DTD/svg11.dtd">
<svg xmlns="http://www.w3.org/2000/svg" xmlns:xlink="http://www.w3.org/1999/xlink" version="1.1" width="200" height="300" viewBox="0 0 200 300" xml:space="preserve">
<desc>Created with Fabric.js 4.6.0</desc>
<defs>
</defs>
<g transform="matrix(1 0 0 1 97.76 164.67)"  >
<path style="stroke: rgb(0,0,0); stroke-width: 20; stroke-dasharray: none; stroke-linecap: round; stroke-dashoffset: 0; stroke-linejoin: round; stroke-miterlimit: 10; fill: none; fill-rule: nonzero; opacity: 1;"  transform=" translate(-97.76, -164.67)" d="M 118.77 126.66668701171875 Q 118.75 126.66668701171875 118.25 126.16668701171875 Q 117.75 125.66668701171875 117.25 125.66668701171875 Q 116.75 125.66668701171875 115.25 125.66668701171875 Q 113.75 125.66668701171875 112.75 125.66668701171875 Q 111.75 125.66668701171875 110.75 125.16668701171875 Q 109.75000000000001 124.66668701171875 109.25 124.66668701171875 Q 108.75 124.66668701171875 107.75 124.66668701171875 Q 106.75000000000001 124.66668701171875 105.75 124.66668701171875 Q 104.75 124.66668701171875 103.75 124.66668701171875 Q 102.75 124.66668701171875 102.25 124.66668701171875 Q 101.75 124.66668701171875 100.75 124.66668701171875 Q 99.75 124.66668701171875 98.75 124.66668701171875 Q 97.75000000000001 124.66668701171875 97.25 124.66668701171875 Q 96.75 124.66668701171875 96.25 124.66668701171875 Q 95.75 124.66668701171875 95.25 124.66668701171875 Q 94.75000000000001 124.66668701171875 94.25 124.66668701171875 Q 93.75 124.66668701171875 93.25 124.66668701171875 Q 92.75 124.66668701171875 92.25 124.66668701171875 Q 91.75000000000001 124.66668701171875 91.25 124.66668701171875 Q 90.75 124.66668701171875 89.75 124.16668701171875 Q 88.75000000000001 123.66668701171875 88.25 123.66668701171875 Q 87.75 123.66668701171875 87.25 124.16668701171875 Q 86.75 124.66668701171875 86.25 124.66668701171875 Q 85.75000000000001 124.66668701171875 85.25 124.66668701171875 Q 84.75 124.66668701171875 84.25 125.16668701171875 Q 83.75 125.66668701171875 83.25 125.66668701171875 Q 82.75000000000001 125.66668701171875 81.75 125.66668701171875 Q 80.75 125.66668701171875 80.75 126.16668701171875 Q 80.75 126.66668701171875 79.75 127.16668701171875 Q 78.75 127.66668701171875 78.25 127.66668701171875 Q 77.75 127.66668701171875 77.25 128.66668701171875 Q 76.75 129.66668701171875 75.75 130.66668701171875 Q 74.75 131.66668701171875 73.25 133.16668701171875 Q 71.75 134.66668701171875 71.75 135.16668701171875 Q 71.75 135.66668701171875 70.75 135.66668701171875 Q 69.75 135.66668701171875 69.25 136.66668701171875 Q 68.75 137.66668701171875 68.25 138.16668701171875 Q 67.75 138.66668701171875 67.25 139.16668701171875 Q 66.75 139.66668701171875 66.75 140.16668701171875 Q 66.75 140.66668701171875 66.25 141.16668701171875 Q 65.75 141.66668701171875 64.75 142.66668701171875 Q 63.75 143.66668701171875 63.75 144.66668701171875 Q 63.75 145.66668701171875 63.25 146.16668701171875 Q 62.75 146.66668701171875 62.25 147.16668701171875 Q 61.75 147.66668701171875 61.75 148.16668701171875 Q 61.75 148.66668701171875 61.75 149.66668701171875 Q 61.75 150.66668701171875 61.25 151.66668701171875 Q 60.75 152.66668701171875 60.25 154.16668701171875 Q 59.75 155.66668701171878 59.75 156.16668701171875 Q 59.75 156.66668701171875 59.25 157.66668701171875 Q 58.75 158.66668701171878 58.75 159.16668701171875 Q 58.75 159.66668701171875 58.75 160.16668701171875 Q 58.75 160.66668701171875 58.75 161.16668701171875 Q 58.75 161.66668701171878 58.75 163.16668701171878 Q 58.75 164.66668701171878 58.75 165.16668701171875 Q 58.75 165.66668701171875 58.75 166.16668701171875 Q 58.75 166.66668701171875 58.75 168.16668701171875 Q 58.75 169.66668701171875 58.75 170.16668701171875 Q 58.75 170.66668701171878 58.75 171.66668701171875 Q 58.75 172.66668701171875 58.75 173.16668701171875 Q 58.75 173.66668701171878 58.75 174.66668701171875 Q 58.75 175.66668701171875 58.75 176.16668701171875 Q 58.75 176.66668701171878 58.75 177.16668701171875 Q 58.75 177.66668701171875 58.75 178.66668701171875 Q 58.75 179.66668701171878 58.75 180.16668701171875 Q 58.75 180.66668701171875 59.25 180.66668701171875 Q 59.75 180.66668701171875 59.75 181.16668701171875 Q 59.75 181.66668701171875 60.25 182.16668701171875 Q 60.75 182.66668701171878 61.25 183.66668701171875 Q 61.75 184.66668701171875 61.75 185.16668701171875 Q 61.75 185.66668701171878 62.25 185.66668701171878 Q 62.75 185.66668701171878 63.75 186.66668701171875 Q 64.75 187.66668701171875 64.75 188.16668701171875 Q 64.75 188.66668701171878 65.25 189.16668701171875 Q 65.75 189.66668701171875 66.25 190.16668701171875 Q 66.75 190.66668701171875 67.25 191.66668701171875 Q 67.75 192.66668701171875 68.25 193.16668701171875 Q 68.75 193.66668701171875 70.25 194.66668701171875 Q 71.75 195.66668701171875 72.25 195.66668701171875 Q 72.75 195.66668701171875 73.25 196.16668701171875 Q 73.75 196.66668701171875 75.25 197.66668701171875 Q 76.75 198.66668701171875 77.25 199.16668701171875 Q 77.75 199.66668701171875 79.25 200.16668701171875 Q 80.75 200.66668701171878 81.25 201.16668701171875 Q 81.75 201.66668701171875 82.75 201.66668701171875 Q 83.75 201.66668701171875 85.25 202.66668701171875 Q 86.75 203.66668701171878 87.25 203.66668701171878 Q 87.75 203.66668701171878 88.25 203.66668701171878 Q 88.75000000000001 203.66668701171878 89.75 204.16668701171875 Q 90.75 204.66668701171875 91.25 205.16668701171875 Q 91.75000000000001 205.66668701171875 92.25 205.66668701171875 Q 92.75 205.66668701171875 94.25 205.66668701171875 Q 95.75 205.66668701171875 96.25 205.66668701171875 Q 96.75 205.66668701171875 97.25 205.66668701171875 Q 97.75000000000001 205.66668701171875 98.25 205.66668701171875 Q 98.75 205.66668701171875 99.25 205.66668701171875 Q 99.75 205.66668701171875 100.25 205.66668701171875 Q 100.75000000000001 205.66668701171875 101.25 205.66668701171875 Q 101.75 205.66668701171875 102.25 205.66668701171875 Q 102.75 205.66668701171875 103.25 205.66668701171875 Q 103.75000000000001 205.66668701171875 104.25 205.66668701171875 Q 104.75 205.66668701171875 105.25 205.66668701171875 Q 105.75 205.66668701171875 106.25 205.16668701171875 Q 106.75000000000001 204.66668701171875 107.25 204.16668701171875 Q 107.75 203.66668701171878 109.25 203.16668701171875 Q 110.75 202.66668701171875 111.75 201.66668701171875 Q 112.75000000000001 200.66668701171878 113.75 200.16668701171875 Q 114.75 199.66668701171875 115.75 198.66668701171875 Q 116.75 197.66668701171878 116.75 197.16668701171875 Q 116.75 196.66668701171875 117.25 196.66668701171875 Q 117.75 196.66668701171875 118.75 196.16668701171875 Q 119.75 195.66668701171875 120.75 194.66668701171875 Q 121.75 193.66668701171875 123.75 192.16668701171875 Q 125.75 190.66668701171875 127.75 188.66668701171875 Q 129.75 186.66668701171875 130.25 186.16668701171875 Q 130.75 185.66668701171878 131.25 184.66668701171875 Q 131.75 183.66668701171875 132.25 183.16668701171875 Q 132.75 182.66668701171878 133.25 182.16668701171875 Q 133.75 181.66668701171875 133.75 181.16668701171875 Q 133.75 180.66668701171875 134.25 180.66668701171875 Q 134.75 180.66668701171875 135.25 180.66668701171875 Q 135.75 180.66668701171875 136.25 180.16668701171875 L 136.77 179.64668701171877" stroke-linecap="round" />
</g>
</svg>