<?xml version="1.0" encoding="UTF-8" standalone="no" ?>
<!DOCTYPE svg PUBLIC "-//W3C//DTD SVG 1.1//EN" "http://www.w3.org/Graphics/SVG/1.1/DTD/svg11.dtd">
<svg xmlns="http://www.w3.org/2000/svg" xmlns:xlink="http://www.w3.org/1999/xlink" version="1.1" width="200" height="300" viewBox="0 0 200 300" xml:space="preserve">
<desc>Created with Fabric.js 4.4.0</desc>
<defs>
</defs>
<g transform="matrix(1 0 0 1 76.67 172.83)"  >
<path style="stroke: rgb(0,0,0); stroke-width: 20; stroke-dasharray: none; stroke-linecap: round; stroke-dashoffset: 0; stroke-linejoin: round; stroke-miterlimit: 10; fill: none; fill-rule: nonzero; opacity: 1;"  transform=" translate(-76.67, -172.83)" d="M 112.66667175292969 140.35332824707032 Q 112.66667175292969 140.3333282470703 112.66667175292969 139.8333282470703 Q 112.66667175292969 139.3333282470703 112.66667175292969 138.3333282470703 Q 112.66667175292969 137.3333282470703 112.66667175292969 135.8333282470703 Q 112.66667175292969 134.3333282470703 112.66667175292969 130.3333282470703 Q 112.66667175292969 126.33332824707031 111.66667175292969 124.33332824707031 Q 110.66667175292969 122.33332824707031 109.66667175292969 120.83332824707031 Q 108.66667175292969 119.33332824707031 107.16667175292969 117.83332824707031 Q 105.66667175292969 116.33332824707031 104.16667175292969 114.83332824707031 Q 102.66667175292969 113.33332824707031 101.66667175292969 113.33332824707031 Q 100.66667175292969 113.33332824707031 95.66667175292969 114.83332824707031 Q 90.66667175292969 116.33332824707031 84.16667175292969 120.33332824707031 Q 77.66667175292969 124.33332824707031 69.16667175292969 131.3333282470703 Q 60.66667175292969 138.3333282470703 54.66667175292969 143.3333282470703 Q 48.66667175292969 148.3333282470703 43.16667175292969 154.3333282470703 Q 37.66667175292969 160.3333282470703 35.16667175292969 166.3333282470703 Q 32.66667175292969 172.3333282470703 32.66667175292969 178.8333282470703 Q 32.66667175292969 185.3333282470703 34.66667175292969 192.3333282470703 Q 36.66667175292969 199.3333282470703 39.66667175292969 204.3333282470703 Q 42.66667175292969 209.3333282470703 48.16667175292969 213.8333282470703 Q 53.66667175292969 218.3333282470703 59.16667175292969 222.3333282470703 Q 64.66667175292969 226.3333282470703 69.66667175292969 228.3333282470703 Q 74.66667175292969 230.3333282470703 82.16667175292969 231.3333282470703 Q 89.66667175292969 232.3333282470703 92.66667175292969 232.3333282470703 Q 95.66667175292969 232.3333282470703 101.16667175292969 230.8333282470703 Q 106.66667175292969 229.3333282470703 110.16667175292969 227.8333282470703 Q 113.66667175292969 226.3333282470703 115.16667175292969 226.3333282470703 Q 116.66667175292969 226.3333282470703 118.16667175292969 225.8333282470703 Q 119.66667175292969 225.3333282470703 120.16667175292969 224.8333282470703 Q 120.66667175292969 224.3333282470703 120.66667175292969 223.3333282470703 L 120.66667175292969 222.3133282470703" stroke-linecap="round" />
</g>
</svg>