<?xml version="1.0" encoding="UTF-8" standalone="no" ?>
<!DOCTYPE svg PUBLIC "-//W3C//DTD SVG 1.1//EN" "http://www.w3.org/Graphics/SVG/1.1/DTD/svg11.dtd">
<svg xmlns="http://www.w3.org/2000/svg" xmlns:xlink="http://www.w3.org/1999/xlink" version="1.1" width="200" height="300" viewBox="0 0 200 300" xml:space="preserve">
<desc>Created with Fabric.js 4.4.0</desc>
<defs>
</defs>
<g transform="matrix(1 0 0 1 125.68 133.33)"  >
<path style="stroke: rgb(0,0,0); stroke-width: 20; stroke-dasharray: none; stroke-linecap: round; stroke-dashoffset: 0; stroke-linejoin: round; stroke-miterlimit: 10; fill: none; fill-rule: nonzero; opacity: 1;"  transform=" translate(-125.68, -133.33)" d="M 194.68668701171876 87.35332824707031 Q 194.66668701171875 87.33332824707031 194.00001525878906 86.66665649414062 Q 193.33334350585938 85.99998474121094 191.33334350585938 83.99998474121094 Q 189.33334350585938 81.99998474121094 184.6666717529297 76.83332824707031 Q 180 71.66667175292969 176.5 68.66667175292969 Q 173 65.66667175292969 169.33333587646484 63 Q 165.6666717529297 60.33332824707031 157.50000762939453 56.166656494140625 Q 149.33334350585938 51.99998474121094 144.6666717529297 51.33332824707031 Q 140 50.66667175292969 134.5 51 Q 129 51.33332824707031 124.16667175292969 52.5 Q 119.33334350585938 53.66667175292969 109.66667175292969 59.5 Q 100 65.33332824707031 95 70 Q 90 74.66667175292969 84.33333587646484 81.5 Q 78.66667175292969 88.33332824707031 72.83333587646484 98.33332824707031 Q 67 108.33332824707031 65.5 111.5 Q 64 114.66667175292969 61 124.33332824707031 Q 58 133.99998474121094 57.333335876464844 139.3333282470703 Q 56.66667175292969 144.6666717529297 56.66667175292969 147.3333282470703 Q 56.66667175292969 149.99998474121094 58.00000762939453 160.3333282470703 Q 59.333343505859375 170.6666717529297 60.333343505859375 175.3333282470703 Q 61.333343505859375 179.99998474121094 63.50000762939453 187.8333282470703 Q 65.66667175292969 195.6666717529297 66.33333587646484 197.3333282470703 Q 67 198.99998474121094 67.66667175292969 200.49998474121094 Q 68.33334350585938 201.99998474121094 72.50000762939453 206.3333282470703 Q 76.66667175292969 210.6666717529297 81.33333587646484 212.5 Q 86 214.3333282470703 94.66667175292969 215.16665649414062 Q 103.33334350585938 215.99998474121094 106.83334350585938 215.66665649414062 Q 110.33334350585938 215.3333282470703 116.66667175292969 214 Q 123 212.6666717529297 130 210.5 Q 137 208.3333282470703 146.1666717529297 203.5 Q 155.33334350585938 198.6666717529297 158.33334350585938 196.8333282470703 Q 161.33334350585938 194.99998474121094 166.6666717529297 190.99998474121094 L 172.02 186.97998474121093" stroke-linecap="round" />
</g>
</svg>