<?xml version="1.0" encoding="UTF-8" standalone="no" ?>
<!DOCTYPE svg PUBLIC "-//W3C//DTD SVG 1.1//EN" "http://www.w3.org/Graphics/SVG/1.1/DTD/svg11.dtd">
<svg xmlns="http://www.w3.org/2000/svg" xmlns:xlink="http://www.w3.org/1999/xlink" version="1.1" width="200" height="300" viewBox="0 0 200 300" xml:space="preserve">
<desc>Created with Fabric.js 4.6.0</desc>
<defs>
</defs>
<g transform="matrix(1 0 0 1 94.76 151.18)"  >
<path style="stroke: rgb(0,0,0); stroke-width: 20; stroke-dasharray: none; stroke-linecap: round; stroke-dashoffset: 0; stroke-linejoin: round; stroke-miterlimit: 10; fill: none; fill-rule: nonzero; opacity: 1;"  transform=" translate(-94.76, -151.18)" d="M 103.77000000000001 150.66668701171875 Q 103.75000000000001 150.66668701171875 103.25 150.66668701171875 Q 102.75 150.66668701171875 102.25 150.66668701171875 Q 101.75 150.66668701171875 100.75 150.66668701171875 Q 99.75 150.66668701171875 98.75 150.66668701171875 Q 97.75000000000001 150.66668701171875 97.25 150.66668701171875 Q 96.75 150.66668701171875 95.75 150.66668701171875 Q 94.75000000000001 150.66668701171875 93.75 150.66668701171875 Q 92.75 150.66668701171875 92.25 150.66668701171875 Q 91.75000000000001 150.66668701171875 91.25 150.66668701171875 Q 90.75 150.66668701171875 90.25 150.66668701171875 Q 89.75 150.66668701171875 88.75 150.66668701171875 Q 87.75 150.66668701171875 87.25 150.66668701171875 Q 86.75 150.66668701171875 86.25 150.66668701171875 Q 85.75000000000001 150.66668701171875 85.25 150.66668701171875 Q 84.75 150.66668701171875 83.75 150.66668701171875 Q 82.75000000000001 150.66668701171875 82.25 150.66668701171875 Q 81.75 150.66668701171875 81.25 150.66668701171875 Q 80.75 150.66668701171875 80.25 150.66668701171875 Q 79.75000000000001 150.66668701171875 78.75 150.66668701171875 Q 77.75 150.66668701171875 77.25 150.66668701171875 Q 76.75 150.66668701171875 76.25 151.16668701171875 Q 75.75 151.66668701171875 74.75 151.66668701171875 Q 73.75 151.66668701171875 73.25 152.16668701171875 Q 72.75 152.66668701171875 72.25 152.66668701171875 Q 71.75 152.66668701171875 71.75 153.16668701171875 Q 71.75 153.66668701171875 71.25 153.66668701171875 Q 70.75 153.66668701171875 70.25 154.16668701171875 Q 69.75 154.66668701171875 69.25 154.66668701171875 Q 68.75 154.66668701171875 67.75 155.16668701171875 Q 66.75 155.66668701171878 66.75 156.16668701171875 Q 66.75 156.66668701171875 65.75 157.16668701171875 Q 64.75 157.66668701171875 64.25 158.16668701171875 Q 63.75 158.66668701171878 62.75 159.16668701171875 Q 61.75 159.66668701171875 61.25 160.16668701171875 Q 60.75 160.66668701171875 60.25 160.66668701171875 Q 59.75 160.66668701171875 59.25 161.16668701171875 Q 58.75 161.66668701171878 58.25 162.66668701171875 Q 57.75 163.66668701171875 57.25 164.66668701171875 Q 56.75000000000001 165.66668701171875 56.75000000000001 166.16668701171875 Q 56.75000000000001 166.66668701171875 56.75000000000001 167.16668701171875 Q 56.75000000000001 167.66668701171878 56.25 168.16668701171875 Q 55.75 168.66668701171875 55.25 169.66668701171875 Q 54.75 170.66668701171878 54.25 171.66668701171875 Q 53.75000000000001 172.66668701171875 53.25 173.66668701171875 Q 52.75 174.66668701171875 52.75 175.16668701171875 Q 52.75 175.66668701171875 52.75 177.16668701171875 Q 52.75 178.66668701171875 52.75 179.66668701171875 Q 52.75 180.66668701171875 52.75 181.16668701171875 Q 52.75 181.66668701171875 52.75 182.66668701171875 Q 52.75 183.66668701171875 52.75 184.16668701171875 Q 52.75 184.66668701171875 52.75 185.16668701171875 Q 52.75 185.66668701171878 52.75 186.16668701171875 Q 52.75 186.66668701171875 52.75 187.66668701171875 Q 52.75 188.66668701171878 52.75 189.16668701171875 Q 52.75 189.66668701171875 53.25 190.16668701171875 Q 53.75000000000001 190.66668701171875 53.75000000000001 191.66668701171875 Q 53.75000000000001 192.66668701171875 53.75000000000001 193.66668701171875 Q 53.75000000000001 194.66668701171878 54.25 195.16668701171875 Q 54.75 195.66668701171875 55.25 196.16668701171875 Q 55.75 196.66668701171875 56.25 197.66668701171875 Q 56.75000000000001 198.66668701171875 57.25 199.16668701171875 Q 57.75 199.66668701171875 58.25 200.16668701171875 Q 58.75 200.66668701171878 59.25 200.66668701171878 Q 59.75 200.66668701171878 60.75 201.66668701171875 Q 61.75 202.66668701171875 62.25 203.16668701171875 Q 62.75 203.66668701171878 63.25 204.66668701171875 Q 63.75 205.66668701171875 64.25 205.66668701171875 Q 64.75 205.66668701171875 65.25 206.16668701171875 Q 65.75 206.66668701171878 66.25 206.66668701171878 Q 66.75 206.66668701171878 67.75 207.16668701171875 Q 68.75 207.66668701171875 69.25 208.16668701171875 Q 69.75 208.66668701171875 70.75 209.16668701171875 Q 71.75 209.66668701171878 72.25 209.66668701171878 Q 72.75 209.66668701171878 73.25 210.16668701171875 Q 73.75 210.66668701171875 74.75 210.66668701171875 Q 75.75 210.66668701171875 76.25 210.66668701171875 Q 76.75 210.66668701171875 77.25 210.66668701171875 Q 77.75 210.66668701171875 78.75 210.66668701171875 Q 79.75000000000001 210.66668701171875 80.75 210.66668701171875 Q 81.75 210.66668701171875 82.25 210.66668701171875 Q 82.75000000000001 210.66668701171875 84.25000000000001 210.66668701171875 Q 85.75000000000001 210.66668701171875 86.25 210.66668701171875 Q 86.75 210.66668701171875 87.75 210.66668701171875 Q 88.75000000000001 210.66668701171875 90.25000000000001 210.16668701171875 Q 91.75000000000001 209.66668701171878 92.25 209.16668701171875 Q 92.75 208.66668701171875 93.75 208.16668701171875 Q 94.75000000000001 207.66668701171875 95.25 207.66668701171875 Q 95.75 207.66668701171875 96.25 207.16668701171875 Q 96.75 206.66668701171878 97.25 206.66668701171878 Q 97.75000000000001 206.66668701171878 98.25 206.16668701171875 Q 98.75 205.66668701171875 100.75 203.16668701171875 Q 102.75 200.66668701171878 104.75 199.16668701171878 Q 106.75000000000001 197.66668701171878 108.75 194.66668701171878 Q 110.75 191.66668701171878 111.25 191.16668701171875 Q 111.75 190.66668701171875 111.75 190.16668701171875 Q 111.75 189.66668701171875 112.25 189.16668701171875 Q 112.75000000000001 188.66668701171878 113.25 187.66668701171875 Q 113.75 186.66668701171875 114.25 185.66668701171875 Q 114.75 184.66668701171875 115.75 182.66668701171875 Q 116.75 180.66668701171875 117.25 179.16668701171875 Q 117.75 177.66668701171875 118.25 176.66668701171875 Q 118.75 175.66668701171875 119.25 173.66668701171875 Q 119.75 171.66668701171875 119.75 170.16668701171875 Q 119.75 168.66668701171875 120.25 166.66668701171875 Q 120.75 164.66668701171878 120.75 162.66668701171875 Q 120.75 160.66668701171875 120.75 159.16668701171875 Q 120.75 157.66668701171875 120.75 156.16668701171875 Q 120.75 154.66668701171875 120.25 153.16668701171875 Q 119.75 151.66668701171875 119.75 150.16668701171875 Q 119.75 148.66668701171875 119.25 147.16668701171875 Q 118.75 145.66668701171875 118.75 143.66668701171875 Q 118.75 141.66668701171875 118.75 140.66668701171875 Q 118.75 139.66668701171875 118.25 138.16668701171875 Q 117.75 136.66668701171875 117.75 136.16668701171875 Q 117.75 135.66668701171875 117.75 133.66668701171875 Q 117.75 131.66668701171875 117.75 130.16668701171875 Q 117.75 128.66668701171875 117.75 126.66668701171875 Q 117.75 124.66668701171875 117.75 121.66668701171875 Q 117.75 118.66668701171875 118.25 117.16668701171875 Q 118.75 115.66668701171875 118.75 114.66668701171875 Q 118.75 113.66668701171875 118.75 113.16668701171875 Q 118.75 112.66668701171876 118.75 112.16668701171875 Q 118.75 111.66668701171875 119.25 110.66668701171875 Q 119.75 109.66668701171876 119.75 108.16668701171876 Q 119.75 106.66668701171876 120.75 105.16668701171876 Q 121.75 103.66668701171876 121.75 102.16668701171876 Q 121.75 100.66668701171876 121.75 99.66668701171875 Q 121.75 98.66668701171875 121.75 98.16668701171875 Q 121.75 97.66668701171876 121.75 96.66668701171875 Q 121.75 95.66668701171875 121.75 95.16668701171875 Q 121.75 94.66668701171876 121.75 93.66668701171875 Q 121.75 92.66668701171875 121.75 92.16668701171875 Q 121.75 91.66668701171876 121.75 91.16668701171875 Q 121.75 90.66668701171875 121.25 90.66668701171875 Q 120.75 90.66668701171875 120.25 90.66668701171875 Q 119.75 90.66668701171875 119.25 92.66668701171875 Q 118.75 94.66668701171876 118.25 97.16668701171875 Q 117.75 99.66668701171875 117.75 101.16668701171875 Q 117.75 102.66668701171875 117.75 104.16668701171875 Q 117.75 105.66668701171875 117.75 108.16668701171875 Q 117.75 110.66668701171875 117.75 112.16668701171875 Q 117.75 113.66668701171875 117.75 115.66668701171875 Q 117.75 117.66668701171875 117.75 121.16668701171875 Q 117.75 124.66668701171875 117.75 126.66668701171875 Q 117.75 128.66668701171875 118.25 131.66668701171875 Q 118.75 134.66668701171875 118.75 135.66668701171875 Q 118.75 136.66668701171875 118.75 138.16668701171875 Q 118.75 139.66668701171875 118.75 142.16668701171875 Q 118.75 144.66668701171875 118.75 145.16668701171875 Q 118.75 145.66668701171875 118.75 147.66668701171875 Q 118.75 149.66668701171875 118.75 150.66668701171875 Q 118.75 151.66668701171875 118.75 152.66668701171875 Q 118.75 153.66668701171875 118.75 155.16668701171875 Q 118.75 156.66668701171875 119.25 158.66668701171875 Q 119.75 160.66668701171875 119.75 161.16668701171875 Q 119.75 161.66668701171878 119.75 163.66668701171875 Q 119.75 165.66668701171875 120.25 167.16668701171875 Q 120.75 168.66668701171875 121.25 169.66668701171875 Q 121.75 170.66668701171878 121.75 173.16668701171875 Q 121.75 175.66668701171875 121.75 177.16668701171875 Q 121.75 178.66668701171875 122.25 180.16668701171875 Q 122.75 181.66668701171875 122.75 182.16668701171875 Q 122.75 182.66668701171878 122.75 183.66668701171875 Q 122.75 184.66668701171875 123.25 185.66668701171875 Q 123.75 186.66668701171875 123.75 187.16668701171875 Q 123.75 187.66668701171875 124.25 188.66668701171875 Q 124.75 189.66668701171875 125.25 191.16668701171875 Q 125.75 192.66668701171875 126.25 194.16668701171875 Q 126.75 195.66668701171875 127.25 197.16668701171875 Q 127.75 198.66668701171875 128.75 200.16668701171875 Q 129.75 201.66668701171875 130.25 202.66668701171875 Q 130.75 203.66668701171878 131.25 204.66668701171875 Q 131.75 205.66668701171875 131.75 206.16668701171875 Q 131.75 206.66668701171878 132.25 207.66668701171875 Q 132.75 208.66668701171875 133.25 208.66668701171875 Q 133.75 208.66668701171875 134.25 209.16668701171875 Q 134.75 209.66668701171878 135.25 210.16668701171875 Q 135.75 210.66668701171875 136.25 211.16668701171875 L 136.77 211.68668701171876" stroke-linecap="round" />
</g>
</svg>