<?xml version="1.0" encoding="UTF-8" standalone="no" ?>
<!DOCTYPE svg PUBLIC "-//W3C//DTD SVG 1.1//EN" "http://www.w3.org/Graphics/SVG/1.1/DTD/svg11.dtd">
<svg xmlns="http://www.w3.org/2000/svg" xmlns:xlink="http://www.w3.org/1999/xlink" version="1.1" width="200" height="300" viewBox="0 0 200 300" xml:space="preserve">
<desc>Created with Fabric.js 4.4.0</desc>
<defs>
</defs>
<g transform="matrix(1 0 0 1 78.17 127.67)"  >
<path style="stroke: rgb(0,0,0); stroke-width: 20; stroke-dasharray: none; stroke-linecap: round; stroke-dashoffset: 0; stroke-linejoin: round; stroke-miterlimit: 10; fill: none; fill-rule: nonzero; opacity: 1;"  transform=" translate(-78.17, -127.67)" d="M 60.98 64.31332824707032 Q 61 64.33332824707031 62 69.33332824707031 Q 63 74.33332824707031 64.5 80.66665649414062 Q 66 86.99998474121094 68.5 94.49998474121094 Q 71 101.99998474121094 73.83333587646484 109.66665649414062 Q 76.66667175292969 117.33332824707031 81.66667175292969 132.66665649414062 Q 86.66667175292969 147.99998474121094 88.33333587646484 154.3333282470703 Q 90 160.6666717529297 91.5 168.5 Q 93 176.3333282470703 93.66667175292969 180 Q 94.33334350585938 183.6666717529297 94.50000762939453 185.1666717529297 Q 94.66667175292969 186.6666717529297 95.00000762939453 188.8333282470703 L 95.35334350585937 191.01998474121095" stroke-linecap="round" />
</g>
<g transform="matrix(1 0 0 1 83.6 145.56)"  >
<path style="stroke: rgb(0,0,0); stroke-width: 20; stroke-dasharray: none; stroke-linecap: round; stroke-dashoffset: 0; stroke-linejoin: round; stroke-miterlimit: 10; fill: none; fill-rule: nonzero; opacity: 1;"  transform=" translate(-83.6, -145.56)" d="M 2.3133358764648437 77.68667175292968 Q 2.3333358764648438 77.66667175292969 3.5000038146972656 76.83332824707031 Q 4.6666717529296875 75.99998474121094 6.500003814697266 74.83332824707031 Q 8.333335876464844 73.66667175292969 22.000003814697266 68.66667175292969 Q 35.66667175292969 63.66667175292969 53.16667175292969 62.16667175292969 Q 70.66667175292969 60.66667175292969 88.50000762939453 64.66667175292969 Q 106.33334350585938 68.66667175292969 116.50000762939453 73.83332824707031 Q 126.66667175292969 78.99998474121094 134.50000762939453 85.49998474121094 Q 142.33334350585938 91.99998474121094 149.1666717529297 100.16665649414062 Q 156 108.33332824707031 161 117.16665649414062 Q 166 125.99998474121094 162 157.3333282470703 Q 158 188.6666717529297 145.33333587646484 200.8333282470703 Q 132.6666717529297 212.99998474121094 111.50000762939453 221.99998474121094 Q 90.33334350585938 230.99998474121094 80.83334350585938 228.3333282470703 L 71.31334350585938 225.64667175292968" stroke-linecap="round" />
</g>
</svg>