<?xml version="1.0" encoding="UTF-8" standalone="no" ?>
<!DOCTYPE svg PUBLIC "-//W3C//DTD SVG 1.1//EN" "http://www.w3.org/Graphics/SVG/1.1/DTD/svg11.dtd">
<svg xmlns="http://www.w3.org/2000/svg" xmlns:xlink="http://www.w3.org/1999/xlink" version="1.1" width="200" height="300" viewBox="0 0 200 300" xml:space="preserve">
<desc>Created with Fabric.js 4.4.0</desc>
<defs>
</defs>
<g transform="matrix(1 0 0 1 91.17 142.38)"  >
<path style="stroke: rgb(0,0,0); stroke-width: 20; stroke-dasharray: none; stroke-linecap: round; stroke-dashoffset: 0; stroke-linejoin: round; stroke-miterlimit: 10; fill: none; fill-rule: nonzero; opacity: 1;"  transform=" translate(-91.17, -142.38)" d="M 92.68667175292968 220.35332824707032 Q 92.66667175292969 220.3333282470703 92.66667175292969 219.8333282470703 Q 92.66667175292969 219.3333282470703 91.66667175292969 216.3333282470703 Q 90.66667175292969 213.3333282470703 89.16667175292969 209.8333282470703 Q 87.66667175292969 206.3333282470703 86.16667175292969 203.8333282470703 Q 84.66667175292969 201.3333282470703 82.16667175292969 198.8333282470703 Q 79.66667175292969 196.3333282470703 76.16667175292969 194.8333282470703 Q 72.66667175292969 193.3333282470703 68.16667175292969 192.8333282470703 Q 63.66667175292969 192.3333282470703 58.66667175292969 192.3333282470703 Q 53.66667175292969 192.3333282470703 48.66667175292969 193.8333282470703 Q 43.66667175292969 195.3333282470703 36.16667175292969 198.3333282470703 Q 28.666671752929688 201.3333282470703 23.666671752929688 204.8333282470703 Q 18.666671752929688 208.3333282470703 17.166671752929688 211.3333282470703 Q 15.666671752929688 214.3333282470703 13.166671752929688 220.3333282470703 Q 10.666671752929688 226.3333282470703 10.666671752929688 233.3333282470703 Q 10.666671752929688 240.3333282470703 12.666671752929688 246.3333282470703 Q 14.666671752929688 252.3333282470703 19.166671752929688 257.3333282470703 Q 23.666671752929688 262.3333282470703 31.166671752929688 266.3333282470703 Q 38.66667175292969 270.3333282470703 47.66667175292969 271.3333282470703 Q 56.66667175292969 272.3333282470703 63.16667175292969 271.8333282470703 Q 69.66667175292969 271.3333282470703 78.16667175292969 267.8333282470703 Q 86.66667175292969 264.3333282470703 93.66667175292969 258.8333282470703 Q 100.66667175292969 253.3333282470703 106.66667175292969 240.8333282470703 Q 112.66667175292969 228.3333282470703 116.16667175292969 216.3333282470703 Q 119.66667175292969 204.3333282470703 119.66667175292969 187.3333282470703 Q 119.66667175292969 170.3333282470703 119.66667175292969 155.3333282470703 Q 119.66667175292969 140.3333282470703 119.66667175292969 125.33332824707031 Q 119.66667175292969 110.33332824707031 119.66667175292969 95.33332824707031 Q 119.66667175292969 80.33332824707031 119.66667175292969 66.33332824707031 Q 119.66667175292969 52.33332824707031 119.66667175292969 41.33332824707031 Q 119.66667175292969 30.333328247070312 120.16667175292969 22.833328247070312 Q 120.66667175292969 15.333328247070312 121.16667175292969 13.333328247070312 Q 121.66667175292969 11.333328247070312 122.16667175292969 10.833328247070312 Q 122.66667175292969 10.333328247070312 122.66667175292969 12.333328247070312 Q 122.66667175292969 14.333328247070312 122.66667175292969 23.333328247070312 Q 122.66667175292969 32.33332824707031 122.66667175292969 50.83332824707031 Q 122.66667175292969 69.33332824707031 126.66667175292969 88.33332824707031 Q 130.6666717529297 107.33332824707031 135.6666717529297 125.83332824707031 Q 140.6666717529297 144.3333282470703 144.1666717529297 159.3333282470703 Q 147.6666717529297 174.3333282470703 151.1666717529297 188.3333282470703 Q 154.6666717529297 202.3333282470703 157.6666717529297 212.8333282470703 Q 160.6666717529297 223.3333282470703 163.1666717529297 232.8333282470703 Q 165.6666717529297 242.3333282470703 166.6666717529297 246.3333282470703 Q 167.6666717529297 250.3333282470703 168.1666717529297 253.3333282470703 Q 168.6666717529297 256.3333282470703 168.6666717529297 256.8333282470703 Q 168.6666717529297 257.3333282470703 168.6666717529297 258.3333282470703 Q 168.6666717529297 259.3333282470703 169.6666717529297 261.3333282470703 Q 170.6666717529297 263.3333282470703 170.6666717529297 266.3333282470703 Q 170.6666717529297 269.3333282470703 171.1666717529297 270.8333282470703 Q 171.6666717529297 272.3333282470703 171.6666717529297 272.8333282470703 Q 171.6666717529297 273.3333282470703 171.1666717529297 273.8333282470703 Q 170.6666717529297 274.3333282470703 170.6666717529297 273.8333282470703 L 170.6666717529297 273.31332824707033" stroke-linecap="round" />
</g>
</svg>