<?xml version="1.0" encoding="UTF-8" standalone="no" ?>
<!DOCTYPE svg PUBLIC "-//W3C//DTD SVG 1.1//EN" "http://www.w3.org/Graphics/SVG/1.1/DTD/svg11.dtd">
<svg xmlns="http://www.w3.org/2000/svg" xmlns:xlink="http://www.w3.org/1999/xlink" version="1.1" width="200" height="300" viewBox="0 0 200 300" xml:space="preserve">
<desc>Created with Fabric.js 4.4.0</desc>
<defs>
</defs>
<g transform="matrix(1 0 0 1 127.32 144.5)"  >
<path style="stroke: rgb(0,0,0); stroke-width: 20; stroke-dasharray: none; stroke-linecap: round; stroke-dashoffset: 0; stroke-linejoin: round; stroke-miterlimit: 10; fill: none; fill-rule: nonzero; opacity: 1;"  transform=" translate(-127.32, -144.5)" d="M 81.64667175292969 148.3133282470703 Q 81.66667175292969 148.3333282470703 83.66667175292969 148.3333282470703 Q 85.66667175292969 148.3333282470703 92.16667175292969 149.3333282470703 Q 98.66667175292969 150.3333282470703 109.16667175292969 152.3333282470703 Q 119.66667175292969 154.3333282470703 132.6666717529297 154.3333282470703 Q 145.6666717529297 154.3333282470703 159.6666717529297 154.3333282470703 Q 173.6666717529297 154.3333282470703 184.1666717529297 150.3333282470703 Q 194.6666717529297 146.3333282470703 202.6666717529297 140.3333282470703 Q 210.6666717529297 134.3333282470703 216.1666717529297 122.33332824707031 Q 221.6666717529297 110.33332824707031 222.1666717529297 95.33332824707031 Q 222.6666717529297 80.33332824707031 219.6666717529297 68.33332824707031 Q 216.6666717529297 56.33332824707031 210.1666717529297 49.33332824707031 Q 203.6666717529297 42.33332824707031 200.6666717529297 41.33332824707031 Q 197.6666717529297 40.33332824707031 188.1666717529297 42.33332824707031 Q 178.6666717529297 44.33332824707031 163.6666717529297 50.33332824707031 Q 148.6666717529297 56.33332824707031 132.6666717529297 65.33332824707031 Q 116.66667175292969 74.33332824707031 98.66667175292969 83.33332824707031 Q 80.66667175292969 92.33332824707031 68.16667175292969 102.83332824707031 Q 55.66667175292969 113.33332824707031 46.16667175292969 126.83332824707031 Q 36.66667175292969 140.3333282470703 34.16667175292969 153.3333282470703 Q 31.666671752929688 166.3333282470703 33.66667175292969 180.8333282470703 Q 35.66667175292969 195.3333282470703 42.66667175292969 206.8333282470703 Q 49.66667175292969 218.3333282470703 62.16667175292969 229.3333282470703 Q 74.66667175292969 240.3333282470703 78.66667175292969 242.8333282470703 Q 82.66667175292969 245.3333282470703 84.16667175292969 246.3333282470703 Q 85.66667175292969 247.3333282470703 87.16667175292969 247.8333282470703 Q 88.66667175292969 248.3333282470703 90.66667175292969 248.3333282470703 Q 92.66667175292969 248.3333282470703 97.66667175292969 248.3333282470703 Q 102.66667175292969 248.3333282470703 112.16667175292969 248.3333282470703 Q 121.66667175292969 248.3333282470703 130.1666717529297 247.8333282470703 Q 138.6666717529297 247.3333282470703 146.1666717529297 245.3333282470703 Q 153.6666717529297 243.3333282470703 157.1666717529297 241.8333282470703 Q 160.6666717529297 240.3333282470703 162.6666717529297 239.3333282470703 Q 164.6666717529297 238.3333282470703 165.6666717529297 236.8333282470703 Q 166.6666717529297 235.3333282470703 167.1666717529297 233.8333282470703 Q 167.6666717529297 232.3333282470703 168.1666717529297 231.8333282470703 Q 168.6666717529297 231.3333282470703 168.6666717529297 230.8333282470703 Q 168.6666717529297 230.3333282470703 168.6666717529297 229.3333282470703 Q 168.6666717529297 228.3333282470703 168.1666717529297 227.3333282470703 L 167.64667175292968 226.3133282470703" stroke-linecap="round" />
</g>
</svg>