<?xml version="1.0" encoding="UTF-8" standalone="no" ?>
<!DOCTYPE svg PUBLIC "-//W3C//DTD SVG 1.1//EN" "http://www.w3.org/Graphics/SVG/1.1/DTD/svg11.dtd">
<svg xmlns="http://www.w3.org/2000/svg" xmlns:xlink="http://www.w3.org/1999/xlink" version="1.1" width="200" height="300" viewBox="0 0 200 300" xml:space="preserve">
<desc>Created with Fabric.js 4.4.0</desc>
<defs>
</defs>
<g transform="matrix(1 0 0 1 101.33 63.17)"  >
<path style="stroke: rgb(0,0,0); stroke-width: 20; stroke-dasharray: none; stroke-linecap: round; stroke-dashoffset: 0; stroke-linejoin: round; stroke-miterlimit: 10; fill: none; fill-rule: nonzero; opacity: 1;"  transform=" translate(-101.33, -63.17)" d="M 39.98 72.35332824707031 Q 40 72.33332824707031 47.5 68.83332824707031 Q 55 65.33332824707031 65 63.5 Q 75 61.66667175292969 88.83333587646484 60.33332824707031 Q 102.66667175292969 58.99998474121094 117.83333587646484 57.83332824707031 Q 133 56.66667175292969 147.83333587646484 55.33332824707031 L 162.6866717529297 53.979984741210934" stroke-linecap="round" />
</g>
<g transform="matrix(1 0 0 1 81.5 143.67)"  >
<path style="stroke: rgb(0,0,0); stroke-width: 20; stroke-dasharray: none; stroke-linecap: round; stroke-dashoffset: 0; stroke-linejoin: round; stroke-miterlimit: 10; fill: none; fill-rule: nonzero; opacity: 1;"  transform=" translate(-81.5, -143.67)" d="M 53.98 145.6866717529297 Q 54 145.6666717529297 55.16666793823242 145.5 Q 56.333335876464844 145.3333282470703 63.16666793823242 144.8333282470703 Q 70 144.3333282470703 80 143.66665649414062 Q 90 142.99998474121094 99.5 142.3333282470703 L 109.02 141.64667175292968" stroke-linecap="round" />
</g>
<g transform="matrix(1 0 0 1 122.5 236.33)"  >
<path style="stroke: rgb(0,0,0); stroke-width: 20; stroke-dasharray: none; stroke-linecap: round; stroke-dashoffset: 0; stroke-linejoin: round; stroke-miterlimit: 10; fill: none; fill-rule: nonzero; opacity: 1;"  transform=" translate(-122.5, -236.33)" d="M 40.98 240.01998474121095 Q 41 239.99998474121094 43.5 239.16665649414062 Q 46 238.3333282470703 54 237.16665649414062 Q 62 235.99998474121094 75.66667175292969 235.16665649414062 Q 89.33334350585938 234.3333282470703 107.00000762939453 234 Q 124.66667175292969 233.6666717529297 143.6666717529297 233.5 Q 162.6666717529297 233.3333282470703 183.33333587646484 233 L 204.02 232.64667175292968" stroke-linecap="round" />
</g>
</svg>