<?xml version="1.0" encoding="UTF-8" standalone="no" ?><!DOCTYPE svg PUBLIC "-//W3C//DTD SVG 1.1//EN" "http://www.w3.org/Graphics/SVG/1.1/DTD/svg11.dtd"><svg version="1.1" viewBox="0 0 200 300" xml:space="preserve"><desc>Created with Fabric.js 4.6.0</desc><defs/><g transform="matrix(1 0 0 1 124.5 155)"><path style="stroke:rgb(0,0,0);stroke-width:20;stroke-dasharray:none;stroke-linecap:round;stroke-dashoffset:0;stroke-linejoin:round;stroke-miterlimit:10;fill:none;fill-rule:nonzero;opacity:1" transform=" translate(-124.5, -155)" d="M 80.48 145 Q 80.5 145 81.5 145 Q 82.5 145 84 145 Q 85.5 145 90 145.5 Q 94.5 146 101.5 146 Q 108.5 146 114 147 Q 119.5 148 123.5 148 Q 127.5 148 133.5 148.5 Q 139.5 149 142 149.5 Q 144.5 150 147 150 Q 149.5 150 153 150 Q 156.5 150 161 150 Q 165.5 150 171 149.5 Q 176.5 149 179 149 Q 181.5 149 184 148.5 Q 186.5 148 188.5 147.5 Q 190.5 147 191.5 146.5 Q 192.5 146 193 146 Q 193.5 146 193.5 145.5 Q 193.5 145 193.5 144.5 Q 193.5 144 190.5 140 Q 187.5 136 180 130 Q 172.5 124 168.5 120.5 Q 164.5 117 158 113.5 Q 151.5 110 148.5 108.5 Q 145.5 107 142.5 106.5 Q 139.5 106 135 105.5 Q 130.5 105 127 105 Q 123.5 105 117.5 105.5 Q 111.5 106 108.5 106 Q 105.5 106 102.5 107 Q 99.5 108 95 110 Q 90.5 112 87.5 113 Q 84.5 114 82.5 115 Q 80.5 116 77.5 117.5 Q 74.5 119 73.5 120 Q 72.5 121 71 122 Q 69.5 123 67.5 124.5 Q 65.5 126 64.5 127.5 Q 63.5 129 62 131.5 Q 60.5 134 59 137.5 Q 57.5 141 57 144 Q 56.5 147 56 153.5 Q 55.5 160 55.5 163.5 Q 55.5 167 55.5 170.5 Q 55.5 174 56 178.5 Q 56.5 183 57.5 185 Q 58.5 187 59 188 Q 59.5 189 61.5 191.5 Q 63.5 194 65 195.5 Q 66.5 197 70 198.5 Q 73.5 200 76.5 201 Q 79.5 202 82.5 202 Q 85.5 202 89 202.5 Q 92.5 203 95 203 Q 97.5 203 99.5 203.5 Q 101.5 204 105 204.5 Q 108.5 205 112 205 Q 115.5 205 119.5 205 Q 123.5 205 125.5 204.5 Q 127.5 204 130 204 Q 132.5 204 133 203.5 Q 133.5 203 134 203 Q 134.5 203 135 203 Q 135.5 203 136 203 Q 136.5 203 137 203 Q 137.5 203 138 203 Q 138.5 203 139 203 Q 139.5 203 140.5 202.5 L 141.52 201.98" stroke-linecap="round"/></g></svg>