<?xml version="1.0" encoding="UTF-8" standalone="no" ?>
<!DOCTYPE svg PUBLIC "-//W3C//DTD SVG 1.1//EN" "http://www.w3.org/Graphics/SVG/1.1/DTD/svg11.dtd">
<svg xmlns="http://www.w3.org/2000/svg" xmlns:xlink="http://www.w3.org/1999/xlink" version="1.1" width="200" height="300" viewBox="0 0 200 300" xml:space="preserve">
<desc>Created with Fabric.js 4.4.0</desc>
<defs>
</defs>
<g transform="matrix(1 0 0 1 110.34 133.73)"  >
<path style="stroke: rgb(0,0,0); stroke-width: 20; stroke-dasharray: none; stroke-linecap: round; stroke-dashoffset: 0; stroke-linejoin: round; stroke-miterlimit: 10; fill: none; fill-rule: nonzero; opacity: 1;"  transform=" translate(-110.34, -133.73)" d="M 76.98 100.33332824707031 Q 77 100.33332824707031 77.5 99.33332824707031 Q 78 98.33332824707031 79.5 98.33332824707031 Q 81 98.33332824707031 83.5 98.33332824707031 Q 86 98.33332824707031 91 98.33332824707031 Q 96 98.33332824707031 100 96.83332824707031 Q 104 95.33332824707031 109 91.83332824707031 Q 114 88.33332824707031 119 83.33332824707031 Q 124 78.33332824707031 129 71.83332824707031 Q 134 65.33332824707031 137.5 58.33332824707031 Q 141 51.33332824707031 142.5 45.33332824707031 Q 144 39.33332824707031 143 30.833328247070312 Q 142 22.333328247070312 140.5 16.833328247070312 Q 139 11.333328247070312 137.5 9.333328247070312 Q 136 7.3333282470703125 135 6.3333282470703125 Q 134 5.3333282470703125 133 4.8333282470703125 Q 132 4.3333282470703125 131 4.3333282470703125 Q 130 4.3333282470703125 128.5 5.3333282470703125 Q 127 6.3333282470703125 125.5 7.3333282470703125 Q 124 8.333328247070312 120.5 13.333328247070312 Q 117 18.333328247070312 114.5 22.333328247070312 Q 112 26.333328247070312 109 33.83332824707031 Q 106 41.33332824707031 103.5 50.33332824707031 Q 101 59.33332824707031 100.5 73.83332824707031 Q 100 88.33332824707031 100 101.33332824707031 Q 100 114.33332824707031 101.5 127.33332824707031 Q 103 140.3333282470703 104.5 150.3333282470703 Q 106 160.3333282470703 106 169.8333282470703 Q 106 179.3333282470703 106 186.3333282470703 Q 106 193.3333282470703 106 199.3333282470703 Q 106 205.3333282470703 106 212.8333282470703 Q 106 220.3333282470703 105 226.3333282470703 Q 104 232.3333282470703 103 237.3333282470703 Q 102 242.3333282470703 102 244.3333282470703 Q 102 246.3333282470703 101 249.8333282470703 Q 100 253.3333282470703 100 255.3333282470703 Q 100 257.3333282470703 99.5 259.8333282470703 Q 99 262.3333282470703 98.5 262.8333282470703 Q 98 263.3333282470703 98 261.8333282470703 Q 98 260.3333282470703 98 259.3333282470703 Q 98 258.3333282470703 98 257.3333282470703 Q 98 256.3333282470703 98 254.3333282470703 Q 98 252.3333282470703 98 247.8333282470703 L 98 243.3133282470703" stroke-linecap="round" />
</g>
<g transform="matrix(1 0 0 1 104.5 159.82)"  >
<path style="stroke: rgb(0,0,0); stroke-width: 20; stroke-dasharray: none; stroke-linecap: round; stroke-dashoffset: 0; stroke-linejoin: round; stroke-miterlimit: 10; fill: none; fill-rule: nonzero; opacity: 1;"  transform=" translate(-104.5, -159.82)" d="M 61.98 160.3133282470703 Q 62 160.3333282470703 64 161.3333282470703 Q 66 162.3333282470703 72 163.8333282470703 Q 78 165.3333282470703 85 165.3333282470703 Q 92 165.3333282470703 102.5 165.3333282470703 Q 113 165.3333282470703 120.5 163.8333282470703 Q 128 162.3333282470703 135.5 159.3333282470703 Q 143 156.3333282470703 145 155.3333282470703 L 147.02 154.3133282470703" stroke-linecap="round" />
</g>
</svg>