<?xml version="1.0" encoding="UTF-8" standalone="no" ?>
<!DOCTYPE svg PUBLIC "-//W3C//DTD SVG 1.1//EN" "http://www.w3.org/Graphics/SVG/1.1/DTD/svg11.dtd">
<svg xmlns="http://www.w3.org/2000/svg" xmlns:xlink="http://www.w3.org/1999/xlink" version="1.1" width="200" height="300" viewBox="0 0 200 300" xml:space="preserve">
<desc>Created with Fabric.js 4.4.0</desc>
<defs>
</defs>
<g transform="matrix(1 0 0 1 69.33 132.5)"  >
<path style="stroke: rgb(0,0,0); stroke-width: 20; stroke-dasharray: none; stroke-linecap: round; stroke-dashoffset: 0; stroke-linejoin: round; stroke-miterlimit: 10; fill: none; fill-rule: nonzero; opacity: 1;"  transform=" translate(-69.33, -132.5)" d="M 76.68667175292968 19.979984741210938 Q 76.66667175292969 19.999984741210938 76.66667175292969 31.833328247070312 Q 76.66667175292969 43.66667175292969 76.16667175292969 62.5 Q 75.66667175292969 81.33332824707031 75.00000762939453 101.33332824707031 Q 74.33334350585938 121.33332824707031 72.66667175292969 138.8333282470703 Q 71 156.3333282470703 69 172.3333282470703 Q 67 188.3333282470703 65.5 202.8333282470703 Q 64 217.3333282470703 63 231.16665649414062 L 61.98 245.01998474121095" stroke-linecap="round" />
</g>
<g transform="matrix(1 0 0 1 99.67 72.91)"  >
<path style="stroke: rgb(0,0,0); stroke-width: 20; stroke-dasharray: none; stroke-linecap: round; stroke-dashoffset: 0; stroke-linejoin: round; stroke-miterlimit: 10; fill: none; fill-rule: nonzero; opacity: 1;"  transform=" translate(-99.67, -72.91)" d="M -6.686664123535156 81.68667175292968 Q -6.666664123535156 81.66667175292969 1.6666679382324219 80.66667175292969 Q 10 79.66667175292969 15.666667938232422 79.5 Q 21.333335876464844 79.33332824707031 27.666667938232422 79.16665649414062 Q 34 78.99998474121094 40.833335876464844 78.99998474121094 Q 47.66667175292969 78.99998474121094 63.50000762939453 78.83332824707031 Q 79.33334350585938 78.66667175292969 86.66667175292969 78 Q 94 77.33332824707031 108.66667175292969 75.5 Q 123.33334350585938 73.66667175292969 136.6666717529297 71.5 Q 150 69.33332824707031 161.5 67.5 Q 173 65.66667175292969 182.5 64.83332824707031 Q 192 63.99998474121094 199 64.33332824707031 L 206.02 64.68667175292968" stroke-linecap="round" />
</g>
<g transform="matrix(1 0 0 1 121.57 146.12)"  >
<path style="stroke: rgb(0,0,0); stroke-width: 20; stroke-dasharray: none; stroke-linecap: round; stroke-dashoffset: 0; stroke-linejoin: round; stroke-miterlimit: 10; fill: none; fill-rule: nonzero; opacity: 1;"  transform=" translate(-121.57, -146.12)" d="M 37.02 156.3133282470703 Q 37 156.3333282470703 36.16666793823242 156.3333282470703 Q 35.333335876464844 156.3333282470703 34.000003814697266 156.66665649414062 Q 32.66667175292969 156.99998474121094 31.666671752929688 157.3333282470703 Q 30.666671752929688 157.6666717529297 30.166671752929688 158.1666717529297 Q 29.666671752929688 158.6666717529297 30.166671752929688 159.3333282470703 Q 30.666671752929688 159.99998474121094 34.833335876464844 160.99998474121094 Q 39 161.99998474121094 48.5 161.8333282470703 Q 58 161.6666717529297 70.5 159.8333282470703 Q 83 157.99998474121094 96.5 154.99998474121094 Q 110 151.99998474121094 123.66667175292969 148.49998474121094 Q 137.33334350585938 144.99998474121094 150.33334350585938 141.49998474121094 Q 163.33334350585938 137.99998474121094 174.50001525878906 135.49998474121094 Q 185.66668701171875 132.99998474121094 194.33334350585938 131.66665649414062 Q 203 130.3333282470703 208.1666717529297 130.3333282470703 L 213.35334350585939 130.3333282470703" stroke-linecap="round" />
</g>
</svg>