<?xml version="1.0" encoding="UTF-8" standalone="no" ?>
<!DOCTYPE svg PUBLIC "-//W3C//DTD SVG 1.1//EN" "http://www.w3.org/Graphics/SVG/1.1/DTD/svg11.dtd">
<svg xmlns="http://www.w3.org/2000/svg" xmlns:xlink="http://www.w3.org/1999/xlink" version="1.1" width="200" height="300" viewBox="0 0 200 300" xml:space="preserve">
<desc>Created with Fabric.js 4.6.0</desc>
<defs>
</defs>
<g transform="matrix(1 0 0 1 117.75 152.18)"  >
<path style="stroke: rgb(0,0,0); stroke-width: 20; stroke-dasharray: none; stroke-linecap: round; stroke-dashoffset: 0; stroke-linejoin: round; stroke-miterlimit: 10; fill: none; fill-rule: nonzero; opacity: 1;"  transform=" translate(-117.75, -152.18)" d="M 133.75 69.68668701171875 Q 133.75 69.66668701171875 133.75 69.16668701171875 Q 133.75 68.66668701171875 133.75 68.16668701171875 Q 133.75 67.66668701171875 133.25 67.16668701171875 Q 132.75 66.66668701171875 132.25 66.16668701171875 Q 131.75 65.66668701171875 131.25 65.16668701171875 Q 130.75 64.66668701171875 130.75 64.16668701171875 Q 130.75 63.66668701171875 130.75 63.16668701171875 Q 130.75 62.66668701171875 130.25 62.16668701171875 Q 129.75 61.66668701171875 129.75 61.16668701171875 Q 129.75 60.66668701171875 129.25 60.66668701171875 Q 128.75 60.66668701171875 128.25 60.16668701171875 Q 127.75 59.66668701171875 127.75 59.16668701171875 Q 127.75 58.66668701171875 127.25 58.16668701171875 Q 126.75 57.66668701171875 126.75 57.16668701171875 Q 126.75 56.66668701171876 126.75 56.16668701171875 Q 126.75 55.66668701171875 126.25 55.66668701171875 Q 125.75 55.66668701171875 125.25 55.16668701171875 Q 124.75 54.66668701171875 124.25 54.66668701171875 Q 123.75 54.66668701171875 123.25 54.66668701171875 Q 122.75 54.66668701171875 122.25 54.66668701171875 Q 121.75 54.66668701171875 121.25 54.66668701171875 Q 120.75 54.66668701171875 120.25 54.66668701171875 Q 119.75 54.66668701171875 119.25 54.16668701171875 Q 118.75 53.66668701171876 118.25 53.66668701171876 Q 117.75 53.66668701171876 117.25 53.66668701171876 Q 116.75 53.66668701171876 116.25 54.66668701171875 Q 115.75 55.66668701171875 115.25 55.66668701171875 Q 114.75 55.66668701171875 114.25 56.66668701171875 Q 113.75 57.66668701171875 113.75 58.16668701171875 Q 113.75 58.66668701171875 113.25 59.66668701171875 Q 112.75000000000001 60.66668701171875 112.25 60.66668701171875 Q 111.75 60.66668701171875 111.75 61.16668701171875 Q 111.75 61.66668701171875 111.25 62.16668701171875 Q 110.75 62.66668701171875 110.25 63.16668701171875 Q 109.75000000000001 63.66668701171875 109.25 64.16668701171875 Q 108.75 64.66668701171875 108.25 65.16668701171875 Q 107.75 65.66668701171875 107.25 66.16668701171875 Q 106.75000000000001 66.66668701171875 106.75000000000001 67.16668701171875 Q 106.75000000000001 67.66668701171875 106.75000000000001 68.16668701171875 Q 106.75000000000001 68.66668701171875 106.25 69.16668701171875 Q 105.75 69.66668701171875 105.75 70.16668701171875 Q 105.75 70.66668701171875 105.25 71.16668701171875 Q 104.75 71.66668701171875 104.25 72.16668701171875 Q 103.75000000000001 72.66668701171875 103.75000000000001 73.16668701171875 Q 103.75000000000001 73.66668701171875 103.25 74.66668701171875 Q 102.75 75.66668701171875 102.75 76.16668701171875 Q 102.75 76.66668701171875 102.25 77.66668701171875 Q 101.75 78.66668701171875 101.75 79.66668701171875 Q 101.75 80.66668701171875 101.75 81.66668701171875 Q 101.75 82.66668701171876 101.75 83.66668701171875 Q 101.75 84.66668701171875 101.75 85.66668701171875 Q 101.75 86.66668701171875 101.75 88.66668701171875 Q 101.75 90.66668701171875 101.75 91.66668701171875 Q 101.75 92.66668701171875 102.25 96.66668701171875 Q 102.75 100.66668701171876 103.25 102.66668701171875 Q 103.75000000000001 104.66668701171875 104.75 107.16668701171875 Q 105.75 109.66668701171876 106.25 110.66668701171875 Q 106.75000000000001 111.66668701171875 106.75000000000001 112.16668701171875 Q 106.75000000000001 112.66668701171876 106.75000000000001 113.16668701171875 Q 106.75000000000001 113.66668701171875 106.75000000000001 114.66668701171875 Q 106.75000000000001 115.66668701171875 106.75000000000001 116.16668701171875 Q 106.75000000000001 116.66668701171875 106.75000000000001 117.16668701171875 Q 106.75000000000001 117.66668701171875 106.75000000000001 118.66668701171875 Q 106.75000000000001 119.66668701171875 106.75000000000001 120.16668701171875 Q 106.75000000000001 120.66668701171875 106.75000000000001 121.16668701171875 Q 106.75000000000001 121.66668701171875 106.75000000000001 123.66668701171875 Q 106.75000000000001 125.66668701171875 106.75000000000001 126.16668701171875 Q 106.75000000000001 126.66668701171875 106.75000000000001 128.16668701171875 Q 106.75000000000001 129.66668701171875 106.75000000000001 131.16668701171875 Q 106.75000000000001 132.66668701171875 106.75000000000001 134.16668701171875 Q 106.75000000000001 135.66668701171875 106.75000000000001 136.16668701171875 Q 106.75000000000001 136.66668701171875 106.75000000000001 138.66668701171875 Q 106.75000000000001 140.66668701171875 106.75000000000001 141.16668701171875 Q 106.75000000000001 141.66668701171875 106.75000000000001 143.16668701171875 Q 106.75000000000001 144.66668701171875 106.75000000000001 146.16668701171875 Q 106.75000000000001 147.66668701171875 106.75000000000001 148.66668701171875 Q 106.75000000000001 149.66668701171875 106.75000000000001 151.16668701171875 Q 106.75000000000001 152.66668701171875 106.75000000000001 154.16668701171875 Q 106.75000000000001 155.66668701171878 106.75000000000001 156.16668701171875 Q 106.75000000000001 156.66668701171875 106.75000000000001 158.66668701171875 Q 106.75000000000001 160.66668701171875 106.75000000000001 161.66668701171875 Q 106.75000000000001 162.66668701171875 106.75000000000001 163.66668701171875 Q 106.75000000000001 164.66668701171878 106.75000000000001 166.66668701171875 Q 106.75000000000001 168.66668701171875 107.25 169.66668701171875 Q 107.75 170.66668701171878 107.75 172.16668701171878 Q 107.75 173.66668701171878 107.75 175.16668701171878 Q 107.75 176.66668701171878 107.75 177.16668701171875 Q 107.75 177.66668701171875 107.75 179.16668701171875 Q 107.75 180.66668701171875 107.75 182.16668701171875 Q 107.75 183.66668701171875 107.75 184.66668701171875 Q 107.75 185.66668701171878 108.25 186.66668701171875 Q 108.75 187.66668701171875 108.75 188.66668701171875 Q 108.75 189.66668701171875 109.25 190.66668701171875 Q 109.75000000000001 191.66668701171878 109.75000000000001 193.16668701171878 Q 109.75000000000001 194.66668701171878 110.25 196.16668701171878 Q 110.75 197.66668701171878 110.75 199.16668701171878 Q 110.75 200.66668701171878 111.25 202.66668701171875 Q 111.75 204.66668701171875 111.75 206.16668701171875 Q 111.75 207.66668701171875 111.75 209.16668701171875 Q 111.75 210.66668701171875 112.25 211.66668701171875 Q 112.75000000000001 212.66668701171878 112.75000000000001 214.16668701171878 Q 112.75000000000001 215.66668701171878 112.75000000000001 216.16668701171875 Q 112.75000000000001 216.66668701171875 112.75000000000001 217.16668701171875 Q 112.75000000000001 217.66668701171875 112.75000000000001 219.16668701171875 Q 112.75000000000001 220.66668701171875 112.75000000000001 222.16668701171875 Q 112.75000000000001 223.66668701171875 112.75000000000001 224.16668701171875 Q 112.75000000000001 224.66668701171878 112.75000000000001 225.16668701171875 Q 112.75000000000001 225.66668701171875 112.75000000000001 226.16668701171875 Q 112.75000000000001 226.66668701171875 112.75000000000001 227.16668701171875 Q 112.75000000000001 227.66668701171878 112.75000000000001 229.16668701171875 Q 112.75000000000001 230.66668701171875 112.75000000000001 231.66668701171875 Q 112.75000000000001 232.66668701171875 112.75000000000001 234.16668701171875 Q 112.75000000000001 235.66668701171875 112.25 236.66668701171875 Q 111.75 237.66668701171875 111.75 238.16668701171875 Q 111.75 238.66668701171875 111.75 239.66668701171875 Q 111.75 240.66668701171875 111.75 241.16668701171875 Q 111.75 241.66668701171875 111.75 242.16668701171875 Q 111.75 242.66668701171875 111.75 243.16668701171875 Q 111.75 243.66668701171875 111.75 244.66668701171875 Q 111.75 245.66668701171875 111.25 245.66668701171875 Q 110.75 245.66668701171875 110.75 246.16668701171875 Q 110.75 246.66668701171875 110.75 247.66668701171875 Q 110.75 248.66668701171875 110.75 249.66668701171875 L 110.75 250.68668701171876" stroke-linecap="round" />
</g>
<g transform="matrix(1 0 0 1 104.75 128.17)"  >
<path style="stroke: rgb(0,0,0); stroke-width: 20; stroke-dasharray: none; stroke-linecap: round; stroke-dashoffset: 0; stroke-linejoin: round; stroke-miterlimit: 10; fill: none; fill-rule: nonzero; opacity: 1;"  transform=" translate(-104.75, -128.17)" d="M 81.73 125.66668701171875 Q 81.75 125.66668701171875 82.25 125.66668701171875 Q 82.75000000000001 125.66668701171875 83.25 125.66668701171875 Q 83.75 125.66668701171875 84.25 125.66668701171875 Q 84.75 125.66668701171875 85.75 125.66668701171875 Q 86.75 125.66668701171875 89.25 126.16668701171875 Q 91.75000000000001 126.66668701171875 93.25000000000001 127.16668701171875 Q 94.75000000000001 127.66668701171875 96.25000000000001 127.66668701171875 Q 97.75000000000001 127.66668701171875 98.75 127.66668701171875 Q 99.75 127.66668701171875 100.75 127.66668701171875 Q 101.75 127.66668701171875 102.75 127.66668701171875 Q 103.75000000000001 127.66668701171875 104.75 128.16668701171875 Q 105.75 128.66668701171875 106.25 128.66668701171875 Q 106.75000000000001 128.66668701171875 108.75 128.66668701171875 Q 110.75 128.66668701171875 111.25 128.66668701171875 Q 111.75 128.66668701171875 112.75 129.16668701171875 Q 113.75 129.66668701171875 114.75 129.66668701171875 Q 115.75 129.66668701171875 116.25 129.66668701171875 Q 116.75 129.66668701171875 117.25 129.66668701171875 Q 117.75 129.66668701171875 118.25 129.66668701171875 Q 118.75 129.66668701171875 119.25 129.66668701171875 Q 119.75 129.66668701171875 120.25 129.66668701171875 Q 120.75 129.66668701171875 121.25 130.16668701171875 Q 121.75 130.66668701171875 122.25 130.66668701171875 Q 122.75 130.66668701171875 123.75 130.66668701171875 Q 124.75 130.66668701171875 125.25 130.66668701171875 Q 125.75 130.66668701171875 126.75 130.66668701171875 L 127.77 130.66668701171875" stroke-linecap="round" />
</g>
</svg>