<?xml version="1.0" encoding="UTF-8" standalone="no" ?>
<!DOCTYPE svg PUBLIC "-//W3C//DTD SVG 1.1//EN" "http://www.w3.org/Graphics/SVG/1.1/DTD/svg11.dtd">
<svg xmlns="http://www.w3.org/2000/svg" xmlns:xlink="http://www.w3.org/1999/xlink" version="1.1" width="200" height="300" viewBox="0 0 200 300" xml:space="preserve">
<desc>Created with Fabric.js 4.4.0</desc>
<defs>
</defs>
<g transform="matrix(1 0 0 1 93.66 129.35)"  >
<path style="stroke: rgb(0,0,0); stroke-width: 20; stroke-dasharray: none; stroke-linecap: round; stroke-dashoffset: 0; stroke-linejoin: round; stroke-miterlimit: 10; fill: none; fill-rule: nonzero; opacity: 1;"  transform=" translate(-93.66, -129.35)" d="M 152.02 56.353328247070316 Q 152 56.33332824707031 151.33333587646484 55.5 Q 150.6666717529297 54.66667175292969 148.1666717529297 52.5 Q 145.6666717529297 50.33332824707031 142.00000762939453 48 Q 138.33334350585938 45.66667175292969 132.1666717529297 43.83332824707031 Q 126 41.99998474121094 117.5 41.83332824707031 Q 109 41.66667175292969 100.5 43.66667175292969 Q 92 45.66667175292969 84.16667175292969 50 Q 76.33334350585938 54.33332824707031 68.83334350585938 61.166656494140625 Q 61.333343505859375 67.99998474121094 54.50000762939453 79.5 Q 47.66667175292969 91.00001525878906 43.16667175292969 104 Q 38.66667175292969 116.99998474121094 36.833335876464844 129.16665649414062 Q 35 141.3333282470703 35.833335876464844 151.8333282470703 Q 36.66667175292969 162.3333282470703 39.000003814697266 171.8333282470703 Q 41.333335876464844 181.3333282470703 45.500003814697266 188.66665649414062 Q 49.66667175292969 195.99998474121094 54.50000762939453 201.3333282470703 Q 59.333343505859375 206.6666717529297 66.50000762939453 210.6666717529297 Q 73.66667175292969 214.6666717529297 82.33333587646484 216 Q 91 217.3333282470703 98 215.3333282470703 Q 105 213.3333282470703 110.5 209.5 Q 116 205.6666717529297 120 199.8333282470703 Q 124 193.99998474121094 126.83333587646484 187.16665649414062 Q 129.6666717529297 180.3333282470703 130.6666717529297 175 Q 131.6666717529297 169.6666717529297 131.83333587646484 165.5 Q 132 161.3333282470703 131.5 158.3333282470703 Q 131 155.3333282470703 130.1666717529297 153.5 Q 129.33334350585938 151.6666717529297 128.1666717529297 150.6666717529297 Q 127 149.6666717529297 125.33333587646484 149 Q 123.66667175292969 148.3333282470703 122.33333587646484 148.16665649414062 Q 121 147.99998474121094 120 147.99998474121094 Q 119 147.99998474121094 118.16667175292969 147.99998474121094 Q 117.33334350585938 147.99998474121094 116.66667175292969 147.99998474121094 Q 116 147.99998474121094 115.66667175292969 147.99998474121094 Q 115.33334350585938 147.99998474121094 115.00000762939453 147.99998474121094 Q 114.66667175292969 147.99998474121094 114.33333587646484 147.99998474121094 Q 114 147.99998474121094 113.66667175292969 147.99998474121094 Q 113.33334350585938 147.99998474121094 113.00000762939453 147.8333282470703 Q 112.66667175292969 147.6666717529297 112.16667175292969 147.6666717529297 Q 111.66667175292969 147.6666717529297 111.00000762939453 147.6666717529297 Q 110.33334350585938 147.6666717529297 110.00000762939453 147.6666717529297 Q 109.66667175292969 147.6666717529297 109.33333587646484 147.6666717529297 Q 109 147.6666717529297 109.33333587646484 147.6666717529297 Q 109.66667175292969 147.6666717529297 110.83333587646484 147.8333282470703 Q 112 147.99998474121094 115.83333587646484 148.16665649414062 Q 119.66667175292969 148.3333282470703 125.50000762939453 148.3333282470703 Q 131.33334350585938 148.3333282470703 137.6666717529297 148.3333282470703 L 144.02 148.3333282470703" stroke-linecap="round" />
</g>
</svg>