<?xml version="1.0" encoding="UTF-8" standalone="no" ?>
<!DOCTYPE svg PUBLIC "-//W3C//DTD SVG 1.1//EN" "http://www.w3.org/Graphics/SVG/1.1/DTD/svg11.dtd">
<svg xmlns="http://www.w3.org/2000/svg" xmlns:xlink="http://www.w3.org/1999/xlink" version="1.1" width="200" height="300" viewBox="0 0 200 300" xml:space="preserve">
<desc>Created with Fabric.js 4.6.0</desc>
<defs>
</defs>
<g transform="matrix(1 0 0 1 88.25 180.17)"  >
<path style="stroke: rgb(0,0,0); stroke-width: 20; stroke-dasharray: none; stroke-linecap: round; stroke-dashoffset: 0; stroke-linejoin: round; stroke-miterlimit: 10; fill: none; fill-rule: nonzero; opacity: 1;"  transform=" translate(-88.25, -180.17)" d="M 106.77000000000001 116.66668701171875 Q 106.75000000000001 116.66668701171875 106.25 116.66668701171875 Q 105.75 116.66668701171875 105.25 116.66668701171875 Q 104.75 116.66668701171875 103.25 116.66668701171875 Q 101.75 116.66668701171875 101.25 116.66668701171875 Q 100.75000000000001 116.66668701171875 99.75 116.66668701171875 Q 98.75 116.66668701171875 97.75 116.16668701171875 Q 96.75 115.66668701171875 96.25 115.66668701171875 Q 95.75 115.66668701171875 94.75 116.16668701171875 Q 93.75 116.66668701171875 92.75 116.66668701171875 Q 91.75000000000001 116.66668701171875 91.25 117.16668701171875 Q 90.75 117.66668701171875 89.75 118.16668701171875 Q 88.75000000000001 118.66668701171875 88.25 118.66668701171875 Q 87.75 118.66668701171875 86.75 119.16668701171875 Q 85.75000000000001 119.66668701171875 85.25 120.16668701171875 Q 84.75 120.66668701171875 83.75 120.66668701171875 Q 82.75000000000001 120.66668701171875 82.25 120.66668701171875 Q 81.75 120.66668701171875 80.75 120.66668701171875 Q 79.75000000000001 120.66668701171875 79.25 120.66668701171875 Q 78.75 120.66668701171875 77.75 121.16668701171875 Q 76.75 121.66668701171875 76.25 122.16668701171875 Q 75.75 122.66668701171875 75.25 123.16668701171875 Q 74.75 123.66668701171875 73.75 124.16668701171875 Q 72.75 124.66668701171875 72.25 125.16668701171875 Q 71.75 125.66668701171875 71.25 126.16668701171875 Q 70.75 126.66668701171875 70.25 127.16668701171875 Q 69.75 127.66668701171875 69.25 128.16668701171875 Q 68.75 128.66668701171875 68.75 129.16668701171875 Q 68.75 129.66668701171875 68.25 130.66668701171875 Q 67.75 131.66668701171875 67.25 132.66668701171875 Q 66.75 133.66668701171875 66.75 134.66668701171875 Q 66.75 135.66668701171875 66.25 136.16668701171875 Q 65.75 136.66668701171875 65.75 137.16668701171875 Q 65.75 137.66668701171875 65.25 138.66668701171875 Q 64.75 139.66668701171875 64.75 140.16668701171875 Q 64.75 140.66668701171875 64.75 141.16668701171875 Q 64.75 141.66668701171875 64.75 143.16668701171875 Q 64.75 144.66668701171875 64.75 145.16668701171875 Q 64.75 145.66668701171875 64.75 146.16668701171875 Q 64.75 146.66668701171875 64.75 147.66668701171875 Q 64.75 148.66668701171875 64.75 149.66668701171875 Q 64.75 150.66668701171875 64.75 152.16668701171875 Q 64.75 153.66668701171875 64.75 154.16668701171875 Q 64.75 154.66668701171875 65.25 155.16668701171875 Q 65.75 155.66668701171878 65.75 156.16668701171875 Q 65.75 156.66668701171875 65.75 157.16668701171875 Q 65.75 157.66668701171875 66.25 158.66668701171875 Q 66.75 159.66668701171875 67.25 160.16668701171875 Q 67.75 160.66668701171875 68.25 161.16668701171875 Q 68.75 161.66668701171878 70.25 163.66668701171875 Q 71.75 165.66668701171875 72.75 166.16668701171875 Q 73.75 166.66668701171875 75.25 167.66668701171875 Q 76.75 168.66668701171875 78.25 169.66668701171875 Q 79.75000000000001 170.66668701171878 80.75 170.66668701171878 Q 81.75 170.66668701171878 83.75 171.16668701171875 Q 85.75000000000001 171.66668701171875 86.75 172.16668701171875 Q 87.75 172.66668701171875 88.75 172.66668701171875 Q 89.75 172.66668701171875 90.75 172.66668701171875 Q 91.75000000000001 172.66668701171875 92.25 172.66668701171875 Q 92.75 172.66668701171875 93.75 172.66668701171875 Q 94.75000000000001 172.66668701171875 95.75 172.66668701171875 Q 96.75 172.66668701171875 97.25 172.66668701171875 Q 97.75000000000001 172.66668701171875 99.25000000000001 172.16668701171875 Q 100.75000000000001 171.66668701171875 101.25 171.16668701171875 Q 101.75 170.66668701171878 102.75 170.66668701171878 Q 103.75000000000001 170.66668701171878 104.75 170.66668701171878 Q 105.75 170.66668701171878 106.25 170.16668701171875 Q 106.75000000000001 169.66668701171875 106.75000000000001 169.16668701171875 Q 106.75000000000001 168.66668701171875 107.25 168.16668701171875 Q 107.75 167.66668701171878 108.25 167.16668701171875 Q 108.75 166.66668701171875 109.75 166.16668701171875 Q 110.75 165.66668701171875 112.25 163.16668701171875 Q 113.75 160.66668701171875 114.75 159.16668701171875 Q 115.75 157.66668701171875 116.25 156.66668701171875 Q 116.75 155.66668701171878 116.75 155.16668701171875 Q 116.75 154.66668701171875 116.75 153.16668701171875 Q 116.75 151.66668701171875 117.25 149.66668701171875 Q 117.75 147.66668701171875 117.75 146.66668701171875 Q 117.75 145.66668701171875 118.25 143.16668701171875 Q 118.75 140.66668701171875 118.75 140.16668701171875 Q 118.75 139.66668701171875 118.75 139.16668701171875 Q 118.75 138.66668701171875 118.75 137.16668701171875 Q 118.75 135.66668701171875 118.75 135.16668701171875 Q 118.75 134.66668701171875 118.75 133.66668701171875 Q 118.75 132.66668701171875 118.75 131.66668701171875 Q 118.75 130.66668701171875 118.75 130.16668701171875 Q 118.75 129.66668701171875 118.75 129.16668701171875 Q 118.75 128.66668701171875 118.75 127.66668701171875 Q 118.75 126.66668701171875 118.75 126.16668701171875 Q 118.75 125.66668701171875 118.75 125.16668701171875 Q 118.75 124.66668701171875 118.75 123.66668701171875 Q 118.75 122.66668701171875 118.75 122.16668701171875 Q 118.75 121.66668701171875 118.75 121.16668701171875 Q 118.75 120.66668701171875 118.75 121.16668701171875 Q 118.75 121.66668701171875 118.75 122.16668701171875 Q 118.75 122.66668701171875 118.75 125.16668701171875 Q 118.75 127.66668701171875 118.75 129.66668701171875 Q 118.75 131.66668701171875 118.25 133.16668701171875 Q 117.75 134.66668701171875 117.75 135.66668701171875 Q 117.75 136.66668701171875 117.75 138.16668701171875 Q 117.75 139.66668701171875 117.75 140.16668701171875 Q 117.75 140.66668701171875 117.75 142.66668701171875 Q 117.75 144.66668701171875 117.75 145.16668701171875 Q 117.75 145.66668701171875 118.25 146.66668701171875 Q 118.75 147.66668701171875 118.75 148.66668701171875 Q 118.75 149.66668701171875 118.75 150.16668701171875 Q 118.75 150.66668701171875 119.25 152.66668701171875 Q 119.75 154.66668701171875 119.75 156.66668701171875 Q 119.75 158.66668701171878 119.75 160.16668701171878 Q 119.75 161.66668701171878 119.75 163.16668701171878 Q 119.75 164.66668701171878 119.75 166.66668701171875 Q 119.75 168.66668701171875 119.75 170.16668701171875 Q 119.75 171.66668701171875 119.75 173.66668701171875 Q 119.75 175.66668701171875 119.75 176.66668701171875 Q 119.75 177.66668701171875 119.75 179.16668701171875 Q 119.75 180.66668701171875 119.75 182.66668701171875 Q 119.75 184.66668701171875 119.75 185.66668701171875 Q 119.75 186.66668701171875 119.75 188.16668701171875 Q 119.75 189.66668701171875 119.75 190.66668701171875 Q 119.75 191.66668701171878 119.75 192.16668701171875 Q 119.75 192.66668701171875 119.75 193.66668701171875 Q 119.75 194.66668701171878 119.75 195.16668701171875 Q 119.75 195.66668701171875 119.75 196.66668701171875 Q 119.75 197.66668701171878 119.75 199.66668701171875 Q 119.75 201.66668701171875 119.75 203.66668701171875 Q 119.75 205.66668701171875 119.75 206.66668701171875 Q 119.75 207.66668701171875 119.75 208.66668701171875 Q 119.75 209.66668701171878 119.75 210.16668701171875 Q 119.75 210.66668701171875 119.75 211.66668701171875 Q 119.75 212.66668701171878 119.75 213.16668701171875 Q 119.75 213.66668701171875 119.75 214.66668701171875 Q 119.75 215.66668701171878 119.75 217.16668701171878 Q 119.75 218.66668701171878 119.25 219.66668701171875 Q 118.75 220.66668701171875 118.75 221.66668701171875 Q 118.75 222.66668701171875 118.75 223.66668701171875 Q 118.75 224.66668701171878 118.75 225.16668701171875 Q 118.75 225.66668701171875 118.75 226.16668701171875 Q 118.75 226.66668701171875 118.75 227.16668701171875 Q 118.75 227.66668701171878 118.25 227.66668701171878 Q 117.75 227.66668701171878 117.75 228.16668701171875 Q 117.75 228.66668701171875 117.75 229.16668701171875 Q 117.75 229.66668701171875 117.25 230.16668701171875 Q 116.75 230.66668701171875 116.75 231.16668701171875 Q 116.75 231.66668701171875 116.75 232.16668701171875 Q 116.75 232.66668701171875 116.25 233.16668701171875 Q 115.75 233.66668701171875 115.75 234.16668701171875 Q 115.75 234.66668701171875 115.25 235.16668701171875 Q 114.75 235.66668701171875 114.25 235.66668701171875 Q 113.75 235.66668701171875 113.75 236.16668701171875 Q 113.75 236.66668701171875 113.25 237.16668701171875 Q 112.75000000000001 237.66668701171875 112.25 237.66668701171875 Q 111.75 237.66668701171875 111.75 238.16668701171875 Q 111.75 238.66668701171875 111.75 239.16668701171875 Q 111.75 239.66668701171875 111.25 240.16668701171875 Q 110.75 240.66668701171875 109.75 240.66668701171875 Q 108.75 240.66668701171875 107.75 241.16668701171875 Q 106.75000000000001 241.66668701171875 106.25 241.66668701171875 Q 105.75 241.66668701171875 105.25 241.66668701171875 Q 104.75 241.66668701171875 104.25 241.66668701171875 Q 103.75000000000001 241.66668701171875 101.75 242.16668701171875 Q 99.75 242.66668701171875 98.25 243.66668701171875 Q 96.75 244.66668701171875 95.75 244.66668701171875 Q 94.75000000000001 244.66668701171875 93.75 244.66668701171875 Q 92.75 244.66668701171875 92.25 244.66668701171875 Q 91.75000000000001 244.66668701171875 91.25 244.66668701171875 Q 90.75 244.66668701171875 88.75 244.66668701171875 Q 86.75 244.66668701171875 85.25 244.66668701171875 Q 83.75 244.66668701171875 82.25 244.16668701171875 Q 80.75 243.66668701171875 78.75 243.16668701171875 Q 76.75 242.66668701171875 75.75 242.16668701171875 Q 74.75 241.66668701171875 73.25 241.66668701171875 Q 71.75 241.66668701171875 71.25 241.16668701171875 Q 70.75 240.66668701171875 69.75 240.66668701171875 Q 68.75 240.66668701171875 67.75 240.66668701171875 Q 66.75 240.66668701171875 66.25 240.66668701171875 Q 65.75 240.66668701171875 65.25 240.16668701171875 Q 64.75 239.66668701171875 63.75 239.16668701171875 Q 62.75 238.66668701171875 62.25 238.66668701171875 Q 61.75 238.66668701171875 61.75 238.16668701171875 Q 61.75 237.66668701171875 61.25 237.66668701171875 Q 60.75 237.66668701171875 59.75 237.16668701171875 Q 58.75 236.66668701171875 58.25 236.16668701171875 Q 57.75 235.66668701171875 57.25 235.66668701171875 Q 56.75000000000001 235.66668701171875 56.75000000000001 234.66668701171875 Q 56.75000000000001 233.66668701171875 56.75000000000001 233.16668701171875 Q 56.75000000000001 232.66668701171875 56.75000000000001 231.66668701171875 Q 56.75000000000001 230.66668701171875 56.75000000000001 229.66668701171875 Q 56.75000000000001 228.66668701171875 56.75000000000001 227.66668701171875 Q 56.75000000000001 226.66668701171875 56.75000000000001 226.16668701171875 Q 56.75000000000001 225.66668701171875 56.75000000000001 225.16668701171875 Q 56.75000000000001 224.66668701171878 56.75000000000001 224.16668701171875 Q 56.75000000000001 223.66668701171875 56.75000000000001 222.16668701171875 Q 56.75000000000001 220.66668701171875 56.75000000000001 220.16668701171875 Q 56.75000000000001 219.66668701171875 56.75000000000001 218.66668701171875 Q 56.75000000000001 217.66668701171875 56.75000000000001 217.16668701171875 Q 56.75000000000001 216.66668701171875 56.75000000000001 215.66668701171875 L 56.75000000000001 214.64668701171874" stroke-linecap="round" />
</g>
</svg>