<?xml version="1.0" encoding="UTF-8" standalone="no" ?>
<!DOCTYPE svg PUBLIC "-//W3C//DTD SVG 1.1//EN" "http://www.w3.org/Graphics/SVG/1.1/DTD/svg11.dtd">
<svg xmlns="http://www.w3.org/2000/svg" xmlns:xlink="http://www.w3.org/1999/xlink" version="1.1" width="200" height="300" viewBox="0 0 200 300" xml:space="preserve">
<desc>Created with Fabric.js 4.4.0</desc>
<defs>
</defs>
<g transform="matrix(1 0 0 1 80.17 164.25)"  >
<path style="stroke: rgb(0,0,0); stroke-width: 20; stroke-dasharray: none; stroke-linecap: round; stroke-dashoffset: 0; stroke-linejoin: round; stroke-miterlimit: 10; fill: none; fill-rule: nonzero; opacity: 1;"  transform=" translate(-80.17, -164.25)" d="M 92.68667175292968 106.33332824707031 Q 92.66667175292969 106.33332824707031 92.16667175292969 106.33332824707031 Q 91.66667175292969 106.33332824707031 91.16667175292969 106.33332824707031 Q 90.66667175292969 106.33332824707031 90.16667175292969 106.33332824707031 Q 89.66667175292969 106.33332824707031 88.16667175292969 106.33332824707031 Q 86.66667175292969 106.33332824707031 85.16667175292969 106.33332824707031 Q 83.66667175292969 106.33332824707031 82.66667175292969 106.33332824707031 Q 81.66667175292969 106.33332824707031 80.16667175292969 106.33332824707031 Q 78.66667175292969 106.33332824707031 75.16667175292969 106.83332824707031 Q 71.66667175292969 107.33332824707031 69.66667175292969 107.83332824707031 Q 67.66667175292969 108.33332824707031 66.16667175292969 108.83332824707031 Q 64.66667175292969 109.33332824707031 61.66667175292969 110.33332824707031 Q 58.66667175292969 111.33332824707031 57.16667175292969 112.33332824707031 Q 55.66667175292969 113.33332824707031 54.66667175292969 114.83332824707031 Q 53.66667175292969 116.33332824707031 52.66667175292969 117.83332824707031 Q 51.66667175292969 119.33332824707031 50.66667175292969 120.83332824707031 Q 49.66667175292969 122.33332824707031 49.66667175292969 125.33332824707031 Q 49.66667175292969 128.3333282470703 50.16667175292969 131.3333282470703 Q 50.66667175292969 134.3333282470703 51.66667175292969 136.8333282470703 Q 52.66667175292969 139.3333282470703 54.66667175292969 142.8333282470703 Q 56.66667175292969 146.3333282470703 57.66667175292969 147.3333282470703 Q 58.66667175292969 148.3333282470703 59.66667175292969 149.3333282470703 Q 60.66667175292969 150.3333282470703 61.16667175292969 150.8333282470703 Q 61.66667175292969 151.3333282470703 63.16667175292969 151.8333282470703 Q 64.66667175292969 152.3333282470703 66.66667175292969 152.3333282470703 Q 68.66667175292969 152.3333282470703 71.66667175292969 151.3333282470703 Q 74.66667175292969 150.3333282470703 76.16667175292969 150.3333282470703 Q 77.66667175292969 150.3333282470703 79.16667175292969 149.3333282470703 Q 80.66667175292969 148.3333282470703 83.66667175292969 147.3333282470703 Q 86.66667175292969 146.3333282470703 88.66667175292969 144.8333282470703 Q 90.66667175292969 143.3333282470703 92.16667175292969 140.8333282470703 Q 93.66667175292969 138.3333282470703 95.16667175292969 135.3333282470703 Q 96.66667175292969 132.3333282470703 96.66667175292969 130.8333282470703 Q 96.66667175292969 129.3333282470703 96.66667175292969 128.3333282470703 Q 96.66667175292969 127.33332824707031 96.66667175292969 126.33332824707031 Q 96.66667175292969 125.33332824707031 96.66667175292969 124.83332824707031 Q 96.66667175292969 124.33332824707031 96.66667175292969 123.83332824707031 Q 96.66667175292969 123.33332824707031 96.66667175292969 122.83332824707031 Q 96.66667175292969 122.33332824707031 96.66667175292969 121.83332824707031 Q 96.66667175292969 121.33332824707031 96.66667175292969 120.83332824707031 Q 96.66667175292969 120.33332824707031 96.66667175292969 119.83332824707031 Q 96.66667175292969 119.33332824707031 96.66667175292969 119.83332824707031 Q 96.66667175292969 120.33332824707031 97.16667175292969 121.83332824707031 Q 97.66667175292969 123.33332824707031 98.16667175292969 124.83332824707031 Q 98.66667175292969 126.33332824707031 99.66667175292969 129.3333282470703 Q 100.66667175292969 132.3333282470703 101.16667175292969 136.3333282470703 Q 101.66667175292969 140.3333282470703 102.16667175292969 142.3333282470703 Q 102.66667175292969 144.3333282470703 103.16667175292969 148.8333282470703 Q 103.66667175292969 153.3333282470703 104.16667175292969 158.3333282470703 Q 104.66667175292969 163.3333282470703 104.66667175292969 167.3333282470703 Q 104.66667175292969 171.3333282470703 104.66667175292969 173.8333282470703 Q 104.66667175292969 176.3333282470703 105.16667175292969 179.3333282470703 Q 105.66667175292969 182.3333282470703 106.16667175292969 185.8333282470703 Q 106.66667175292969 189.3333282470703 107.16667175292969 192.8333282470703 Q 107.66667175292969 196.3333282470703 108.16667175292969 198.8333282470703 Q 108.66667175292969 201.3333282470703 108.66667175292969 204.3333282470703 Q 108.66667175292969 207.3333282470703 109.16667175292969 208.8333282470703 Q 109.66667175292969 210.3333282470703 110.16667175292969 211.8333282470703 Q 110.66667175292969 213.3333282470703 110.66667175292969 214.8333282470703 Q 110.66667175292969 216.3333282470703 110.66667175292969 217.3333282470703 Q 110.66667175292969 218.3333282470703 110.66667175292969 219.3333282470703 Q 110.66667175292969 220.3333282470703 110.66667175292969 220.8333282470703 Q 110.66667175292969 221.3333282470703 110.16667175292969 221.8333282470703 Q 109.66667175292969 222.3333282470703 107.16667175292969 221.3333282470703 Q 104.66667175292969 220.3333282470703 100.66667175292969 218.8333282470703 Q 96.66667175292969 217.3333282470703 91.66667175292969 216.8333282470703 Q 86.66667175292969 216.3333282470703 80.66667175292969 216.3333282470703 Q 74.66667175292969 216.3333282470703 70.66667175292969 216.3333282470703 Q 66.66667175292969 216.3333282470703 65.66667175292969 216.3333282470703 Q 64.66667175292969 216.3333282470703 64.16667175292969 216.3333282470703 L 63.646671752929684 216.3333282470703" stroke-linecap="round" />
</g>
</svg>