<?xml version="1.0" encoding="UTF-8" standalone="no" ?>
<!DOCTYPE svg PUBLIC "-//W3C//DTD SVG 1.1//EN" "http://www.w3.org/Graphics/SVG/1.1/DTD/svg11.dtd">
<svg xmlns="http://www.w3.org/2000/svg" xmlns:xlink="http://www.w3.org/1999/xlink" version="1.1" width="200" height="300" viewBox="0 0 200 300" xml:space="preserve">
<desc>Created with Fabric.js 4.4.0</desc>
<defs>
</defs>
<g transform="matrix(1 0 0 1 101.17 123.14)"  >
<path style="stroke: rgb(0,0,0); stroke-width: 20; stroke-dasharray: none; stroke-linecap: round; stroke-dashoffset: 0; stroke-linejoin: round; stroke-miterlimit: 10; fill: none; fill-rule: nonzero; opacity: 1;"  transform=" translate(-101.17, -123.14)" d="M 31.646671752929688 56.31332824707031 Q 31.666671752929688 56.33332824707031 32.16667175292969 61.33332824707031 Q 32.66667175292969 66.33332824707031 34.66667175292969 73.83332824707031 Q 36.66667175292969 81.33332824707031 40.66667175292969 89.83332824707031 Q 44.66667175292969 98.33332824707031 48.16667175292969 108.33332824707031 Q 51.66667175292969 118.33332824707031 57.16667175292969 126.83332824707031 Q 62.66667175292969 135.3333282470703 66.16667175292969 142.3333282470703 Q 69.66667175292969 149.3333282470703 73.16667175292969 154.8333282470703 Q 76.66667175292969 160.3333282470703 79.66667175292969 165.3333282470703 Q 82.66667175292969 170.3333282470703 84.66667175292969 175.3333282470703 Q 86.66667175292969 180.3333282470703 88.66667175292969 183.8333282470703 Q 90.66667175292969 187.3333282470703 91.66667175292969 188.8333282470703 Q 92.66667175292969 190.3333282470703 92.66667175292969 188.8333282470703 Q 92.66667175292969 187.3333282470703 92.66667175292969 183.8333282470703 Q 92.66667175292969 180.3333282470703 92.66667175292969 174.3333282470703 Q 92.66667175292969 168.3333282470703 92.66667175292969 164.3333282470703 Q 92.66667175292969 160.3333282470703 91.66667175292969 152.8333282470703 Q 90.66667175292969 145.3333282470703 90.16667175292969 140.8333282470703 Q 89.66667175292969 136.3333282470703 89.66667175292969 128.8333282470703 Q 89.66667175292969 121.33332824707031 89.66667175292969 117.83332824707031 Q 89.66667175292969 114.33332824707031 90.66667175292969 111.83332824707031 Q 91.66667175292969 109.33332824707031 92.66667175292969 108.33332824707031 Q 93.66667175292969 107.33332824707031 95.16667175292969 107.33332824707031 Q 96.66667175292969 107.33332824707031 98.16667175292969 107.83332824707031 Q 99.66667175292969 108.33332824707031 105.66667175292969 111.33332824707031 Q 111.66667175292969 114.33332824707031 119.16667175292969 119.83332824707031 Q 126.66667175292969 125.33332824707031 134.6666717529297 131.8333282470703 Q 142.6666717529297 138.3333282470703 148.6666717529297 144.3333282470703 Q 154.6666717529297 150.3333282470703 157.6666717529297 155.3333282470703 Q 160.6666717529297 160.3333282470703 162.6666717529297 163.8333282470703 Q 164.6666717529297 167.3333282470703 165.6666717529297 169.3333282470703 Q 166.6666717529297 171.3333282470703 167.1666717529297 171.8333282470703 Q 167.6666717529297 172.3333282470703 167.6666717529297 173.3333282470703 Q 167.6666717529297 174.3333282470703 168.1666717529297 174.8333282470703 Q 168.6666717529297 175.3333282470703 168.6666717529297 176.3333282470703 Q 168.6666717529297 177.3333282470703 169.1666717529297 177.8333282470703 Q 169.6666717529297 178.3333282470703 170.1666717529297 179.3333282470703 L 170.6866717529297 180.35332824707032" stroke-linecap="round" />
</g>
</svg>