<?xml version="1.0" encoding="UTF-8" standalone="no" ?>
<!DOCTYPE svg PUBLIC "-//W3C//DTD SVG 1.1//EN" "http://www.w3.org/Graphics/SVG/1.1/DTD/svg11.dtd">
<svg xmlns="http://www.w3.org/2000/svg" xmlns:xlink="http://www.w3.org/1999/xlink" version="1.1" width="200" height="300" viewBox="0 0 200 300" xml:space="preserve">
<desc>Created with Fabric.js 4.4.0</desc>
<defs>
</defs>
<g transform="matrix(1 0 0 1 64.29 132)"  >
<path style="stroke: rgb(0,0,0); stroke-width: 20; stroke-dasharray: none; stroke-linecap: round; stroke-dashoffset: 0; stroke-linejoin: round; stroke-miterlimit: 10; fill: none; fill-rule: nonzero; opacity: 1;"  transform=" translate(-64.29, -132)" d="M 61.646671752929684 22.979984741210938 Q 61.66667175292969 22.999984741210938 61.66667175292969 23.666656494140625 Q 61.66667175292969 24.333328247070312 62.16667175292969 30.166656494140625 Q 62.66667175292969 35.99998474121094 63.66667175292969 48.666656494140625 Q 64.66667175292969 61.33332824707031 65.50000762939453 79.16665649414062 Q 66.33334350585938 96.99998474121094 66.66667175292969 116.16665649414062 Q 67 135.3333282470703 66.83333587646484 154.5 Q 66.66667175292969 173.6666717529297 66.33333587646484 191.6666717529297 Q 66 209.6666717529297 66 225.3333282470703 L 66 241.01998474121095" stroke-linecap="round" />
</g>
<g transform="matrix(1 0 0 1 185.33 135.5)"  >
<path style="stroke: rgb(0,0,0); stroke-width: 20; stroke-dasharray: none; stroke-linecap: round; stroke-dashoffset: 0; stroke-linejoin: round; stroke-miterlimit: 10; fill: none; fill-rule: nonzero; opacity: 1;"  transform=" translate(-185.33, -135.5)" d="M 191.35334350585939 64.31332824707032 Q 191.33334350585938 64.33332824707031 191.33334350585938 68.16665649414062 Q 191.33334350585938 71.99998474121094 190.6666717529297 82.33332824707031 Q 190 92.66667175292969 188.1666717529297 106.16667175292969 Q 186.33334350585938 119.66667175292969 184.6666717529297 134.5 Q 183 149.3333282470703 181.83333587646484 163.8333282470703 Q 180.6666717529297 178.3333282470703 180.00000762939453 192.5 L 179.31334350585936 206.6866717529297" stroke-linecap="round" />
</g>
<g transform="matrix(1 0 0 1 143 137.17)"  >
<path style="stroke: rgb(0,0,0); stroke-width: 20; stroke-dasharray: none; stroke-linecap: round; stroke-dashoffset: 0; stroke-linejoin: round; stroke-miterlimit: 10; fill: none; fill-rule: nonzero; opacity: 1;"  transform=" translate(-143, -137.17)" d="M 86.64667175292969 126.64667175292969 Q 86.66667175292969 126.66667175292969 87.66667175292969 128 Q 88.66667175292969 129.3333282470703 91.83333587646484 131.5 Q 95 133.6666717529297 100.5 136 Q 106 138.3333282470703 114 140 Q 122 141.6666717529297 131.5 142.5 Q 141 143.3333282470703 150.33333587646484 143.66665649414062 Q 159.6666717529297 143.99998474121094 167.6666717529297 144.16665649414062 Q 175.6666717529297 144.3333282470703 181.00000762939453 144.3333282470703 Q 186.33334350585938 144.3333282470703 189.50001525878906 144.66665649414062 Q 192.66668701171875 144.99998474121094 194.66668701171875 145.49998474121094 Q 196.66668701171875 145.99998474121094 198.00001525878906 146.8333282470703 L 199.35334350585939 147.6866717529297" stroke-linecap="round" />
</g>
</svg>