<?xml version="1.0" encoding="UTF-8" standalone="no" ?>
<!DOCTYPE svg PUBLIC "-//W3C//DTD SVG 1.1//EN" "http://www.w3.org/Graphics/SVG/1.1/DTD/svg11.dtd">
<svg xmlns="http://www.w3.org/2000/svg" xmlns:xlink="http://www.w3.org/1999/xlink" version="1.1" width="200" height="300" viewBox="0 0 200 300" xml:space="preserve">
<desc>Created with Fabric.js 4.6.0</desc>
<defs>
</defs>
<g transform="matrix(1 0 0 1 94.25 120.17)"  >
<path style="stroke: rgb(0,0,0); stroke-width: 20; stroke-dasharray: none; stroke-linecap: round; stroke-dashoffset: 0; stroke-linejoin: round; stroke-miterlimit: 10; fill: none; fill-rule: nonzero; opacity: 1;"  transform=" translate(-94.25, -120.17)" d="M 52.75 40.64668701171875 Q 52.75 40.66668701171875 52.25 41.66668701171875 Q 51.75 42.66668701171875 51.75 44.16668701171875 Q 51.75 45.66668701171875 51.75 54.66668701171875 Q 51.75 63.66668701171875 51.75 67.16668701171875 Q 51.75 70.66668701171875 51.75 73.16668701171875 Q 51.75 75.66668701171875 51.75 77.16668701171875 Q 51.75 78.66668701171875 52.25 81.66668701171875 Q 52.75 84.66668701171875 53.25 87.16668701171875 Q 53.75000000000001 89.66668701171875 54.25 92.66668701171875 Q 54.75 95.66668701171875 54.75 98.16668701171875 Q 54.75 100.66668701171876 55.25 103.16668701171875 Q 55.75 105.66668701171875 55.75 109.66668701171875 Q 55.75 113.66668701171875 55.25 115.66668701171875 Q 54.75 117.66668701171875 54.75 121.66668701171875 Q 54.75 125.66668701171875 54.75 128.16668701171875 Q 54.75 130.66668701171875 54.75 132.16668701171875 Q 54.75 133.66668701171875 54.75 136.16668701171875 Q 54.75 138.66668701171875 54.75 141.66668701171875 Q 54.75 144.66668701171875 54.75 146.16668701171875 Q 54.75 147.66668701171875 54.75 150.16668701171875 Q 54.75 152.66668701171875 54.75 154.66668701171875 Q 54.75 156.66668701171875 54.75 158.66668701171875 Q 54.75 160.66668701171875 54.75 162.66668701171875 Q 54.75 164.66668701171878 54.75 165.66668701171875 Q 54.75 166.66668701171875 54.75 167.16668701171875 Q 54.75 167.66668701171878 54.75 168.66668701171875 Q 54.75 169.66668701171875 54.75 170.16668701171875 Q 54.75 170.66668701171878 54.75 171.16668701171875 Q 54.75 171.66668701171875 54.75 172.16668701171875 Q 54.75 172.66668701171875 54.75 173.16668701171875 Q 54.75 173.66668701171878 54.75 174.66668701171875 Q 54.75 175.66668701171875 55.75 177.16668701171875 Q 56.75000000000001 178.66668701171875 56.75000000000001 181.16668701171875 Q 56.75000000000001 183.66668701171875 56.75000000000001 184.16668701171875 Q 56.75000000000001 184.66668701171875 56.75000000000001 185.16668701171875 Q 56.75000000000001 185.66668701171878 56.75000000000001 186.16668701171875 Q 56.75000000000001 186.66668701171875 56.75000000000001 187.16668701171875 Q 56.75000000000001 187.66668701171875 56.75000000000001 188.16668701171875 Q 56.75000000000001 188.66668701171878 56.75000000000001 189.16668701171875 Q 56.75000000000001 189.66668701171875 56.75000000000001 190.16668701171875 Q 56.75000000000001 190.66668701171875 56.75000000000001 190.16668701171875 Q 56.75000000000001 189.66668701171875 56.75000000000001 189.16668701171875 Q 56.75000000000001 188.66668701171878 56.75000000000001 187.66668701171875 Q 56.75000000000001 186.66668701171875 56.75000000000001 186.16668701171875 Q 56.75000000000001 185.66668701171878 56.75000000000001 185.16668701171875 Q 56.75000000000001 184.66668701171875 56.75000000000001 183.66668701171875 Q 56.75000000000001 182.66668701171878 56.25 180.16668701171875 Q 55.75 177.66668701171875 55.75 176.66668701171875 Q 55.75 175.66668701171875 55.75 173.66668701171875 Q 55.75 171.66668701171875 55.75 171.16668701171875 Q 55.75 170.66668701171878 55.75 170.16668701171875 Q 55.75 169.66668701171875 55.75 169.16668701171875 Q 55.75 168.66668701171875 55.75 167.16668701171875 Q 55.75 165.66668701171875 55.75 164.16668701171875 Q 55.75 162.66668701171875 55.75 161.66668701171875 Q 55.75 160.66668701171875 56.25 159.66668701171875 Q 56.75000000000001 158.66668701171878 56.75000000000001 157.66668701171875 Q 56.75000000000001 156.66668701171875 56.75000000000001 155.66668701171875 Q 56.75000000000001 154.66668701171875 57.25 154.16668701171875 Q 57.75 153.66668701171875 57.75 153.16668701171875 Q 57.75 152.66668701171875 58.25 151.66668701171875 Q 58.75 150.66668701171875 60.75 148.66668701171875 Q 62.75 146.66668701171875 64.25 145.66668701171875 Q 65.75 144.66668701171875 67.25 142.66668701171875 Q 68.75 140.66668701171875 70.75 139.16668701171875 Q 72.75 137.66668701171875 73.75 136.66668701171875 Q 74.75 135.66668701171875 76.75 134.66668701171875 Q 78.75 133.66668701171875 80.25 132.66668701171875 Q 81.75 131.66668701171875 81.75 131.16668701171875 Q 81.75 130.66668701171875 83.25 130.66668701171875 Q 84.75 130.66668701171875 85.75 129.66668701171875 Q 86.75 128.66668701171875 87.25 128.16668701171875 Q 87.75 127.66668701171875 89.75 127.16668701171875 Q 91.75000000000001 126.66668701171875 92.75 126.16668701171875 Q 93.75 125.66668701171875 95.25 125.16668701171875 Q 96.75 124.66668701171875 97.75 123.66668701171875 Q 98.75 122.66668701171875 99.75 122.66668701171875 Q 100.75000000000001 122.66668701171875 101.25 122.16668701171875 Q 101.75 121.66668701171875 102.75 121.66668701171875 Q 103.75000000000001 121.66668701171875 104.75 121.66668701171875 Q 105.75 121.66668701171875 106.25 121.66668701171875 Q 106.75000000000001 121.66668701171875 107.75 121.66668701171875 Q 108.75 121.66668701171875 110.25 122.16668701171875 Q 111.75 122.66668701171875 113.25 124.16668701171875 Q 114.75 125.66668701171875 116.75 127.66668701171875 Q 118.75 129.66668701171875 120.25 130.66668701171875 Q 121.75 131.66668701171875 124.25 134.16668701171875 Q 126.75 136.66668701171875 127.25 138.16668701171875 Q 127.75 139.66668701171875 129.25 141.66668701171875 Q 130.75 143.66668701171875 131.25 144.66668701171875 Q 131.75 145.66668701171875 132.25 146.66668701171875 Q 132.75 147.66668701171875 133.75 149.16668701171875 Q 134.75 150.66668701171875 135.25 151.16668701171875 Q 135.75 151.66668701171875 136.25 152.66668701171875 Q 136.75 153.66668701171875 136.75 154.16668701171875 Q 136.75 154.66668701171875 136.75 155.16668701171875 Q 136.75 155.66668701171878 136.75 156.16668701171875 Q 136.75 156.66668701171875 136.75 158.16668701171875 Q 136.75 159.66668701171875 136.75 161.16668701171875 Q 136.75 162.66668701171875 136.75 164.66668701171875 Q 136.75 166.66668701171875 136.75 167.66668701171875 Q 136.75 168.66668701171875 136.75 169.66668701171875 Q 136.75 170.66668701171878 136.75 171.66668701171875 Q 136.75 172.66668701171875 136.75 173.16668701171875 Q 136.75 173.66668701171878 136.75 176.66668701171878 Q 136.75 179.66668701171878 136.75 182.16668701171875 Q 136.75 184.66668701171875 136.75 187.16668701171875 Q 136.75 189.66668701171875 136.75 190.16668701171875 Q 136.75 190.66668701171875 136.75 193.16668701171875 Q 136.75 195.66668701171875 136.75 196.16668701171875 Q 136.75 196.66668701171875 136.75 197.16668701171875 Q 136.75 197.66668701171878 136.75 198.66668701171875 L 136.75 199.68668701171876" stroke-linecap="round" />
</g>
</svg>