<?xml version="1.0" encoding="UTF-8" standalone="no" ?>
<!DOCTYPE svg PUBLIC "-//W3C//DTD SVG 1.1//EN" "http://www.w3.org/Graphics/SVG/1.1/DTD/svg11.dtd">
<svg xmlns="http://www.w3.org/2000/svg" xmlns:xlink="http://www.w3.org/1999/xlink" version="1.1" width="200" height="300" viewBox="0 0 200 300" xml:space="preserve">
<desc>Created with Fabric.js 4.6.0</desc>
<defs>
</defs>
<g transform="matrix(1 0 0 1 98.75 159.17)"  >
<path style="stroke: rgb(0,0,0); stroke-width: 20; stroke-dasharray: none; stroke-linecap: round; stroke-dashoffset: 0; stroke-linejoin: round; stroke-miterlimit: 10; fill: none; fill-rule: nonzero; opacity: 1;"  transform=" translate(-98.75, -159.17)" d="M 100.75000000000001 99.64668701171875 Q 100.75000000000001 99.66668701171875 100.25 100.16668701171875 Q 99.75 100.66668701171876 99.75 101.16668701171875 Q 99.75 101.66668701171875 98.75 105.66668701171875 Q 97.75000000000001 109.66668701171876 97.75000000000001 111.16668701171876 Q 97.75000000000001 112.66668701171876 97.25 114.16668701171875 Q 96.75 115.66668701171875 96.75 119.16668701171875 Q 96.75 122.66668701171875 96.75 125.66668701171875 Q 96.75 128.66668701171875 96.75 132.16668701171875 Q 96.75 135.66668701171875 96.75 140.16668701171875 Q 96.75 144.66668701171875 96.75 146.16668701171875 Q 96.75 147.66668701171875 96.75 149.66668701171875 Q 96.75 151.66668701171875 96.75 153.66668701171875 Q 96.75 155.66668701171878 96.75 156.66668701171875 Q 96.75 157.66668701171875 96.75 159.66668701171875 Q 96.75 161.66668701171878 96.75 163.66668701171875 Q 96.75 165.66668701171875 96.75 167.16668701171875 Q 96.75 168.66668701171875 96.75 171.16668701171875 Q 96.75 173.66668701171878 96.75 174.66668701171875 Q 96.75 175.66668701171875 96.75 176.66668701171875 Q 96.75 177.66668701171875 96.75 178.16668701171875 Q 96.75 178.66668701171875 96.75 179.66668701171875 Q 96.75 180.66668701171875 96.75 181.16668701171875 Q 96.75 181.66668701171875 96.75 182.16668701171875 Q 96.75 182.66668701171878 96.75 183.16668701171875 Q 96.75 183.66668701171875 96.75 184.16668701171875 Q 96.75 184.66668701171875 96.75 186.16668701171875 Q 96.75 187.66668701171875 96.75 189.16668701171875 Q 96.75 190.66668701171875 96.75 191.16668701171875 Q 96.75 191.66668701171878 96.75 193.66668701171875 Q 96.75 195.66668701171875 96.75 196.16668701171875 Q 96.75 196.66668701171875 96.75 197.66668701171875 Q 96.75 198.66668701171875 96.75 199.16668701171875 Q 96.75 199.66668701171875 96.75 200.16668701171875 Q 96.75 200.66668701171878 96.75 201.16668701171875 Q 96.75 201.66668701171875 96.75 203.16668701171875 Q 96.75 204.66668701171875 96.75 207.66668701171875 Q 96.75 210.66668701171875 96.75 211.66668701171875 Q 96.75 212.66668701171878 96.75 213.66668701171875 Q 96.75 214.66668701171875 96.75 215.16668701171875 Q 96.75 215.66668701171878 96.75 216.16668701171875 Q 96.75 216.66668701171875 96.75 217.66668701171875 L 96.75 218.6866870117188" stroke-linecap="round" />
</g>
<g transform="matrix(1 0 0 1 126.25 36.74)"  >
<path style="stroke: rgb(0,0,0); stroke-width: 20; stroke-dasharray: none; stroke-linecap: round; stroke-dashoffset: 0; stroke-linejoin: round; stroke-miterlimit: 10; fill: none; fill-rule: nonzero; opacity: 1;"  transform=" translate(-126.25, -36.74)" d="M 105.75 49.68668701171875 Q 105.75 49.66668701171875 105.25 49.16668701171875 Q 104.75 48.66668701171875 104.75 48.16668701171875 Q 104.75 47.66668701171876 104.25 46.66668701171875 Q 103.75000000000001 45.66668701171875 103.25 45.66668701171875 Q 102.75 45.66668701171875 102.25 45.16668701171875 Q 101.75 44.66668701171876 101.75 44.16668701171875 Q 101.75 43.66668701171875 101.75 43.16668701171875 Q 101.75 42.66668701171875 101.25 42.16668701171875 Q 100.75000000000001 41.66668701171876 100.75000000000001 41.16668701171875 Q 100.75000000000001 40.66668701171875 100.75000000000001 40.16668701171875 Q 100.75000000000001 39.66668701171875 100.75000000000001 39.16668701171875 Q 100.75000000000001 38.66668701171876 100.75000000000001 38.16668701171875 Q 100.75000000000001 37.66668701171875 100.75000000000001 37.16668701171875 Q 100.75000000000001 36.66668701171875 100.75000000000001 36.16668701171875 Q 100.75000000000001 35.66668701171875 100.75000000000001 35.16668701171875 Q 100.75000000000001 34.66668701171875 100.75000000000001 34.16668701171875 Q 100.75000000000001 33.66668701171875 100.75000000000001 32.66668701171875 Q 100.75000000000001 31.66668701171875 100.75000000000001 31.16668701171875 Q 100.75000000000001 30.66668701171875 100.75000000000001 29.66668701171875 Q 100.75000000000001 28.666687011718754 100.75000000000001 28.16668701171875 Q 100.75000000000001 27.66668701171875 101.75 25.66668701171875 Q 102.75 23.66668701171875 103.75 22.16668701171875 Q 104.75 20.66668701171875 105.75 19.66668701171875 Q 106.75000000000001 18.66668701171875 107.75 17.66668701171875 Q 108.75 16.66668701171875 109.25 16.16668701171875 Q 109.75000000000001 15.66668701171875 110.25 15.66668701171875 Q 110.75 15.66668701171875 111.25 15.66668701171875 Q 111.75 15.66668701171875 112.25 15.66668701171875 Q 112.75000000000001 15.66668701171875 113.25 15.66668701171875 Q 113.75 15.66668701171875 114.25 15.66668701171875 Q 114.75 15.66668701171875 115.25 15.66668701171875 Q 115.75 15.66668701171875 116.25 15.66668701171875 Q 116.75 15.66668701171875 116.75 16.16668701171875 Q 116.75 16.66668701171875 116.75 17.66668701171875 Q 116.75 18.66668701171875 116.75 19.66668701171875 Q 116.75 20.66668701171875 116.75 21.16668701171875 Q 116.75 21.66668701171875 116.75 22.66668701171875 Q 116.75 23.66668701171875 116.75 24.16668701171875 Q 116.75 24.66668701171875 116.75 25.16668701171875 Q 116.75 25.666687011718754 116.75 26.16668701171875 Q 116.75 26.66668701171875 117.25 26.16668701171875 Q 117.75 25.666687011718754 118.25 25.666687011718754 Q 118.75 25.666687011718754 120.25 23.16668701171875 Q 121.75 20.66668701171875 121.75 19.66668701171875 Q 121.75 18.66668701171875 121.75 17.66668701171875 Q 121.75 16.66668701171875 122.25 16.16668701171875 Q 122.75 15.66668701171875 123.25 15.66668701171875 Q 123.75 15.66668701171875 124.75 15.16668701171875 Q 125.75 14.66668701171875 126.25 14.16668701171875 Q 126.75 13.66668701171875 127.25 13.16668701171875 Q 127.75 12.66668701171875 129.75 12.66668701171875 Q 131.75 12.66668701171875 132.25 12.66668701171875 Q 132.75 12.66668701171875 133.75 12.16668701171875 Q 134.75 11.666687011718752 136.75 12.16668701171875 Q 138.75 12.66668701171875 140.25 13.16668701171875 Q 141.75 13.66668701171875 143.25 14.16668701171875 Q 144.75 14.66668701171875 145.75 15.16668701171875 Q 146.75 15.66668701171875 147.25 15.66668701171875 Q 147.75 15.66668701171875 148.25 16.16668701171875 Q 148.75 16.66668701171875 149.25 17.16668701171875 Q 149.75 17.66668701171875 150.25 19.66668701171875 Q 150.75 21.66668701171875 151.25 23.16668701171875 Q 151.75 24.66668701171875 151.75 25.16668701171875 Q 151.75 25.666687011718754 151.75 27.66668701171875 Q 151.75 29.66668701171875 151.75 30.16668701171875 Q 151.75 30.66668701171875 151.75 32.16668701171875 Q 151.75 33.66668701171875 150.75 34.66668701171875 Q 149.75 35.66668701171875 148.75 36.66668701171875 Q 147.75 37.66668701171875 146.75 39.16668701171875 Q 145.75 40.66668701171875 145.25 41.16668701171875 Q 144.75 41.66668701171876 143.75 42.66668701171875 Q 142.75 43.66668701171875 142.25 44.16668701171875 Q 141.75 44.66668701171876 140.75 45.16668701171875 Q 139.75 45.66668701171875 137.75 46.16668701171875 Q 135.75 46.66668701171875 134.75 47.16668701171875 Q 133.75 47.66668701171876 132.75 48.16668701171875 Q 131.75 48.66668701171875 130.75 48.66668701171875 Q 129.75 48.66668701171875 128.75 48.66668701171875 Q 127.75 48.66668701171875 126.25 49.66668701171875 Q 124.75 50.66668701171876 123.25 50.66668701171876 Q 121.75 50.66668701171876 120.25 51.66668701171875 Q 118.75 52.66668701171875 117.75 52.66668701171875 Q 116.75 52.66668701171875 115.75 52.66668701171875 Q 114.75 52.66668701171875 114.25 52.66668701171875 Q 113.75 52.66668701171875 112.75 52.66668701171875 Q 111.75 52.66668701171875 111.25 52.66668701171875 Q 110.75 52.66668701171875 110.25 52.66668701171875 Q 109.75000000000001 52.66668701171875 109.25 52.66668701171875 Q 108.75 52.66668701171875 107.75 53.16668701171875 Q 106.75000000000001 53.66668701171876 106.25 54.16668701171875 Q 105.75 54.66668701171875 105.25 54.66668701171875 Q 104.75 54.66668701171875 103.75 55.16668701171875 Q 102.75 55.66668701171875 102.25 55.66668701171875 Q 101.75 55.66668701171875 101.75 56.16668701171875 Q 101.75 56.66668701171876 101.75 57.16668701171875 Q 101.75 57.66668701171875 101.75 58.16668701171875 Q 101.75 58.66668701171875 101.75 60.16668701171875 L 101.75 61.68668701171875" stroke-linecap="round" />
</g>
</svg>