<?xml version="1.0" encoding="UTF-8" standalone="no" ?>
<!DOCTYPE svg PUBLIC "-//W3C//DTD SVG 1.1//EN" "http://www.w3.org/Graphics/SVG/1.1/DTD/svg11.dtd">
<svg xmlns="http://www.w3.org/2000/svg" xmlns:xlink="http://www.w3.org/1999/xlink" version="1.1" width="200" height="300" viewBox="0 0 200 300" xml:space="preserve">
<desc>Created with Fabric.js 4.4.0</desc>
<defs>
</defs>
<g transform="matrix(1 0 0 1 111 145.83)"  >
<path style="stroke: rgb(0,0,0); stroke-width: 20; stroke-dasharray: none; stroke-linecap: round; stroke-dashoffset: 0; stroke-linejoin: round; stroke-miterlimit: 10; fill: none; fill-rule: nonzero; opacity: 1;"  transform=" translate(-111, -145.83)" d="M 123.35334350585937 20.646671752929688 Q 123.33334350585938 20.666671752929688 123.00000762939453 21.166671752929688 Q 122.66667175292969 21.666671752929688 121.16667175292969 25.666671752929688 Q 119.66667175292969 29.666671752929688 117.66667175292969 38.83332824707031 Q 115.66667175292969 47.99998474121094 113.83333587646484 60.166656494140625 Q 112 72.33332824707031 110.5 86.5 Q 109 100.66667175292969 107.5 116.33332824707031 Q 106 131.99998474121094 104.83333587646484 147.8333282470703 Q 103.66667175292969 163.6666717529297 102.66667175292969 179.1666717529297 Q 101.66667175292969 194.6666717529297 101.16667175292969 207.8333282470703 Q 100.66667175292969 220.99998474121094 100.50000762939453 231.49998474121094 Q 100.33334350585938 241.99998474121094 100.00000762939453 249.8333282470703 Q 99.66667175292969 257.6666717529297 99.16667175292969 264.3333282470703 L 98.64667175292969 271.0199847412109" stroke-linecap="round" />
</g>
<g transform="matrix(1 0 0 1 122.5 48.24)"  >
<path style="stroke: rgb(0,0,0); stroke-width: 20; stroke-dasharray: none; stroke-linecap: round; stroke-dashoffset: 0; stroke-linejoin: round; stroke-miterlimit: 10; fill: none; fill-rule: nonzero; opacity: 1;"  transform=" translate(-122.5, -48.24)" d="M 36.31333587646484 67.01998474121093 Q 36.333335876464844 66.99998474121094 39.500003814697266 64.99998474121094 Q 42.66667175292969 62.99998474121094 52.66667175292969 58.83332824707031 Q 62.66667175292969 54.66667175292969 77.16667175292969 50 Q 91.66667175292969 45.33332824707031 109.33333587646484 41.666656494140625 Q 127 37.99998474121094 141.33333587646484 35.666656494140625 Q 155.6666717529297 33.33332824707031 167.50000762939453 31.666656494140625 Q 179.33334350585938 29.999984741210938 188.1666717529297 29.666656494140625 Q 197 29.333328247070312 202.83334350585938 30.166656494140625 L 208.68668701171876 31.019984741210937" stroke-linecap="round" />
</g>
<g transform="matrix(1 0 0 1 97.17 241.67)"  >
<path style="stroke: rgb(0,0,0); stroke-width: 20; stroke-dasharray: none; stroke-linecap: round; stroke-dashoffset: 0; stroke-linejoin: round; stroke-miterlimit: 10; fill: none; fill-rule: nonzero; opacity: 1;"  transform=" translate(-97.17, -241.67)" d="M 29.313335876464844 254.35332824707032 Q 29.333335876464844 254.3333282470703 34.333335876464844 252.16665649414062 Q 39.333335876464844 249.99998474121094 49.16666793823242 247.8333282470703 Q 59 245.6666717529297 71.5 243.1666717529297 Q 84 240.6666717529297 96.33333587646484 238.1666717529297 Q 108.66667175292969 235.6666717529297 120.50000762939453 233.5 Q 132.33334350585938 231.3333282470703 148.6666717529297 230.16665649414062 L 165.02 228.97998474121093" stroke-linecap="round" />
</g>
</svg>