<?xml version="1.0" encoding="UTF-8" standalone="no" ?>
<!DOCTYPE svg PUBLIC "-//W3C//DTD SVG 1.1//EN" "http://www.w3.org/Graphics/SVG/1.1/DTD/svg11.dtd">
<svg xmlns="http://www.w3.org/2000/svg" xmlns:xlink="http://www.w3.org/1999/xlink" version="1.1" width="200" height="300" viewBox="0 0 200 300" xml:space="preserve">
<desc>Created with Fabric.js 4.6.0</desc>
<defs>
</defs>
<g transform="matrix(1 0 0 1 75.75 171.66)"  >
<path style="stroke: rgb(0,0,0); stroke-width: 20; stroke-dasharray: none; stroke-linecap: round; stroke-dashoffset: 0; stroke-linejoin: round; stroke-miterlimit: 10; fill: none; fill-rule: nonzero; opacity: 1;"  transform=" translate(-75.75, -171.66)" d="M 101.75 94.64668701171877 Q 101.75 94.66668701171876 101.75 95.16668701171875 Q 101.75 95.66668701171875 101.75 97.66668701171875 Q 101.75 99.66668701171875 101.75 102.16668701171875 Q 101.75 104.66668701171875 101.75 110.16668701171875 Q 101.75 115.66668701171875 101.75 123.16668701171875 Q 101.75 130.66668701171875 102.25 135.16668701171875 Q 102.75 139.66668701171875 103.75 143.16668701171875 Q 104.75 146.66668701171875 105.75 151.16668701171875 Q 106.75000000000001 155.66668701171878 107.75 158.66668701171878 Q 108.75 161.66668701171878 110.25 166.16668701171878 Q 111.75 170.66668701171878 111.75 173.16668701171875 Q 111.75 175.66668701171875 112.25 179.16668701171875 Q 112.75000000000001 182.66668701171878 112.75000000000001 187.16668701171878 Q 112.75000000000001 191.66668701171878 112.75000000000001 194.16668701171875 Q 112.75000000000001 196.66668701171875 112.75000000000001 199.66668701171875 Q 112.75000000000001 202.66668701171875 112.25 206.66668701171875 Q 111.75 210.66668701171875 111.75 213.16668701171875 Q 111.75 215.66668701171878 110.75 218.16668701171875 Q 109.75000000000001 220.66668701171875 108.25000000000001 223.16668701171875 Q 106.75000000000001 225.66668701171875 106.75000000000001 227.16668701171875 Q 106.75000000000001 228.66668701171875 105.25000000000001 230.16668701171875 Q 103.75000000000001 231.66668701171875 102.75 233.16668701171875 Q 101.75 234.66668701171875 99.25 235.66668701171875 Q 96.75 236.66668701171875 92.75 238.66668701171875 Q 88.75000000000001 240.66668701171875 85.25 242.16668701171875 Q 81.75 243.66668701171875 79.75 244.66668701171875 Q 77.75 245.66668701171875 74.75 247.16668701171875 Q 71.75 248.66668701171875 71.25 248.66668701171875 Q 70.75 248.66668701171875 70.25 248.66668701171875 Q 69.75 248.66668701171875 69.25 248.66668701171875 Q 68.75 248.66668701171875 67.75 248.66668701171875 Q 66.75 248.66668701171875 64.25 247.16668701171875 Q 61.75 245.66668701171875 59.25 244.16668701171875 Q 56.75000000000001 242.66668701171875 55.25000000000001 240.66668701171875 Q 53.75000000000001 238.66668701171875 51.25 234.66668701171875 Q 48.75 230.66668701171875 47.75 228.16668701171875 Q 46.75 225.66668701171875 44.75 222.66668701171875 Q 42.75 219.66668701171875 41.75 215.66668701171875 Q 40.75 211.66668701171875 40.25 209.16668701171875 Q 39.75 206.66668701171878 39.25 204.16668701171875 Q 38.75000000000001 201.66668701171875 38.75000000000001 200.16668701171875 Q 38.75000000000001 198.66668701171875 38.75000000000001 197.66668701171875 Q 38.75000000000001 196.66668701171875 38.75000000000001 196.16668701171875 Q 38.75000000000001 195.66668701171875 38.75000000000001 194.66668701171875 L 38.75000000000001 193.64668701171874" stroke-linecap="round" />
</g>
<g transform="matrix(1 0 0 1 95.75 50.67)"  >
<path style="stroke: rgb(0,0,0); stroke-width: 20; stroke-dasharray: none; stroke-linecap: round; stroke-dashoffset: 0; stroke-linejoin: round; stroke-miterlimit: 10; fill: none; fill-rule: nonzero; opacity: 1;"  transform=" translate(-95.75, -50.67)" d="M 95.73 50.66668701171876 L 95.77 50.66668701171876" stroke-linecap="round" />
</g>
</svg>