<?xml version="1.0" encoding="UTF-8" standalone="no" ?>
<!DOCTYPE svg PUBLIC "-//W3C//DTD SVG 1.1//EN" "http://www.w3.org/Graphics/SVG/1.1/DTD/svg11.dtd">
<svg xmlns="http://www.w3.org/2000/svg" xmlns:xlink="http://www.w3.org/1999/xlink" version="1.1" width="200" height="300" viewBox="0 0 200 300" xml:space="preserve">
<desc>Created with Fabric.js 4.4.0</desc>
<defs>
</defs>
<g transform="matrix(1 0 0 1 104.16 153.33)"  >
<path style="stroke: rgb(0,0,0); stroke-width: 20; stroke-dasharray: none; stroke-linecap: round; stroke-dashoffset: 0; stroke-linejoin: round; stroke-miterlimit: 10; fill: none; fill-rule: nonzero; opacity: 1;"  transform=" translate(-104.16, -153.33)" d="M 40.98 66.97998474121094 Q 41 66.99998474121094 43.333335876464844 67.16665649414062 Q 45.66667175292969 67.33332824707031 51.50000762939453 67.5 Q 57.333343505859375 67.66667175292969 66.50000762939453 67.33332824707031 Q 75.66667175292969 66.99998474121094 85.83333587646484 65.66665649414062 Q 96 64.33332824707031 106.5 61.83332824707031 Q 117 59.33332824707031 126.33333587646484 56.33332824707031 Q 135.6666717529297 53.33332824707031 142.50000762939453 50.666656494140625 Q 149.33334350585938 47.99998474121094 153.83334350585938 46.99998474121094 Q 158.33334350585938 45.99998474121094 160.6666717529297 45.99998474121094 Q 163 45.99998474121094 164.1666717529297 46.99998474121094 Q 165.33334350585938 47.99998474121094 166.33334350585938 50.99998474121094 Q 167.33334350585938 53.99998474121094 167.33334350585938 59.99998474121094 Q 167.33334350585938 65.99998474121094 165.83334350585938 74.83332824707031 Q 164.33334350585938 83.66667175292969 162.00000762939453 93.5 Q 159.6666717529297 103.33332824707031 157.6666717529297 113 Q 155.6666717529297 122.66667175292969 154.50000762939453 132.1666717529297 Q 153.33334350585938 141.6666717529297 153.33334350585938 150.3333282470703 Q 153.33334350585938 158.99998474121094 154.1666717529297 167.99998474121094 Q 155 176.99998474121094 156.5 185.49998474121094 Q 158 193.99998474121094 159.5 200.49998474121094 Q 161 206.99998474121094 161.83333587646484 212.3333282470703 Q 162.6666717529297 217.6666717529297 162.83333587646484 222.1666717529297 Q 163 226.6666717529297 162.1666717529297 231 Q 161.33334350585938 235.3333282470703 159.50000762939453 239.66665649414062 Q 157.6666717529297 243.99998474121094 154.50000762939453 247.3333282470703 Q 151.33334350585938 250.6666717529297 145.50000762939453 254 Q 139.6666717529297 257.3333282470703 131.33333587646484 259.1666564941406 Q 123 260.99998474121094 113.83333587646484 259.99998474121094 Q 104.66667175292969 258.99998474121094 94.66667175292969 254.16665649414062 Q 84.66667175292969 249.3333282470703 76.16667175292969 244 Q 67.66667175292969 238.6666717529297 61.66667175292969 234.6666717529297 Q 55.66667175292969 230.6666717529297 52.16667175292969 228.3333282470703 Q 48.66667175292969 225.99998474121094 47.16667175292969 224.8333282470703 Q 45.66667175292969 223.6666717529297 45.500003814697266 221.6666717529297 L 45.31333587646484 219.64667175292968" stroke-linecap="round" />
</g>
</svg>