<?xml version="1.0" encoding="UTF-8" standalone="no" ?>
<!DOCTYPE svg PUBLIC "-//W3C//DTD SVG 1.1//EN" "http://www.w3.org/Graphics/SVG/1.1/DTD/svg11.dtd">
<svg xmlns="http://www.w3.org/2000/svg" xmlns:xlink="http://www.w3.org/1999/xlink" version="1.1" width="200" height="300" viewBox="0 0 200 300" xml:space="preserve">
<desc>Created with Fabric.js 4.6.0</desc>
<defs>
</defs>
<g transform="matrix(1 0 0 1 57.76 130.17)"  >
<path style="stroke: rgb(0,0,0); stroke-width: 20; stroke-dasharray: none; stroke-linecap: round; stroke-dashoffset: 0; stroke-linejoin: round; stroke-miterlimit: 10; fill: none; fill-rule: nonzero; opacity: 1;"  transform=" translate(-57.76, -130.17)" d="M 54.77 44.646687011718754 Q 54.75 44.66668701171876 54.75 45.16668701171875 Q 54.75 45.66668701171875 54.25 48.16668701171875 Q 53.75000000000001 50.66668701171876 53.25 55.66668701171875 Q 52.75 60.66668701171875 52.25 65.16668701171875 Q 51.75 69.66668701171875 51.75 76.16668701171875 Q 51.75 82.66668701171876 51.75 91.66668701171876 Q 51.75 100.66668701171876 52.25 105.66668701171875 Q 52.75 110.66668701171875 53.25 115.66668701171875 Q 53.75000000000001 120.66668701171875 54.75 127.66668701171875 Q 55.75 134.66668701171875 55.75 138.16668701171875 Q 55.75 141.66668701171875 56.25 147.66668701171875 Q 56.75000000000001 153.66668701171875 57.25 157.16668701171875 Q 57.75 160.66668701171875 58.75 164.16668701171875 Q 59.75 167.66668701171878 60.25 171.16668701171875 Q 60.75 174.66668701171875 61.25 176.66668701171875 Q 61.75 178.66668701171875 61.75 180.16668701171875 Q 61.75 181.66668701171875 61.75 183.66668701171875 Q 61.75 185.66668701171878 61.75 186.66668701171875 Q 61.75 187.66668701171875 61.75 190.16668701171875 Q 61.75 192.66668701171875 61.75 194.16668701171875 Q 61.75 195.66668701171875 61.75 197.66668701171875 Q 61.75 199.66668701171875 61.75 200.66668701171875 Q 61.75 201.66668701171875 61.75 202.16668701171875 Q 61.75 202.66668701171875 61.75 203.66668701171875 Q 61.75 204.66668701171875 61.75 205.16668701171875 Q 61.75 205.66668701171875 61.75 206.16668701171875 Q 61.75 206.66668701171878 61.75 207.16668701171875 Q 61.75 207.66668701171875 61.75 208.16668701171875 Q 61.75 208.66668701171875 61.75 209.16668701171875 Q 61.75 209.66668701171878 61.75 210.16668701171875 Q 61.75 210.66668701171875 61.75 211.16668701171875 Q 61.75 211.66668701171875 61.75 212.66668701171875 Q 61.75 213.66668701171875 62.75 214.66668701171875 L 63.77 215.6866870117188" stroke-linecap="round" />
</g>
<g transform="matrix(1 0 0 1 103.25 121.67)"  >
<path style="stroke: rgb(0,0,0); stroke-width: 20; stroke-dasharray: none; stroke-linecap: round; stroke-dashoffset: 0; stroke-linejoin: round; stroke-miterlimit: 10; fill: none; fill-rule: nonzero; opacity: 1;"  transform=" translate(-103.25, -121.67)" d="M 66.73 148.68668701171876 Q 66.75 148.66668701171875 68.75 146.66668701171875 Q 70.75 144.66668701171875 74.25 140.66668701171875 Q 77.75 136.66668701171875 88.25 127.16668701171875 Q 98.75 117.66668701171875 110.25 110.16668701171875 Q 121.75 102.66668701171875 125.25 101.16668701171875 Q 128.75 99.66668701171875 131.75 98.16668701171875 Q 134.75 96.66668701171875 137.25 95.66668701171875 L 139.77 94.64668701171877" stroke-linecap="round" />
</g>
<g transform="matrix(1 0 0 1 117.25 175.67)"  >
<path style="stroke: rgb(0,0,0); stroke-width: 20; stroke-dasharray: none; stroke-linecap: round; stroke-dashoffset: 0; stroke-linejoin: round; stroke-miterlimit: 10; fill: none; fill-rule: nonzero; opacity: 1;"  transform=" translate(-117.25, -175.67)" d="M 92.73 130.64668701171874 Q 92.75 130.66668701171875 93.75 131.66668701171875 Q 94.75000000000001 132.66668701171875 98.75 139.16668701171875 Q 102.75 145.66668701171875 106.75 152.66668701171875 Q 110.75 159.66668701171875 113.75 166.16668701171875 Q 116.75 172.66668701171875 120.75 180.16668701171875 Q 124.75 187.66668701171875 126.25 191.16668701171875 Q 127.75 194.66668701171878 129.75 197.66668701171878 Q 131.75 200.66668701171878 134.25 205.66668701171875 Q 136.75 210.66668701171875 137.25 213.16668701171875 Q 137.75 215.66668701171878 139.75 218.16668701171875 L 141.77 220.68668701171876" stroke-linecap="round" />
</g>
</svg>