<?xml version="1.0" encoding="UTF-8" standalone="no" ?>
<!DOCTYPE svg PUBLIC "-//W3C//DTD SVG 1.1//EN" "http://www.w3.org/Graphics/SVG/1.1/DTD/svg11.dtd">
<svg xmlns="http://www.w3.org/2000/svg" xmlns:xlink="http://www.w3.org/1999/xlink" version="1.1" width="200" height="300" viewBox="0 0 200 300" xml:space="preserve">
<desc>Created with Fabric.js 4.4.0</desc>
<defs>
</defs>
<g transform="matrix(1 0 0 1 66.82 159.83)"  >
<path style="stroke: rgb(0,0,0); stroke-width: 20; stroke-dasharray: none; stroke-linecap: round; stroke-dashoffset: 0; stroke-linejoin: round; stroke-miterlimit: 10; fill: none; fill-rule: nonzero; opacity: 1;"  transform=" translate(-66.82, -159.83)" d="M 46.646671752929684 29.979984741210938 Q 46.66667175292969 29.999984741210938 49.66667175292969 47.33332824707031 Q 52.66667175292969 64.66667175292969 60.833335876464844 95.5 Q 69 126.33332824707031 73.83333587646484 148.5 Q 78.66667175292969 170.6666717529297 82.16667175292969 200.8333282470703 Q 85.66667175292969 230.99998474121094 86.00000762939453 236.66665649414062 Q 86.33334350585938 242.3333282470703 86.50000762939453 247.8333282470703 Q 86.66667175292969 253.3333282470703 86.83333587646484 263 Q 87 272.6666717529297 87 281.1666717529297 L 87 289.68667175292967" stroke-linecap="round" />
</g>
<g transform="matrix(1 0 0 1 116.67 136.5)"  >
<path style="stroke: rgb(0,0,0); stroke-width: 20; stroke-dasharray: none; stroke-linecap: round; stroke-dashoffset: 0; stroke-linejoin: round; stroke-miterlimit: 10; fill: none; fill-rule: nonzero; opacity: 1;"  transform=" translate(-116.67, -136.5)" d="M 80.31334350585938 183.6866717529297 Q 80.33334350585938 183.6666717529297 80.33334350585938 183.1666717529297 Q 80.33334350585938 182.6666717529297 84.16667175292969 175.3333282470703 Q 88 167.99998474121094 95.66667175292969 157.66665649414062 Q 103.33334350585938 147.3333282470703 113.16667175292969 135.3333282470703 Q 123 123.33332824707031 128.5 117.16665649414062 Q 134 110.99998474121094 143.5 100.16665649414062 L 153.02 89.31332824707032" stroke-linecap="round" />
</g>
<g transform="matrix(1 0 0 1 143.15 229.25)"  >
<path style="stroke: rgb(0,0,0); stroke-width: 20; stroke-dasharray: none; stroke-linecap: round; stroke-dashoffset: 0; stroke-linejoin: round; stroke-miterlimit: 10; fill: none; fill-rule: nonzero; opacity: 1;"  transform=" translate(-143.15, -229.25)" d="M 93.66667175292969 183.01998474121095 Q 93.66667175292969 182.99998474121094 93.66667175292969 182.3333282470703 Q 93.66667175292969 181.6666717529297 93.66667175292969 180.6666717529297 Q 93.66667175292969 179.6666717529297 93.33333587646484 178.8333282470703 Q 93 177.99998474121094 92.33333587646484 177.3333282470703 Q 91.66667175292969 176.6666717529297 91.16667175292969 176.6666717529297 Q 90.66667175292969 176.6666717529297 90.33333587646484 177.5 Q 90 178.3333282470703 90.33333587646484 179 Q 90.66667175292969 179.6666717529297 92.66667175292969 180.5 Q 94.66667175292969 181.3333282470703 99.66667175292969 181.8333282470703 Q 104.66667175292969 182.3333282470703 124.00000762939453 179.5 Q 143.33334350585938 176.6666717529297 153.6666717529297 174.6666717529297 Q 164 172.6666717529297 172.5 171 Q 181 169.3333282470703 187.1666717529297 168.8333282470703 Q 193.33334350585938 168.3333282470703 194.33334350585938 169 Q 195.33334350585938 169.6666717529297 195.83334350585938 171.3333282470703 Q 196.33334350585938 172.99998474121094 195.83334350585938 180.16665649414062 Q 195.33334350585938 187.3333282470703 192.00001525878906 197.66665649414062 Q 188.66668701171875 207.99998474121094 184.83334350585938 219.16665649414062 Q 181 230.3333282470703 174.6666717529297 250.5 Q 168.33334350585938 270.6666717529297 167.1666717529297 275.6666717529297 Q 166 280.6666717529297 165.33333587646484 285.3333282470703 L 164.64667175292968 290.0199847412109" stroke-linecap="round" />
</g>
</svg>