<?xml version="1.0" encoding="UTF-8" standalone="no" ?>
<!DOCTYPE svg PUBLIC "-//W3C//DTD SVG 1.1//EN" "http://www.w3.org/Graphics/SVG/1.1/DTD/svg11.dtd">
<svg xmlns="http://www.w3.org/2000/svg" xmlns:xlink="http://www.w3.org/1999/xlink" version="1.1" width="200" height="300" viewBox="0 0 200 300" xml:space="preserve">
<desc>Created with Fabric.js 4.6.0</desc>
<defs>
</defs>
<g transform="matrix(1 0 0 1 73.26 137.66)"  >
<path style="stroke: rgb(0,0,0); stroke-width: 20; stroke-dasharray: none; stroke-linecap: round; stroke-dashoffset: 0; stroke-linejoin: round; stroke-miterlimit: 10; fill: none; fill-rule: nonzero; opacity: 1;"  transform=" translate(-73.26, -137.66)" d="M 54.75 56.646687011718754 Q 54.75 56.66668701171876 54.25 56.66668701171876 Q 53.75000000000001 56.66668701171876 53.75000000000001 58.16668701171875 Q 53.75000000000001 59.66668701171875 53.25 63.16668701171875 Q 52.75 66.66668701171875 52.25 70.66668701171875 Q 51.75 74.66668701171875 51.75 81.16668701171875 Q 51.75 87.66668701171875 51.75 92.16668701171875 Q 51.75 96.66668701171875 52.25 101.66668701171875 Q 52.75 106.66668701171876 53.25 113.16668701171875 Q 53.75000000000001 119.66668701171875 53.75000000000001 122.66668701171875 Q 53.75000000000001 125.66668701171875 54.25 129.16668701171875 Q 54.75 132.66668701171875 55.75 138.16668701171875 Q 56.75000000000001 143.66668701171875 56.75000000000001 146.66668701171875 Q 56.75000000000001 149.66668701171875 56.75000000000001 152.66668701171875 Q 56.75000000000001 155.66668701171878 56.75000000000001 159.66668701171875 Q 56.75000000000001 163.66668701171875 56.75000000000001 166.16668701171875 Q 56.75000000000001 168.66668701171875 56.75000000000001 169.66668701171875 Q 56.75000000000001 170.66668701171878 56.75000000000001 173.16668701171875 Q 56.75000000000001 175.66668701171875 56.75000000000001 176.66668701171875 Q 56.75000000000001 177.66668701171875 56.75000000000001 179.66668701171875 Q 56.75000000000001 181.66668701171875 56.75000000000001 183.66668701171875 Q 56.75000000000001 185.66668701171878 56.75000000000001 187.16668701171878 Q 56.75000000000001 188.66668701171878 56.75000000000001 189.66668701171875 Q 56.75000000000001 190.66668701171875 56.75000000000001 191.66668701171875 Q 56.75000000000001 192.66668701171875 57.25 193.16668701171875 Q 57.75 193.66668701171875 57.75 194.66668701171875 Q 57.75 195.66668701171875 59.25 198.16668701171875 Q 60.75 200.66668701171878 61.25 203.16668701171875 Q 61.75 205.66668701171875 62.25 207.16668701171875 Q 62.75 208.66668701171875 62.75 209.66668701171875 Q 62.75 210.66668701171875 63.25 211.16668701171875 Q 63.75 211.66668701171875 63.75 212.16668701171875 Q 63.75 212.66668701171878 64.25 213.16668701171875 Q 64.75 213.66668701171875 64.75 214.16668701171875 Q 64.75 214.66668701171875 65.25 215.16668701171875 Q 65.75 215.66668701171878 66.25 215.66668701171878 Q 66.75 215.66668701171878 67.25 216.16668701171875 Q 67.75 216.66668701171875 68.25 217.16668701171875 Q 68.75 217.66668701171875 69.75 217.66668701171875 Q 70.75 217.66668701171875 70.75 218.16668701171875 Q 70.75 218.66668701171878 71.25 218.66668701171878 Q 71.75 218.66668701171878 72.25 218.66668701171878 Q 72.75 218.66668701171878 74.25 218.66668701171878 Q 75.75 218.66668701171878 76.25 218.16668701171875 Q 76.75 217.66668701171875 77.75 217.16668701171875 Q 78.75 216.66668701171875 79.75 216.16668701171875 Q 80.75 215.66668701171878 82.25 215.16668701171875 Q 83.75 214.66668701171875 87.25 212.66668701171875 Q 90.75 210.66668701171875 92.75 208.66668701171875 L 94.77000000000001 206.64668701171877" stroke-linecap="round" />
</g>
</svg>