<?xml version="1.0" encoding="UTF-8" standalone="no" ?>
<!DOCTYPE svg PUBLIC "-//W3C//DTD SVG 1.1//EN" "http://www.w3.org/Graphics/SVG/1.1/DTD/svg11.dtd">
<svg xmlns="http://www.w3.org/2000/svg" xmlns:xlink="http://www.w3.org/1999/xlink" version="1.1" width="200" height="300" viewBox="0 0 200 300" xml:space="preserve">
<desc>Created with Fabric.js 4.4.0</desc>
<defs>
</defs>
<g transform="matrix(1 0 0 1 119.05 143.49)"  >
<path style="stroke: rgb(0,0,0); stroke-width: 20; stroke-dasharray: none; stroke-linecap: round; stroke-dashoffset: 0; stroke-linejoin: round; stroke-miterlimit: 10; fill: none; fill-rule: nonzero; opacity: 1;"  transform=" translate(-119.05, -143.49)" d="M 97.35334350585937 33.646679382324216 Q 97.33334350585938 33.66667938232422 97.50000762939453 34.833335876464844 Q 97.66667175292969 35.99999237060547 97.33333587646484 42.833335876464844 Q 97 49.66667938232422 92.5 79.33333587646484 Q 88 108.99999237060547 85.33333587646484 124.66666412353516 Q 82.66667175292969 140.33333587646484 79.66667175292969 153.66665649414062 Q 76.66667175292969 166.9999771118164 72.50000762939453 183.4999771118164 Q 68.33334350585938 199.9999771118164 64.83334350585938 212.66666412353516 Q 61.333343505859375 225.3333511352539 59.16667175292969 231.8333511352539 Q 57 238.3333511352539 55.5 242.50000762939453 Q 54 246.66666412353516 53.333335876464844 249.00000762939453 Q 52.66667175292969 251.3333511352539 52.500003814697266 252.3333511352539 Q 52.333335876464844 253.3333511352539 53.000003814697266 253.3333511352539 Q 53.66667175292969 253.3333511352539 56.333335876464844 251.8333511352539 Q 59 250.3333511352539 66.16667175292969 246.8333511352539 Q 73.33334350585938 243.3333511352539 83.16667175292969 239.16666412353516 Q 93 234.9999771118164 103.83333587646484 231.16666412353516 Q 114.66667175292969 227.3333511352539 125.66667175292969 224.3333511352539 Q 136.6666717529297 221.3333511352539 146.83333587646484 219.16666412353516 Q 157 216.9999771118164 165.33333587646484 215.66666412353516 Q 173.6666717529297 214.3333511352539 179.66667938232422 213.50000762939453 L 185.68668701171876 212.64666412353515" stroke-linecap="round" />
</g>
</svg>