<?xml version="1.0" encoding="UTF-8" standalone="no" ?>
<!DOCTYPE svg PUBLIC "-//W3C//DTD SVG 1.1//EN" "http://www.w3.org/Graphics/SVG/1.1/DTD/svg11.dtd">
<svg xmlns="http://www.w3.org/2000/svg" xmlns:xlink="http://www.w3.org/1999/xlink" version="1.1" width="200" height="300" viewBox="0 0 200 300" xml:space="preserve">
<desc>Created with Fabric.js 4.4.0</desc>
<defs>
</defs>
<g transform="matrix(1 0 0 1 106.79 163.25)"  >
<path style="stroke: rgb(0,0,0); stroke-width: 20; stroke-dasharray: none; stroke-linecap: round; stroke-dashoffset: 0; stroke-linejoin: round; stroke-miterlimit: 10; fill: none; fill-rule: nonzero; opacity: 1;"  transform=" translate(-106.79, -163.25)" d="M 23.646671752929688 263.68666412353514 Q 23.666671752929688 263.66666412353516 24.500003814697266 261.8333206176758 Q 25.333335876464844 259.9999771118164 39.000003814697266 235.16666412353516 Q 52.66667175292969 210.3333511352539 63.333335876464844 189.1666717529297 Q 74 167.99999237060547 80.5 154.33333587646484 Q 87 140.66667938232422 94.66667175292969 123.66667938232422 Q 102.33334350585938 106.66667938232422 105.50000762939453 98.16667938232422 Q 108.66667175292969 89.66667938232422 111.00000762939453 83.33333587646484 Q 113.33334350585938 76.99999237060547 114.83334350585938 71.66666412353516 Q 116.33334350585938 66.33333587646484 116.66667175292969 65.00000762939453 Q 117 63.66667938232422 117 63.16667938232422 Q 117 62.66667938232422 116.83333587646484 63.333335876464844 Q 116.66667175292969 63.99999237060547 115.83333587646484 68.66666412353516 Q 115 73.33333587646484 114.5 77.00000762939453 Q 114 80.66667938232422 113 90.00000762939453 Q 112 99.33333587646484 111.16667175292969 110.16666412353516 Q 110.33334350585938 120.99999237060547 109.83334350585938 130.99999237060547 Q 109.33334350585938 140.99999237060547 109.33334350585938 150.83333587646484 Q 109.33334350585938 160.66667938232422 109.33334350585938 172.00001525878906 Q 109.33334350585938 183.3333511352539 109.50000762939453 186.16666412353516 Q 109.66667175292969 188.9999771118164 110.33333587646484 193.4999771118164 Q 111 197.9999771118164 111.66667175292969 200.66666412353516 Q 112.33334350585938 203.3333511352539 115.16667175292969 204.3333511352539 Q 118 205.3333511352539 120.33333587646484 203.3333511352539 Q 122.66667175292969 201.3333511352539 127.00000762939453 194.8333511352539 Q 131.33334350585938 188.3333511352539 136.1666717529297 179.00001525878906 Q 141 169.66667938232422 145.1666717529297 159.83333587646484 Q 149.33334350585938 149.99999237060547 153.6666717529297 140.49999237060547 Q 158 130.99999237060547 162 122.16666412353516 Q 166 113.33333587646484 169.33333587646484 105.83333587646484 Q 172.6666717529297 98.33333587646484 175.33333587646484 92.66666412353516 Q 178 86.99999237060547 180.1666717529297 82.83333587646484 Q 182.33334350585938 78.66667938232422 184.33334350585938 75.16667938232422 Q 186.33334350585938 71.66667938232422 187.00001525878906 70.83333587646484 Q 187.66668701171875 69.99999237060547 187.83334350585938 69.83333587646484 Q 188 69.66667938232422 188.33334350585938 69.50000762939453 Q 188.66668701171875 69.33333587646484 189.16668701171875 71.00000762939453 Q 189.66668701171875 72.66667938232422 189.83334350585938 78.16667938232422 Q 190 83.66667938232422 189.5 92.83333587646484 Q 189 101.99999237060547 188.1666717529297 112.33333587646484 Q 187.33334350585938 122.66667938232422 186.33334350585938 133.50000762939453 Q 185.33334350585938 144.33333587646484 184.00000762939453 158.5 Q 182.6666717529297 172.66666412353516 181.50000762939453 186.83332061767578 Q 180.33334350585938 200.9999771118164 179.83334350585938 209.66666412353516 Q 179.33334350585938 218.3333511352539 179.1666717529297 225.3333511352539 Q 179 232.3333511352539 179.1666717529297 237.66666412353516 Q 179.33334350585938 242.9999771118164 180.1666717529297 247.83332061767578 L 181.02 252.68666412353517" stroke-linecap="round" />
</g>
</svg>