<?xml version="1.0" encoding="UTF-8" standalone="no" ?>
<!DOCTYPE svg PUBLIC "-//W3C//DTD SVG 1.1//EN" "http://www.w3.org/Graphics/SVG/1.1/DTD/svg11.dtd">
<svg xmlns="http://www.w3.org/2000/svg" xmlns:xlink="http://www.w3.org/1999/xlink" version="1.1" width="200" height="300" viewBox="0 0 200 300" xml:space="preserve">
<desc>Created with Fabric.js 4.6.0</desc>
<defs>
</defs>
<g transform="matrix(1 0 0 1 90.5 163.5)"  >
<path style="stroke: rgb(0,0,0); stroke-width: 20; stroke-dasharray: none; stroke-linecap: round; stroke-dashoffset: 0; stroke-linejoin: round; stroke-miterlimit: 10; fill: none; fill-rule: nonzero; opacity: 1;"  transform=" translate(-90.5, -163.5)" d="M 23.5 122.98 Q 23.5 123 24 124 Q 24.5 125 24.5 126 Q 24.5 127 25 127.5 Q 25.5 128 25.5 130 Q 25.5 132 26.5 134 Q 27.5 136 27.5 138 Q 27.5 140 28 141 Q 28.5 142 28.5 144.5 Q 28.5 147 29 148.5 Q 29.5 150 29.5 151.5 Q 29.5 153 30.5 156.5 Q 31.5 160 32 162 Q 32.5 164 32.5 166 Q 32.5 168 32.5 169 Q 32.5 170 32.5 171 Q 32.5 172 32.5 172.5 Q 32.5 173 33 174 Q 33.5 175 33.5 175.5 Q 33.5 176 34 176.5 Q 34.5 177 34.5 177.5 Q 34.5 178 35 178.5 Q 35.5 179 35.5 179.5 Q 35.5 180 35.5 180.5 Q 35.5 181 35.5 181.5 Q 35.5 182 35.5 182.5 Q 35.5 183 35.5 183.5 Q 35.5 184 35.5 184.5 Q 35.5 185 35.5 185.5 Q 35.5 186 35.5 186.5 Q 35.5 187 36 187.5 Q 36.5 188 36.5 187.5 Q 36.5 187 36.5 186 Q 36.5 185 36.5 184.5 Q 36.5 184 36.5 183.5 Q 36.5 183 36.5 181.5 Q 36.5 180 36.5 179.5 Q 36.5 179 36.5 178 Q 36.5 177 36.5 176.5 Q 36.5 176 36.5 175.5 Q 36.5 175 36.5 174.5 Q 36.5 174 36.5 173.5 Q 36.5 173 37 171 Q 37.5 169 37.5 168.5 Q 37.5 168 37.5 167 Q 37.5 166 37.5 165 Q 37.5 164 37.5 163.5 Q 37.5 163 37.5 162.5 Q 37.5 162 37.5 161.5 Q 37.5 161 38 160 Q 38.5 159 39.5 158 Q 40.5 157 41 156 Q 41.5 155 42 153.5 Q 42.5 152 43 151.5 Q 43.5 151 43.5 150.5 Q 43.5 150 44 149.5 Q 44.5 149 45 148 Q 45.5 147 46 146.5 Q 46.5 146 47.5 145 Q 48.5 144 48.5 143.5 Q 48.5 143 49.5 142.5 Q 50.5 142 51.5 141 Q 52.5 140 53 139.5 Q 53.5 139 54 139 Q 54.5 139 54.5 138.5 Q 54.5 138 55 138 Q 55.5 138 56 137.5 Q 56.5 137 57 137 Q 57.5 137 57.5 136.5 Q 57.5 136 58 136 Q 58.5 136 59 136 Q 59.5 136 60 136 Q 60.5 136 61.5 135.5 Q 62.5 135 63.5 135 Q 64.5 135 65 135 Q 65.5 135 66 135.5 Q 66.5 136 67 136 Q 67.5 136 68 136.5 Q 68.5 137 69.5 138 Q 70.5 139 71.5 139.5 Q 72.5 140 73.5 141 Q 74.5 142 75.5 142.5 Q 76.5 143 77 143.5 Q 77.5 144 78 145 Q 78.5 146 79.5 146.5 Q 80.5 147 81 147.5 Q 81.5 148 82 149 Q 82.5 150 82.5 150.5 Q 82.5 151 83 151.5 Q 83.5 152 83.5 152.5 Q 83.5 153 84 154 Q 84.5 155 85 155.5 Q 85.5 156 85.5 157 Q 85.5 158 85.5 159 Q 85.5 160 85.5 161 Q 85.5 162 85.5 163 Q 85.5 164 85.5 165 Q 85.5 166 85.5 166.5 Q 85.5 167 85.5 168 Q 85.5 169 85.5 170.5 Q 85.5 172 85.5 173 Q 85.5 174 85.5 175 Q 85.5 176 85.5 177.5 Q 85.5 179 85.5 179.5 Q 85.5 180 85.5 180.5 Q 85.5 181 85.5 182 Q 85.5 183 85.5 183.5 Q 85.5 184 85.5 184.5 Q 85.5 185 85.5 186.5 Q 85.5 188 85.5 188.5 Q 85.5 189 85.5 190 Q 85.5 191 85.5 191.5 Q 85.5 192 85.5 192.5 Q 85.5 193 85.5 192.5 Q 85.5 192 85.5 191.5 Q 85.5 191 85.5 190.5 Q 85.5 190 85.5 188 Q 85.5 186 85.5 184 Q 85.5 182 85.5 181.5 Q 85.5 181 85.5 180 Q 85.5 179 85.5 178.5 Q 85.5 178 85.5 177 Q 85.5 176 85.5 174.5 Q 85.5 173 86 171 Q 86.5 169 87 167.5 Q 87.5 166 87.5 165 Q 87.5 164 87.5 163.5 Q 87.5 163 87.5 162.5 Q 87.5 162 87.5 160.5 Q 87.5 159 88 158.5 Q 88.5 158 88.5 157 Q 88.5 156 89 155 Q 89.5 154 89.5 153.5 Q 89.5 153 90 152 Q 90.5 151 91.5 150 Q 92.5 149 93 147.5 Q 93.5 146 94.5 145 Q 95.5 144 96.5 143.5 Q 97.5 143 99 142 Q 100.5 141 101.5 140.5 Q 102.5 140 104 139 Q 105.5 138 107 137.5 Q 108.5 137 109.5 136.5 Q 110.5 136 112 135.5 Q 113.5 135 115 134.5 Q 116.5 134 117.5 133.5 Q 118.5 133 119.5 133 Q 120.5 133 122.5 133 Q 124.5 133 126 133 Q 127.5 133 129 133 Q 130.5 133 131.5 133 Q 132.5 133 133.5 133 Q 134.5 133 135.5 133 Q 136.5 133 137 133 Q 137.5 133 138 133 Q 138.5 133 139.5 133 Q 140.5 133 141 133 Q 141.5 133 142 133 Q 142.5 133 143 133 Q 143.5 133 144 133 Q 144.5 133 145.5 134 Q 146.5 135 146.5 135.5 Q 146.5 136 147.5 137.5 Q 148.5 139 149 140 Q 149.5 141 149.5 142.5 Q 149.5 144 150 146.5 Q 150.5 149 151 151 Q 151.5 153 152 155.5 Q 152.5 158 153.5 161.5 Q 154.5 165 154.5 166.5 Q 154.5 168 154.5 168.5 Q 154.5 169 155 170.5 Q 155.5 172 156 173 Q 156.5 174 156.5 174.5 Q 156.5 175 157 176.5 Q 157.5 178 157.5 178.5 Q 157.5 179 157.5 179.5 Q 157.5 180 157.5 180.5 Q 157.5 181 157.5 181.5 Q 157.5 182 157.5 182.5 Q 157.5 183 157.5 184 Q 157.5 185 157.5 185.5 Q 157.5 186 157.5 186.5 Q 157.5 187 157.5 187.5 Q 157.5 188 157.5 188.5 Q 157.5 189 157.5 189.5 Q 157.5 190 157.5 190.5 Q 157.5 191 157.5 191.5 Q 157.5 192 157.5 193 Q 157.5 194 157.5 194.5 Q 157.5 195 157.5 195.5 Q 157.5 196 157.5 196.5 Q 157.5 197 157.5 197.5 Q 157.5 198 157.5 198.5 Q 157.5 199 157.5 200 Q 157.5 201 157.5 201.5 Q 157.5 202 157.5 203 L 157.5 204.02" stroke-linecap="round" />
</g>
</svg>