<?xml version="1.0" encoding="UTF-8" standalone="no" ?>
<!DOCTYPE svg PUBLIC "-//W3C//DTD SVG 1.1//EN" "http://www.w3.org/Graphics/SVG/1.1/DTD/svg11.dtd">
<svg xmlns="http://www.w3.org/2000/svg" xmlns:xlink="http://www.w3.org/1999/xlink" version="1.1" width="200" height="300" viewBox="0 0 200 300" xml:space="preserve">
<desc>Created with Fabric.js 4.4.0</desc>
<defs>
</defs>
<g transform="matrix(1 0 0 1 128.33 168.82)"  >
<path style="stroke: rgb(0,0,0); stroke-width: 20; stroke-dasharray: none; stroke-linecap: round; stroke-dashoffset: 0; stroke-linejoin: round; stroke-miterlimit: 10; fill: none; fill-rule: nonzero; opacity: 1;"  transform=" translate(-128.33, -168.82)" d="M 33.31333587646484 288.0199847412109 Q 33.333335876464844 287.99998474121094 33.333335876464844 287.3333282470703 Q 33.333335876464844 286.6666717529297 39.333335876464844 269.6666717529297 Q 45.333335876464844 252.6666717529297 55.66666793823242 229.1666717529297 Q 66 205.6666717529297 73.66667175292969 188.5 Q 81.33334350585938 171.3333282470703 93.33334350585938 144.16665649414062 Q 105.33334350585938 116.99998474121094 113.33334350585938 98.99998474121094 Q 121.33334350585938 80.99998474121094 124.16667175292969 74.66665649414062 Q 127 68.33332824707031 130.83333587646484 61.166656494140625 Q 134.6666717529297 53.99998474121094 135.83333587646484 52.33332824707031 Q 137 50.66667175292969 137.6666717529297 50 Q 138.33334350585938 49.33332824707031 139.6666717529297 51.666656494140625 Q 141 53.99998474121094 140.5 63.49998474121094 Q 140 72.99998474121094 138.33333587646484 85.83332824707031 Q 136.6666717529297 98.66667175292969 134.83333587646484 112.16667175292969 Q 133 125.66667175292969 130.33333587646484 151.6666717529297 Q 127.66667175292969 177.6666717529297 126.66667175292969 189 Q 125.66667175292969 200.3333282470703 125.50000762939453 216.16665649414062 Q 125.33334350585938 231.99998474121094 125.66667175292969 236.49998474121094 Q 126 240.99998474121094 126.33333587646484 243.99998474121094 Q 126.66667175292969 246.99998474121094 127.00000762939453 248.8333282470703 Q 127.33334350585938 250.6666717529297 127.50000762939453 250.5 Q 127.66667175292969 250.3333282470703 128.83333587646484 248.8333282470703 Q 130 247.3333282470703 142.5 222.8333282470703 Q 155 198.3333282470703 163.5 180 Q 172 161.6666717529297 187.83334350585938 130.3333282470703 Q 203.66668701171875 98.99998474121094 209.33334350585938 87.99998474121094 Q 215 76.99998474121094 219.1666717529297 69.99998474121094 L 223.35334350585939 62.979984741210934" stroke-linecap="round" />
</g>
</svg>