<?xml version="1.0" encoding="UTF-8" standalone="no" ?>
<!DOCTYPE svg PUBLIC "-//W3C//DTD SVG 1.1//EN" "http://www.w3.org/Graphics/SVG/1.1/DTD/svg11.dtd">
<svg xmlns="http://www.w3.org/2000/svg" xmlns:xlink="http://www.w3.org/1999/xlink" version="1.1" width="200" height="300" viewBox="0 0 200 300" xml:space="preserve">
<desc>Created with Fabric.js 4.6.0</desc>
<defs>
</defs>
<g transform="matrix(1 0 0 1 89.01 153)"  >
<path style="stroke: rgb(0,0,0); stroke-width: 20; stroke-dasharray: none; stroke-linecap: round; stroke-dashoffset: 0; stroke-linejoin: round; stroke-miterlimit: 10; fill: none; fill-rule: nonzero; opacity: 1;"  transform=" translate(-89.01, -153)" d="M 26.5 107.98 Q 26.5 108 26.5 108.5 Q 26.5 109 26.5 109.5 Q 26.5 110 27.5 114.5 Q 28.5 119 28.5 121 Q 28.5 123 29 125 Q 29.5 127 30 130 Q 30.5 133 30.5 135 Q 30.5 137 30.5 138.5 Q 30.5 140 31 143 Q 31.5 146 32 148 Q 32.5 150 33 152.5 Q 33.5 155 34 156.5 Q 34.5 158 34.5 159 Q 34.5 160 35 162 Q 35.5 164 36 165 Q 36.5 166 36.5 167 Q 36.5 168 36.5 169 Q 36.5 170 36.5 170.5 Q 36.5 171 36.5 171.5 Q 36.5 172 36.5 172.5 Q 36.5 173 36.5 173.5 Q 36.5 174 36.5 174.5 Q 36.5 175 37 175.5 Q 37.5 176 38 178 Q 38.5 180 39 181 Q 39.5 182 39.5 183.5 Q 39.5 185 39.5 185.5 Q 39.5 186 39.5 186.5 Q 39.5 187 39.5 188 Q 39.5 189 39.5 189.5 Q 39.5 190 39.5 190.5 Q 39.5 191 40 191.5 Q 40.5 192 41 192.5 Q 41.5 193 41.5 193.5 Q 41.5 194 42 194.5 Q 42.5 195 42.5 195.5 Q 42.5 196 42.5 195.5 Q 42.5 195 42.5 194 Q 42.5 193 42.5 192.5 Q 42.5 192 42.5 190.5 Q 42.5 189 42.5 187 Q 42.5 185 42.5 183 Q 42.5 181 42.5 179.5 Q 42.5 178 42.5 177.5 Q 42.5 177 42.5 176 Q 42.5 175 42.5 174 Q 42.5 173 43 171.5 Q 43.5 170 43.5 169 Q 43.5 168 44 166.5 Q 44.5 165 44.5 164.5 Q 44.5 164 44.5 163 Q 44.5 162 45 161 Q 45.5 160 46 158 Q 46.5 156 47 155 Q 47.5 154 48 153 Q 48.5 152 48.5 151.5 Q 48.5 151 49 150 Q 49.5 149 50 148.5 Q 50.5 148 50.5 147.5 Q 50.5 147 51.5 146 Q 52.5 145 53 144.5 Q 53.5 144 54 143.5 Q 54.5 143 55 142 Q 55.5 141 57.5 139.5 Q 59.5 138 60.5 137.5 Q 61.5 137 63 136 Q 64.5 135 65.5 135 Q 66.5 135 67 134.5 Q 67.5 134 68 133.5 Q 68.5 133 69.5 132 Q 70.5 131 71.5 130.5 Q 72.5 130 74 129.5 Q 75.5 129 76 128.5 Q 76.5 128 77 127.5 Q 77.5 127 78 126 Q 78.5 125 79 125 Q 79.5 125 80 124.5 Q 80.5 124 81 124 Q 81.5 124 82 123.5 Q 82.5 123 83 122.5 Q 83.5 122 84 122 Q 84.5 122 85 122 Q 85.5 122 86 122 Q 86.5 122 87 122 Q 87.5 122 88.5 122 Q 89.5 122 90.5 122 Q 91.5 122 92 122 Q 92.5 122 94 122 Q 95.5 122 96 122 Q 96.5 122 97.5 122.5 Q 98.5 123 100 123.5 Q 101.5 124 103 124.5 Q 104.5 125 106 126 Q 107.5 127 110.5 128.5 Q 113.5 130 114 130 Q 114.5 130 116 131 Q 117.5 132 118.5 132.5 Q 119.5 133 120.5 133.5 Q 121.5 134 122 134.5 Q 122.5 135 124 135.5 Q 125.5 136 126 136.5 Q 126.5 137 128 138 Q 129.5 139 130 139.5 Q 130.5 140 131 140.5 Q 131.5 141 133 142.5 Q 134.5 144 135 144.5 Q 135.5 145 136.5 146 Q 137.5 147 138 148.5 Q 138.5 150 139.5 151 Q 140.5 152 140.5 152.5 Q 140.5 153 141.5 154.5 Q 142.5 156 143 156.5 Q 143.5 157 144 158.5 Q 144.5 160 145 161 Q 145.5 162 145.5 163.5 Q 145.5 165 146 167 Q 146.5 169 147 170 Q 147.5 171 148 173 Q 148.5 175 149 176 Q 149.5 177 149.5 178 Q 149.5 179 149.5 180.5 Q 149.5 182 149.5 183 Q 149.5 184 149.5 185 Q 149.5 186 149.5 187 Q 149.5 188 149.5 188.5 Q 149.5 189 149.5 189.5 Q 149.5 190 149.5 190.5 Q 149.5 191 149.5 192 Q 149.5 193 149.5 194 Q 149.5 195 149.5 195.5 Q 149.5 196 149.5 196.5 Q 149.5 197 150.5 197.5 L 151.52 198.02" stroke-linecap="round" />
</g>
</svg>