<?xml version="1.0" encoding="UTF-8" standalone="no" ?>
<!DOCTYPE svg PUBLIC "-//W3C//DTD SVG 1.1//EN" "http://www.w3.org/Graphics/SVG/1.1/DTD/svg11.dtd">
<svg xmlns="http://www.w3.org/2000/svg" xmlns:xlink="http://www.w3.org/1999/xlink" version="1.1" width="200" height="300" viewBox="0 0 200 300" xml:space="preserve">
<desc>Created with Fabric.js 4.4.0</desc>
<defs>
</defs>
<g transform="matrix(1 0 0 1 115.33 225.67)"  >
<path style="stroke: rgb(0,0,0); stroke-width: 20; stroke-dasharray: none; stroke-linecap: round; stroke-dashoffset: 0; stroke-linejoin: round; stroke-miterlimit: 10; fill: none; fill-rule: nonzero; opacity: 1;"  transform=" translate(-115.33, -225.67)" d="M 104.68667175292968 108.31332824707032 Q 104.66667175292969 108.33332824707031 103.16667175292969 108.83332824707031 Q 101.66667175292969 109.33332824707031 99.66667175292969 110.83332824707031 Q 97.66667175292969 112.33332824707031 94.16667175292969 116.83332824707031 Q 90.66667175292969 121.33332824707031 88.16667175292969 129.8333282470703 Q 85.66667175292969 138.3333282470703 85.66667175292969 152.3333282470703 Q 85.66667175292969 166.3333282470703 85.66667175292969 184.3333282470703 Q 85.66667175292969 202.3333282470703 85.66667175292969 222.3333282470703 Q 85.66667175292969 242.3333282470703 85.66667175292969 267.3333282470703 Q 85.66667175292969 292.3333282470703 90.16667175292969 310.3333282470703 Q 94.66667175292969 328.3333282470703 102.16667175292969 335.3333282470703 Q 109.66667175292969 342.3333282470703 116.16667175292969 342.8333282470703 Q 122.66667175292969 343.3333282470703 134.1666717529297 336.8333282470703 Q 145.6666717529297 330.3333282470703 155.6666717529297 320.3333282470703 Q 165.6666717529297 310.3333282470703 175.1666717529297 294.3333282470703 Q 184.6666717529297 278.3333282470703 193.6666717529297 256.3333282470703 Q 202.6666717529297 234.3333282470703 206.1666717529297 214.3333282470703 Q 209.6666717529297 194.3333282470703 207.6666717529297 176.3333282470703 Q 205.6666717529297 158.3333282470703 201.1666717529297 145.3333282470703 Q 196.6666717529297 132.3333282470703 188.6666717529297 124.33332824707031 Q 180.6666717529297 116.33332824707031 172.6666717529297 113.33332824707031 Q 164.6666717529297 110.33332824707031 154.6666717529297 110.33332824707031 Q 144.6666717529297 110.33332824707031 132.6666717529297 113.33332824707031 Q 120.66667175292969 116.33332824707031 107.16667175292969 118.83332824707031 Q 93.66667175292969 121.33332824707031 82.66667175292969 123.83332824707031 Q 71.66667175292969 126.33332824707031 59.66667175292969 130.3333282470703 Q 47.66667175292969 134.3333282470703 40.16667175292969 138.8333282470703 Q 32.66667175292969 143.3333282470703 29.666671752929688 146.8333282470703 Q 26.666671752929688 150.3333282470703 24.666671752929688 153.3333282470703 Q 22.666671752929688 156.3333282470703 22.166671752929688 157.3333282470703 L 21.646671752929688 158.35332824707032" stroke-linecap="round" />
</g>
</svg>