<?xml version="1.0" encoding="UTF-8" standalone="no" ?>
<!DOCTYPE svg PUBLIC "-//W3C//DTD SVG 1.1//EN" "http://www.w3.org/Graphics/SVG/1.1/DTD/svg11.dtd">
<svg xmlns="http://www.w3.org/2000/svg" xmlns:xlink="http://www.w3.org/1999/xlink" version="1.1" width="200" height="300" viewBox="0 0 200 300" xml:space="preserve">
<desc>Created with Fabric.js 4.4.0</desc>
<defs>
</defs>
<g transform="matrix(1 0 0 1 94.36 127.95)"  >
<path style="stroke: rgb(0,0,0); stroke-width: 20; stroke-dasharray: none; stroke-linecap: round; stroke-dashoffset: 0; stroke-linejoin: round; stroke-miterlimit: 10; fill: none; fill-rule: nonzero; opacity: 1;"  transform=" translate(-94.36, -127.95)" d="M 146.6866717529297 39.353328247070316 Q 146.6666717529297 39.33332824707031 141.83333587646484 36.33332824707031 Q 137 33.33332824707031 130.33333587646484 30.666656494140625 Q 123.66667175292969 27.999984741210938 116.00000762939453 26.333328247070312 Q 108.33334350585938 24.666671752929688 97.66667175292969 25.833328247070312 Q 87 26.999984741210938 83.66667175292969 28.499984741210938 Q 80.33334350585938 29.999984741210938 72.50000762939453 35.49998474121094 Q 64.66667175292969 40.99998474121094 57.16667175292969 49.49998474121094 Q 49.66667175292969 57.99998474121094 42.833335876464844 69.16665649414062 Q 36 80.33332824707031 31.666667938232422 92 Q 27.333335876464844 103.66667175292969 25.333335876464844 117 Q 23.333335876464844 130.3333282470703 23.333335876464844 143 Q 23.333335876464844 155.6666717529297 25.500003814697266 167.8333282470703 Q 27.666671752929688 179.99998474121094 31.166671752929688 189.66665649414062 Q 34.66667175292969 199.3333282470703 39.000003814697266 206.66665649414062 Q 43.333335876464844 213.99998474121094 48.66666793823242 218.99998474121094 Q 54 223.99998474121094 62.5 227.49998474121094 Q 71 230.99998474121094 80.66667175292969 230.8333282470703 Q 90.33334350585938 230.6666717529297 105.66667175292969 220.6666717529297 Q 121 210.6666717529297 129.33333587646484 200.3333282470703 Q 137.6666717529297 189.99998474121094 143.83333587646484 177.66665649414062 Q 150 165.3333282470703 154.6666717529297 152 Q 159.33334350585938 138.6666717529297 161.83334350585938 126 Q 164.33334350585938 113.33332824707031 165.00000762939453 96.16665649414062 Q 165.6666717529297 78.99998474121094 163.33333587646484 67.33332824707031 Q 161 55.66667175292969 157.5 49.83332824707031 Q 154 43.99998474121094 143.83333587646484 41.166656494140625 L 133.64667175292968 38.31332824707031" stroke-linecap="round" />
</g>
</svg>