<?xml version="1.0" encoding="UTF-8" standalone="no" ?>
<!DOCTYPE svg PUBLIC "-//W3C//DTD SVG 1.1//EN" "http://www.w3.org/Graphics/SVG/1.1/DTD/svg11.dtd">
<svg xmlns="http://www.w3.org/2000/svg" xmlns:xlink="http://www.w3.org/1999/xlink" version="1.1" width="200" height="300" viewBox="0 0 200 300" xml:space="preserve">
<desc>Created with Fabric.js 4.6.0</desc>
<defs>
</defs>
<g transform="matrix(1 0 0 1 101 153.49)"  >
<path style="stroke: rgb(0,0,0); stroke-width: 20; stroke-dasharray: none; stroke-linecap: round; stroke-dashoffset: 0; stroke-linejoin: round; stroke-miterlimit: 10; fill: none; fill-rule: nonzero; opacity: 1;"  transform=" translate(-101, -153.49)" d="M 91.52 109 Q 91.5 109 91 109 Q 90.5 109 90 109 Q 89.5 109 89 109 Q 88.5 109 87.5 109.5 Q 86.5 110 86 110 Q 85.5 110 85.5 110.5 Q 85.5 111 84.5 111 Q 83.5 111 83.5 111.5 Q 83.5 112 82.5 112.5 Q 81.5 113 81 113 Q 80.5 113 80 113.5 Q 79.5 114 79 114.5 Q 78.5 115 77.5 115.5 Q 76.5 116 75.5 116.5 Q 74.5 117 74 117.5 Q 73.5 118 73 118 Q 72.5 118 72.5 118.5 Q 72.5 119 72 119.5 Q 71.5 120 70.5 120.5 Q 69.5 121 69.5 121.5 Q 69.5 122 69 122.5 Q 68.5 123 68.5 123.5 Q 68.5 124 68 124.5 Q 67.5 125 67 125.5 Q 66.5 126 66 127 Q 65.5 128 65 128.5 Q 64.5 129 64 129.5 Q 63.5 130 63 130.5 Q 62.5 131 62.5 131.5 Q 62.5 132 62 132.5 Q 61.5 133 61.5 133.5 Q 61.5 134 61 134 Q 60.5 134 60.5 134.5 Q 60.5 135 60.5 135.5 Q 60.5 136 60.5 136.5 Q 60.5 137 60 137 Q 59.5 137 59 137.5 Q 58.5 138 58.5 138.5 Q 58.5 139 58.5 139.5 Q 58.5 140 58 140.5 Q 57.5 141 57.5 141.5 Q 57.5 142 57.5 142.5 Q 57.5 143 57 143.5 Q 56.5 144 56.5 144.5 Q 56.5 145 56.5 146 Q 56.5 147 56.5 147.5 Q 56.5 148 56.5 149 Q 56.5 150 56.5 150.5 Q 56.5 151 56.5 152 Q 56.5 153 56.5 154 Q 56.5 155 56.5 156 Q 56.5 157 56.5 158 Q 56.5 159 56.5 160.5 Q 56.5 162 57 163 Q 57.5 164 57.5 165 Q 57.5 166 58 167 Q 58.5 168 59 169 Q 59.5 170 59.5 171 Q 59.5 172 60 173 Q 60.5 174 60.5 174.5 Q 60.5 175 61 176 Q 61.5 177 62 177.5 Q 62.5 178 62.5 178.5 Q 62.5 179 63 180 Q 63.5 181 64 182 Q 64.5 183 65 184 Q 65.5 185 66.5 186 Q 67.5 187 68 187.5 Q 68.5 188 69 188.5 Q 69.5 189 70 189.5 Q 70.5 190 71 190.5 Q 71.5 191 72 191.5 Q 72.5 192 73.5 192.5 Q 74.5 193 75 193 Q 75.5 193 76.5 193.5 Q 77.5 194 78.5 194.5 Q 79.5 195 80.5 195.5 Q 81.5 196 82 196.5 Q 82.5 197 83 197 Q 83.5 197 84 197 Q 84.5 197 85 197 Q 85.5 197 86 197.5 Q 86.5 198 87.5 198 Q 88.5 198 89 198 Q 89.5 198 90 198 Q 90.5 198 91.5 198 Q 92.5 198 93 198 Q 93.5 198 94 198 Q 94.5 198 95 198 Q 95.5 198 96.5 198 Q 97.5 198 98.5 198 Q 99.5 198 100 198 Q 100.5 198 101.5 198 Q 102.5 198 103 198 Q 103.5 198 104 198 Q 104.5 198 105.5 197.5 Q 106.5 197 107.5 196.5 Q 108.5 196 109.5 196 Q 110.5 196 111.5 195.5 Q 112.5 195 113.5 194.5 Q 114.5 194 115 194 Q 115.5 194 116.5 193.5 Q 117.5 193 118.5 193 Q 119.5 193 122 192 Q 124.5 191 127 190 Q 129.5 189 131.5 188 Q 133.5 187 135 186 Q 136.5 185 137 185 Q 137.5 185 137.5 184.5 Q 137.5 184 138 183.5 Q 138.5 183 139 183 Q 139.5 183 140.5 182 Q 141.5 181 142 180.5 Q 142.5 180 143 179 Q 143.5 178 144 178 Q 144.5 178 144.5 177.5 Q 144.5 177 144.5 176.5 Q 144.5 176 144.5 175.5 Q 144.5 175 144.5 174.5 Q 144.5 174 144.5 173.5 Q 144.5 173 144.5 172.5 Q 144.5 172 144.5 171 Q 144.5 170 145 169.5 Q 145.5 169 145.5 168 Q 145.5 167 145.5 166.5 Q 145.5 166 145.5 165.5 Q 145.5 165 145 163.5 Q 144.5 162 144 161.5 Q 143.5 161 143.5 160 Q 143.5 159 143.5 158.5 Q 143.5 158 143 157.5 Q 142.5 157 142 156 Q 141.5 155 141.5 154.5 Q 141.5 154 141.5 153.5 Q 141.5 153 141 152.5 Q 140.5 152 140.5 151.5 Q 140.5 151 140.5 150.5 Q 140.5 150 140 149.5 Q 139.5 149 139 149 Q 138.5 149 138.5 148.5 Q 138.5 148 138.5 147.5 Q 138.5 147 138 147 Q 137.5 147 137.5 146.5 Q 137.5 146 137 145 Q 136.5 144 136 143.5 Q 135.5 143 135 142 Q 134.5 141 134 140.5 Q 133.5 140 133.5 139.5 Q 133.5 139 133 138 Q 132.5 137 132 136.5 Q 131.5 136 131.5 135.5 Q 131.5 135 131 134 Q 130.5 133 130 132.5 Q 129.5 132 129 131.5 Q 128.5 131 128 130.5 Q 127.5 130 127 129.5 Q 126.5 129 125.5 128 Q 124.5 127 124 127 Q 123.5 127 122.5 126 Q 121.5 125 121 125 Q 120.5 125 120 124.5 Q 119.5 124 118.5 123.5 Q 117.5 123 117 122.5 Q 116.5 122 116.5 121.5 Q 116.5 121 115 120.5 Q 113.5 120 113 119.5 Q 112.5 119 112 119 Q 111.5 119 110.5 118 Q 109.5 117 109 117 Q 108.5 117 107.5 116.5 Q 106.5 116 106.5 115.5 Q 106.5 115 106 115 Q 105.5 115 104.5 114.5 Q 103.5 114 103 113.5 Q 102.5 113 102 113 Q 101.5 113 101 113 Q 100.5 113 100 112.5 Q 99.5 112 99 112 Q 98.5 112 97.5 111.5 Q 96.5 111 96 110.5 Q 95.5 110 95 110 Q 94.5 110 94 110 Q 93.5 110 93 109.5 L 92.48 108.98" stroke-linecap="round" />
</g>
</svg>