<?xml version="1.0" encoding="UTF-8" standalone="no" ?>
<!DOCTYPE svg PUBLIC "-//W3C//DTD SVG 1.1//EN" "http://www.w3.org/Graphics/SVG/1.1/DTD/svg11.dtd">
<svg xmlns="http://www.w3.org/2000/svg" xmlns:xlink="http://www.w3.org/1999/xlink" version="1.1" width="200" height="300" viewBox="0 0 200 300" xml:space="preserve">
<desc>Created with Fabric.js 4.4.0</desc>
<defs>
</defs>
<g transform="matrix(1 0 0 1 93.66 199.34)"  >
<path style="stroke: rgb(0,0,0); stroke-width: 20; stroke-dasharray: none; stroke-linecap: round; stroke-dashoffset: 0; stroke-linejoin: round; stroke-miterlimit: 10; fill: none; fill-rule: nonzero; opacity: 1;"  transform=" translate(-93.66, -199.34)" d="M 86.64667175292969 151.35332824707032 Q 86.66667175292969 151.3333282470703 87.16667175292969 151.3333282470703 Q 87.66667175292969 151.3333282470703 88.66667175292969 150.8333282470703 Q 89.66667175292969 150.3333282470703 93.66667175292969 148.3333282470703 Q 97.66667175292969 146.3333282470703 102.66667175292969 144.3333282470703 Q 107.66667175292969 142.3333282470703 109.66667175292969 141.3333282470703 Q 111.66667175292969 140.3333282470703 114.66667175292969 137.3333282470703 Q 117.66667175292969 134.3333282470703 118.16667175292969 132.3333282470703 Q 118.66667175292969 130.3333282470703 119.16667175292969 130.3333282470703 Q 119.66667175292969 130.3333282470703 119.66667175292969 129.3333282470703 Q 119.66667175292969 128.3333282470703 119.66667175292969 127.33332824707031 Q 119.66667175292969 126.33332824707031 119.66667175292969 125.33332824707031 Q 119.66667175292969 124.33332824707031 119.66667175292969 123.33332824707031 Q 119.66667175292969 122.33332824707031 119.16667175292969 121.33332824707031 Q 118.66667175292969 120.33332824707031 118.16667175292969 119.33332824707031 Q 117.66667175292969 118.33332824707031 117.16667175292969 117.83332824707031 Q 116.66667175292969 117.33332824707031 115.66667175292969 116.33332824707031 Q 114.66667175292969 115.33332824707031 114.66667175292969 114.83332824707031 Q 114.66667175292969 114.33332824707031 113.66667175292969 114.33332824707031 Q 112.66667175292969 114.33332824707031 111.16667175292969 113.33332824707031 Q 109.66667175292969 112.33332824707031 108.66667175292969 112.33332824707031 Q 107.66667175292969 112.33332824707031 106.16667175292969 111.83332824707031 Q 104.66667175292969 111.33332824707031 103.66667175292969 110.83332824707031 Q 102.66667175292969 110.33332824707031 101.66667175292969 110.33332824707031 Q 100.66667175292969 110.33332824707031 99.66667175292969 110.33332824707031 Q 98.66667175292969 110.33332824707031 98.16667175292969 110.33332824707031 Q 97.66667175292969 110.33332824707031 96.66667175292969 110.83332824707031 Q 95.66667175292969 111.33332824707031 95.16667175292969 111.83332824707031 Q 94.66667175292969 112.33332824707031 93.66667175292969 113.33332824707031 Q 92.66667175292969 114.33332824707031 91.66667175292969 114.83332824707031 Q 90.66667175292969 115.33332824707031 90.16667175292969 116.33332824707031 Q 89.66667175292969 117.33332824707031 89.16667175292969 117.83332824707031 Q 88.66667175292969 118.33332824707031 87.66667175292969 119.33332824707031 Q 86.66667175292969 120.33332824707031 86.16667175292969 121.33332824707031 Q 85.66667175292969 122.33332824707031 85.16667175292969 123.33332824707031 Q 84.66667175292969 124.33332824707031 84.16667175292969 124.83332824707031 Q 83.66667175292969 125.33332824707031 83.16667175292969 125.83332824707031 Q 82.66667175292969 126.33332824707031 82.66667175292969 126.83332824707031 Q 82.66667175292969 127.33332824707031 82.16667175292969 127.83332824707031 Q 81.66667175292969 128.3333282470703 81.16667175292969 129.3333282470703 Q 80.66667175292969 130.3333282470703 80.16667175292969 132.3333282470703 Q 79.66667175292969 134.3333282470703 78.16667175292969 136.3333282470703 Q 76.66667175292969 138.3333282470703 75.66667175292969 139.3333282470703 Q 74.66667175292969 140.3333282470703 74.66667175292969 141.8333282470703 Q 74.66667175292969 143.3333282470703 74.16667175292969 144.3333282470703 Q 73.66667175292969 145.3333282470703 73.16667175292969 146.3333282470703 Q 72.66667175292969 147.3333282470703 72.66667175292969 148.8333282470703 Q 72.66667175292969 150.3333282470703 72.16667175292969 153.3333282470703 Q 71.66667175292969 156.3333282470703 71.16667175292969 158.3333282470703 Q 70.66667175292969 160.3333282470703 70.66667175292969 162.3333282470703 Q 70.66667175292969 164.3333282470703 69.66667175292969 167.8333282470703 Q 68.66667175292969 171.3333282470703 68.66667175292969 173.8333282470703 Q 68.66667175292969 176.3333282470703 68.66667175292969 179.8333282470703 Q 68.66667175292969 183.3333282470703 68.66667175292969 186.3333282470703 Q 68.66667175292969 189.3333282470703 68.66667175292969 193.8333282470703 Q 68.66667175292969 198.3333282470703 68.66667175292969 203.3333282470703 Q 68.66667175292969 208.3333282470703 68.66667175292969 214.3333282470703 Q 68.66667175292969 220.3333282470703 68.66667175292969 223.3333282470703 Q 68.66667175292969 226.3333282470703 68.66667175292969 231.8333282470703 Q 68.66667175292969 237.3333282470703 68.66667175292969 240.8333282470703 Q 68.66667175292969 244.3333282470703 68.66667175292969 246.3333282470703 Q 68.66667175292969 248.3333282470703 68.66667175292969 252.3333282470703 Q 68.66667175292969 256.3333282470703 68.66667175292969 257.8333282470703 Q 68.66667175292969 259.3333282470703 68.66667175292969 261.3333282470703 Q 68.66667175292969 263.3333282470703 68.66667175292969 265.3333282470703 Q 68.66667175292969 267.3333282470703 68.66667175292969 269.3333282470703 Q 68.66667175292969 271.3333282470703 68.66667175292969 272.8333282470703 Q 68.66667175292969 274.3333282470703 68.66667175292969 276.3333282470703 Q 68.66667175292969 278.3333282470703 68.66667175292969 279.3333282470703 Q 68.66667175292969 280.3333282470703 68.66667175292969 281.8333282470703 Q 68.66667175292969 283.3333282470703 68.66667175292969 284.3333282470703 Q 68.66667175292969 285.3333282470703 68.66667175292969 286.3333282470703 Q 68.66667175292969 287.3333282470703 68.16667175292969 287.8333282470703 L 67.64667175292969 288.3533282470703" stroke-linecap="round" />
</g>
</svg>