<?xml version="1.0" encoding="UTF-8" standalone="no" ?>
<!DOCTYPE svg PUBLIC "-//W3C//DTD SVG 1.1//EN" "http://www.w3.org/Graphics/SVG/1.1/DTD/svg11.dtd">
<svg xmlns="http://www.w3.org/2000/svg" xmlns:xlink="http://www.w3.org/1999/xlink" version="1.1" width="200" height="300" viewBox="0 0 200 300" xml:space="preserve">
<desc>Created with Fabric.js 4.4.0</desc>
<defs>
</defs>
<g transform="matrix(1 0 0 1 70.93 155.5)"  >
<path style="stroke: rgb(0,0,0); stroke-width: 20; stroke-dasharray: none; stroke-linecap: round; stroke-dashoffset: 0; stroke-linejoin: round; stroke-miterlimit: 10; fill: none; fill-rule: nonzero; opacity: 1;"  transform=" translate(-70.93, -155.5)" d="M 67.66667175292969 25.98 Q 67.66667175292969 26 67.66667175292969 26.333335876464844 Q 67.66667175292969 26.666671752929688 67.66667175292969 31.50000762939453 Q 67.66667175292969 36.333343505859375 68.50000762939453 49.66667175292969 Q 69.33334350585938 63 70.50000762939453 81 Q 71.66667175292969 99 72.66667175292969 117 Q 73.66667175292969 135 74.00000762939453 152.33334350585938 Q 74.33334350585938 169.66668701171875 74.66667175292969 185.66668701171875 Q 75 201.66668701171875 74.33333587646484 216.00001525878906 Q 73.66667175292969 230.33334350585938 72.66667175292969 242.1666717529297 Q 71.66667175292969 254 70.50000762939453 263 Q 69.33334350585938 272 68.16667175292969 278.5 L 66.98 285.02" stroke-linecap="round" />
</g>
<g transform="matrix(1 0 0 1 108.38 84.2)"  >
<path style="stroke: rgb(0,0,0); stroke-width: 20; stroke-dasharray: none; stroke-linecap: round; stroke-dashoffset: 0; stroke-linejoin: round; stroke-miterlimit: 10; fill: none; fill-rule: nonzero; opacity: 1;"  transform=" translate(-108.38, -84.2)" d="M 14.313335876464844 74.02 Q 14.333335876464844 74 14.000003814697266 71.83334350585938 Q 13.666671752929688 69.66668701171875 13.833335876464844 65.66668701171875 Q 14 61.66668701171875 15.166667938232422 57.333343505859375 Q 16.333335876464844 53 19.666667938232422 48.5 Q 23 44 30 38.66667175292969 Q 37 33.333343505859375 48.333335876464844 28.666671752929688 Q 59.66667175292969 24 73.00000762939453 22.166671752929688 Q 86.33334350585938 20.333343505859375 100.00000762939453 21.50000762939453 Q 113.66667175292969 22.666671752929688 126.83333587646484 25.333335876464844 Q 140 28 161.1666717529297 36.333343505859375 Q 182.33334350585938 44.66668701171875 187.6666717529297 48.66668701171875 Q 193 52.66668701171875 198.1666717529297 63.833343505859375 Q 203.33334350585938 75 202.83334350585938 78.5 Q 202.33334350585938 82 201.00001525878906 85.83334350585938 Q 199.66668701171875 89.66668701171875 194.00001525878906 97.00001525878906 Q 188.33334350585938 104.33334350585938 177.83334350585938 112.33334350585938 Q 167.33334350585938 120.33334350585938 153.6666717529297 127.50001525878906 Q 140 134.66668701171875 126 139.50001525878906 Q 112 144.33334350585938 100 146.1666717529297 Q 88 148 79.5 147.1666717529297 Q 71 146.33334350585938 66.16667175292969 144.50001525878906 L 61.31334350585937 142.64668701171874" stroke-linecap="round" />
</g>
</svg>