<?xml version="1.0" encoding="UTF-8" standalone="no" ?>
<!DOCTYPE svg PUBLIC "-//W3C//DTD SVG 1.1//EN" "http://www.w3.org/Graphics/SVG/1.1/DTD/svg11.dtd">
<svg xmlns="http://www.w3.org/2000/svg" xmlns:xlink="http://www.w3.org/1999/xlink" version="1.1" width="200" height="300" viewBox="0 0 200 300" xml:space="preserve">
<desc>Created with Fabric.js 4.6.0</desc>
<defs>
</defs>
<g transform="matrix(1 0 0 1 69 183)"  >
<path style="stroke: rgb(0,0,0); stroke-width: 20; stroke-dasharray: none; stroke-linecap: round; stroke-dashoffset: 0; stroke-linejoin: round; stroke-miterlimit: 10; fill: none; fill-rule: nonzero; opacity: 1;"  transform=" translate(-69, -183)" d="M 59.5 122.98 Q 59.5 123 59.5 124 Q 59.5 125 59.5 126.5 Q 59.5 128 60 131 Q 60.5 134 60.5 137 Q 60.5 140 61.5 142.5 Q 62.5 145 63 148.5 Q 63.5 152 64 154 Q 64.5 156 65.5 160 Q 66.5 164 66.5 166.5 Q 66.5 169 67 172 Q 67.5 175 68 178.5 Q 68.5 182 68.5 184.5 Q 68.5 187 69 190 Q 69.5 193 70.5 196.5 Q 71.5 200 71.5 202.5 Q 71.5 205 72 207.5 Q 72.5 210 73.5 214.5 Q 74.5 219 75 222 Q 75.5 225 76.5 228.5 Q 77.5 232 78 235 Q 78.5 238 78.5 238.5 Q 78.5 239 78.5 239.5 Q 78.5 240 78.5 240.5 Q 78.5 241 78.5 242 L 78.5 243.02" stroke-linecap="round" />
</g>
<g transform="matrix(1 0 0 1 100.99 160)"  >
<path style="stroke: rgb(0,0,0); stroke-width: 20; stroke-dasharray: none; stroke-linecap: round; stroke-dashoffset: 0; stroke-linejoin: round; stroke-miterlimit: 10; fill: none; fill-rule: nonzero; opacity: 1;"  transform=" translate(-100.99, -160)" d="M 68.5 151.02 Q 68.5 151 68.5 150.5 Q 68.5 150 68.5 149.5 Q 68.5 149 68.5 148.5 Q 68.5 148 68.5 147.5 Q 68.5 147 69 146.5 Q 69.5 146 69.5 145.5 Q 69.5 145 70 144.5 Q 70.5 144 72 143 Q 73.5 142 74.5 141.5 Q 75.5 141 76.5 140.5 Q 77.5 140 78.5 139.5 Q 79.5 139 80 138.5 Q 80.5 138 81 138 Q 81.5 138 82 137.5 Q 82.5 137 83 136 Q 83.5 135 84 134.5 Q 84.5 134 85 134 Q 85.5 134 86 133.5 Q 86.5 133 87 133 Q 87.5 133 87.5 132.5 Q 87.5 132 88 132 Q 88.5 132 88.5 131.5 Q 88.5 131 89.5 130.5 Q 90.5 130 91 130 Q 91.5 130 92 129.5 Q 92.5 129 93.5 128.5 Q 94.5 128 95 128 Q 95.5 128 96 127.5 Q 96.5 127 97.5 127 Q 98.5 127 99 127 Q 99.5 127 100 127 Q 100.5 127 101.5 127 Q 102.5 127 103.5 127 Q 104.5 127 105.5 127 Q 106.5 127 107.5 127 Q 108.5 127 109 127 Q 109.5 127 111 127.5 Q 112.5 128 113.5 128.5 Q 114.5 129 115 129 Q 115.5 129 117 130 Q 118.5 131 119.5 131 Q 120.5 131 121 131.5 Q 121.5 132 123 133 Q 124.5 134 125 134.5 Q 125.5 135 126.5 136 Q 127.5 137 128 137.5 Q 128.5 138 129 138.5 Q 129.5 139 130.5 140 Q 131.5 141 132 141.5 Q 132.5 142 133 143 Q 133.5 144 133.5 145 Q 133.5 146 134 147 Q 134.5 148 134.5 148.5 Q 134.5 149 134.5 150.5 Q 134.5 152 134.5 155.5 Q 134.5 159 135 160.5 Q 135.5 162 135.5 163.5 Q 135.5 165 135 167 Q 134.5 169 134 171 Q 133.5 173 133 175 Q 132.5 177 132 178 Q 131.5 179 131 180 Q 130.5 181 129.5 182.5 Q 128.5 184 127.5 184.5 Q 126.5 185 126 185.5 Q 125.5 186 125 187 Q 124.5 188 124 188 Q 123.5 188 123 188 Q 122.5 188 120.5 189 Q 118.5 190 117.5 190.5 Q 116.5 191 115 191.5 Q 113.5 192 112 192 Q 110.5 192 109.5 192 Q 108.5 192 107 192.5 Q 105.5 193 103.5 193 Q 101.5 193 100.5 193 Q 99.5 193 97.5 193 Q 95.5 193 94 193 Q 92.5 193 91.5 193 Q 90.5 193 88.5 192.5 Q 86.5 192 85 192 Q 83.5 192 82.5 191 Q 81.5 190 80 189.5 Q 78.5 189 77 188 Q 75.5 187 73.5 185.5 Q 71.5 184 70.5 183 Q 69.5 182 68.5 181.5 Q 67.5 181 67 180 L 66.48 178.98" stroke-linecap="round" />
</g>
</svg>