<?xml version="1.0" encoding="UTF-8" standalone="no" ?>
<!DOCTYPE svg PUBLIC "-//W3C//DTD SVG 1.1//EN" "http://www.w3.org/Graphics/SVG/1.1/DTD/svg11.dtd">
<svg xmlns="http://www.w3.org/2000/svg" xmlns:xlink="http://www.w3.org/1999/xlink" version="1.1" width="200" height="300" viewBox="0 0 200 300" xml:space="preserve">
<desc>Created with Fabric.js 4.6.0</desc>
<defs>
</defs>
<g transform="matrix(1 0 0 1 89 137.5)"  >
<path style="stroke: rgb(0,0,0); stroke-width: 20; stroke-dasharray: none; stroke-linecap: round; stroke-dashoffset: 0; stroke-linejoin: round; stroke-miterlimit: 10; fill: none; fill-rule: nonzero; opacity: 1;"  transform=" translate(-89, -137.5)" d="M 106.52 114 Q 106.5 114 106 113.5 Q 105.5 113 105 113 Q 104.5 113 103 112.5 Q 101.5 112 100 111.5 Q 98.5 111 97.5 111 Q 96.5 111 95.5 110.5 Q 94.5 110 93.5 110 Q 92.5 110 92 110 Q 91.5 110 91 109.5 Q 90.5 109 89.5 108.5 Q 88.5 108 88 108 Q 87.5 108 86.5 108 Q 85.5 108 84.5 108 Q 83.5 108 83 108 Q 82.5 108 81.5 108 Q 80.5 108 80 108 Q 79.5 108 79 108 Q 78.5 108 77.5 108 Q 76.5 108 75.5 108 Q 74.5 108 74 108 Q 73.5 108 73 108 Q 72.5 108 71.5 108.5 Q 70.5 109 70 109.5 Q 69.5 110 69 110 Q 68.5 110 67.5 111 Q 66.5 112 66 112.5 Q 65.5 113 65 113.5 Q 64.5 114 64 114.5 Q 63.5 115 63 115.5 Q 62.5 116 62 117 Q 61.5 118 61.5 118.5 Q 61.5 119 61 120 Q 60.5 121 60 122 Q 59.5 123 59.5 124 Q 59.5 125 59 125.5 Q 58.5 126 58.5 127 Q 58.5 128 58.5 129 Q 58.5 130 58 131 Q 57.5 132 57.5 132.5 Q 57.5 133 57.5 134.5 Q 57.5 136 57.5 136.5 Q 57.5 137 57.5 137.5 Q 57.5 138 57.5 139 Q 57.5 140 57.5 140.5 Q 57.5 141 57.5 141.5 Q 57.5 142 57.5 143.5 Q 57.5 145 57.5 145.5 Q 57.5 146 58 147 Q 58.5 148 58.5 148.5 Q 58.5 149 58.5 149.5 Q 58.5 150 58.5 151 Q 58.5 152 58.5 152.5 Q 58.5 153 59 153.5 Q 59.5 154 59.5 154.5 Q 59.5 155 60 155.5 Q 60.5 156 60.5 156.5 Q 60.5 157 61 157.5 Q 61.5 158 62 158 Q 62.5 158 62.5 158.5 Q 62.5 159 63 159.5 Q 63.5 160 64 160.5 Q 64.5 161 65 161 Q 65.5 161 65.5 161.5 Q 65.5 162 66 162.5 Q 66.5 163 67 163.5 Q 67.5 164 68 164 Q 68.5 164 69.5 164.5 Q 70.5 165 71 165 Q 71.5 165 72.5 165.5 Q 73.5 166 75 166.5 Q 76.5 167 78 167 Q 79.5 167 81.5 167 Q 83.5 167 86 167 Q 88.5 167 89 167 Q 89.5 167 90.5 167 Q 91.5 167 92 167 Q 92.5 167 93 167 Q 93.5 167 94.5 167 Q 95.5 167 96.5 167 Q 97.5 167 98 167 Q 98.5 167 100 166.5 Q 101.5 166 102.5 166 Q 103.5 166 105 165.5 Q 106.5 165 107 164.5 Q 107.5 164 109 163 Q 110.5 162 112.5 160.5 Q 114.5 159 115.5 158 Q 116.5 157 117 156.5 Q 117.5 156 117.5 155.5 Q 117.5 155 118 154.5 Q 118.5 154 118.5 153.5 Q 118.5 153 118.5 152.5 Q 118.5 152 119 151 Q 119.5 150 119.5 148.5 Q 119.5 147 119.5 146.5 Q 119.5 146 119.5 145.5 Q 119.5 145 119.5 144 Q 119.5 143 119.5 142.5 Q 119.5 142 120 141 Q 120.5 140 120.5 138.5 Q 120.5 137 120.5 136.5 Q 120.5 136 120.5 135.5 Q 120.5 135 120.5 134 Q 120.5 133 120.5 132.5 Q 120.5 132 120.5 131 L 120.5 129.98" stroke-linecap="round" />
</g>
<g transform="matrix(1 0 0 1 127.5 165.5)"  >
<path style="stroke: rgb(0,0,0); stroke-width: 20; stroke-dasharray: none; stroke-linecap: round; stroke-dashoffset: 0; stroke-linejoin: round; stroke-miterlimit: 10; fill: none; fill-rule: nonzero; opacity: 1;"  transform=" translate(-127.5, -165.5)" d="M 111.48 102.98 Q 111.5 103 111.5 103.5 Q 111.5 104 112 105.5 Q 112.5 107 113.5 109.5 Q 114.5 112 115 115.5 Q 115.5 119 116 120.5 Q 116.5 122 116.5 123 Q 116.5 124 117.5 126 Q 118.5 128 118.5 130 Q 118.5 132 119 133 Q 119.5 134 119.5 136 Q 119.5 138 120 139 Q 120.5 140 120.5 141.5 Q 120.5 143 121 146 Q 121.5 149 122 152 Q 122.5 155 123 158.5 Q 123.5 162 124 164 Q 124.5 166 125 169 Q 125.5 172 126.5 175 Q 127.5 178 128 179.5 Q 128.5 181 129 183.5 Q 129.5 186 130.5 189 Q 131.5 192 132 194 Q 132.5 196 133 198.5 Q 133.5 201 134.5 202.5 Q 135.5 204 135.5 205.5 Q 135.5 207 136 209 Q 136.5 211 137 212.5 Q 137.5 214 138 215 Q 138.5 216 138.5 217 Q 138.5 218 139 218.5 Q 139.5 219 139.5 219.5 Q 139.5 220 139.5 220.5 Q 139.5 221 139.5 221.5 Q 139.5 222 140 222.5 Q 140.5 223 140.5 223.5 Q 140.5 224 141 224.5 Q 141.5 225 142 226 Q 142.5 227 143 227.5 L 143.52 228.02" stroke-linecap="round" />
</g>
</svg>