<?xml version="1.0" encoding="UTF-8" standalone="no" ?>
<!DOCTYPE svg PUBLIC "-//W3C//DTD SVG 1.1//EN" "http://www.w3.org/Graphics/SVG/1.1/DTD/svg11.dtd">
<svg xmlns="http://www.w3.org/2000/svg" xmlns:xlink="http://www.w3.org/1999/xlink" version="1.1" width="200" height="300" viewBox="0 0 200 300" xml:space="preserve">
<desc>Created with Fabric.js 4.4.0</desc>
<defs>
</defs>
<g transform="matrix(1 0 0 1 110.83 143.06)"  >
<path style="stroke: rgb(0,0,0); stroke-width: 20; stroke-dasharray: none; stroke-linecap: round; stroke-dashoffset: 0; stroke-linejoin: round; stroke-miterlimit: 10; fill: none; fill-rule: nonzero; opacity: 1;"  transform=" translate(-110.83, -143.06)" d="M 150.35334350585939 51.68667938232422 Q 150.33334350585938 51.66667938232422 146.50000762939453 50.333335876464844 Q 142.6666717529297 48.99999237060547 138.6666717529297 48.666664123535156 Q 134.6666717529297 48.333335876464844 129.50000762939453 48.833335876464844 Q 124.33334350585938 49.333335876464844 117.33334350585938 51.166664123535156 Q 110.33334350585938 52.99999237060547 103.16667175292969 55.99999237060547 Q 96 58.99999237060547 89 63.666664123535156 Q 82 68.33333587646484 75.83333587646484 75.16666412353516 Q 69.66667175292969 81.99999237060547 63.66667175292969 91.83333587646484 Q 57.66667175292969 101.66667938232422 53.500003814697266 113.33333587646484 Q 49.333335876464844 124.99999237060547 47.500003814697266 135.83333587646484 Q 45.66667175292969 146.66667938232422 45.66667175292969 156.83333587646484 Q 45.66667175292969 166.99999237060547 47.500003814697266 176.1666717529297 Q 49.333335876464844 185.3333511352539 52.66666793823242 193.66666412353516 Q 56 201.9999771118164 60.16667175292969 209.16666412353516 Q 64.33334350585938 216.3333511352539 69.16667175292969 221.3333511352539 Q 74 226.3333511352539 80.5 230.50000762939453 Q 87 234.66666412353516 93.66667175292969 236.33332061767578 Q 100.33334350585938 237.9999771118164 107.33334350585938 236.9999771118164 Q 114.33334350585938 235.9999771118164 120.00000762939453 232.4999771118164 Q 125.66667175292969 228.9999771118164 131.6666717529297 222.9999771118164 Q 137.6666717529297 216.9999771118164 144.00000762939453 207.83332061767578 Q 150.33334350585938 198.66666412353516 156.00000762939453 189 Q 161.6666717529297 179.33333587646484 165.50000762939453 169.83333587646484 Q 169.33334350585938 160.33333587646484 171.6666717529297 151.66666412353516 Q 174 142.99999237060547 175 135.16666412353516 Q 176 127.33333587646484 176 121.00000762939453 Q 176 114.66667938232422 175.5 108.83333587646484 Q 175 102.99999237060547 174.33333587646484 98.16666412353516 Q 173.6666717529297 93.33333587646484 172.50000762939453 89.33333587646484 Q 171.33334350585938 85.33333587646484 169.83334350585938 82.50000762939453 Q 168.33334350585938 79.66667938232422 167.00000762939453 77.83333587646484 Q 165.6666717529297 75.99999237060547 164.6666717529297 74.83333587646484 L 163.64667175292968 73.64667938232422" stroke-linecap="round" />
</g>
<g transform="matrix(1 0 0 1 144 197.83)"  >
<path style="stroke: rgb(0,0,0); stroke-width: 20; stroke-dasharray: none; stroke-linecap: round; stroke-dashoffset: 0; stroke-linejoin: round; stroke-miterlimit: 10; fill: none; fill-rule: nonzero; opacity: 1;"  transform=" translate(-144, -197.83)" d="M 120.98 168.31333587646483 Q 121 168.33333587646484 121.33333587646484 168.66666412353516 Q 121.66667175292969 168.99999237060547 123.50000762939453 170.99999237060547 Q 125.33334350585938 172.99999237060547 128.6666717529297 177.49998474121094 Q 132 181.9999771118164 136 187.33332061767578 Q 140 192.66666412353516 143.5 197.83332061767578 Q 147 202.9999771118164 150.1666717529297 206.9999771118164 Q 153.33334350585938 210.9999771118164 156.00000762939453 214.16666412353516 Q 158.6666717529297 217.3333511352539 160.50000762939453 219.50000762939453 Q 162.33334350585938 221.66666412353516 163.6666717529297 223.16666412353516 Q 165 224.66666412353516 166 226.00000762939453 L 167.02 227.35335113525392" stroke-linecap="round" />
</g>
</svg>