<?xml version="1.0" encoding="UTF-8" standalone="no" ?>
<!DOCTYPE svg PUBLIC "-//W3C//DTD SVG 1.1//EN" "http://www.w3.org/Graphics/SVG/1.1/DTD/svg11.dtd">
<svg xmlns="http://www.w3.org/2000/svg" xmlns:xlink="http://www.w3.org/1999/xlink" version="1.1" width="200" height="300" viewBox="0 0 200 300" xml:space="preserve">
<desc>Created with Fabric.js 4.6.0</desc>
<defs>
</defs>
<g transform="matrix(1 0 0 1 73 164)"  >
<path style="stroke: rgb(0,0,0); stroke-width: 20; stroke-dasharray: none; stroke-linecap: round; stroke-dashoffset: 0; stroke-linejoin: round; stroke-miterlimit: 10; fill: none; fill-rule: nonzero; opacity: 1;"  transform=" translate(-73, -164)" d="M 64.5 121.98 Q 64.5 122 64.5 122.5 Q 64.5 123 64.5 124 Q 64.5 125 65.5 130.5 Q 66.5 136 66.5 138 Q 66.5 140 67.5 143 Q 68.5 146 69 150 Q 69.5 154 70 156 Q 70.5 158 71.5 162 Q 72.5 166 73.5 168.5 Q 74.5 171 75 173.5 Q 75.5 176 76 179.5 Q 76.5 183 77 185.5 Q 77.5 188 77.5 189.5 Q 77.5 191 78 192.5 Q 78.5 194 79 195 Q 79.5 196 79.5 197 Q 79.5 198 80 199 Q 80.5 200 80.5 200.5 Q 80.5 201 80.5 201.5 Q 80.5 202 81 203 Q 81.5 204 81.5 205 L 81.5 206.02" stroke-linecap="round" />
</g>
<g transform="matrix(1 0 0 1 102 145.01)"  >
<path style="stroke: rgb(0,0,0); stroke-width: 20; stroke-dasharray: none; stroke-linecap: round; stroke-dashoffset: 0; stroke-linejoin: round; stroke-miterlimit: 10; fill: none; fill-rule: nonzero; opacity: 1;"  transform=" translate(-102, -145.01)" d="M 81.48 160.02 Q 81.5 160 82 159.5 Q 82.5 159 83 158.5 Q 83.5 158 85 156.5 Q 86.5 155 87.5 155 Q 88.5 155 89 154.5 Q 89.5 154 90.5 153 Q 91.5 152 92 152 Q 92.5 152 93 151.5 Q 93.5 151 93.5 150.5 Q 93.5 150 94 150 Q 94.5 150 95 150 Q 95.5 150 96 149.5 Q 96.5 149 97 148.5 Q 97.5 148 98 147.5 Q 98.5 147 99.5 146 Q 100.5 145 101.5 144.5 Q 102.5 144 103.5 143 Q 104.5 142 105.5 141.5 Q 106.5 141 107.5 140.5 Q 108.5 140 108.5 139.5 Q 108.5 139 109 139 Q 109.5 139 110 139 Q 110.5 139 111 138.5 Q 111.5 138 112 137.5 Q 112.5 137 113 136.5 Q 113.5 136 114 135.5 Q 114.5 135 115 135 Q 115.5 135 116 134.5 Q 116.5 134 116.5 133.5 Q 116.5 133 117 133 Q 117.5 133 118 132.5 Q 118.5 132 119 131.5 Q 119.5 131 120 130.5 Q 120.5 130 121.5 130 L 122.52 130" stroke-linecap="round" />
</g>
</svg>