<?xml version="1.0" encoding="UTF-8" standalone="no" ?>
<!DOCTYPE svg PUBLIC "-//W3C//DTD SVG 1.1//EN" "http://www.w3.org/Graphics/SVG/1.1/DTD/svg11.dtd">
<svg xmlns="http://www.w3.org/2000/svg" xmlns:xlink="http://www.w3.org/1999/xlink" version="1.1" width="200" height="300" viewBox="0 0 200 300" xml:space="preserve">
<desc>Created with Fabric.js 4.4.0</desc>
<defs>
</defs>
<g transform="matrix(1 0 0 1 110.17 184.43)"  >
<path style="stroke: rgb(0,0,0); stroke-width: 20; stroke-dasharray: none; stroke-linecap: round; stroke-dashoffset: 0; stroke-linejoin: round; stroke-miterlimit: 10; fill: none; fill-rule: nonzero; opacity: 1;"  transform=" translate(-110.17, -184.43)" d="M 46.646671752929684 152.3133282470703 Q 46.66667175292969 152.3333282470703 48.16667175292969 156.3333282470703 Q 49.66667175292969 160.3333282470703 53.66667175292969 168.3333282470703 Q 57.66667175292969 176.3333282470703 64.16667175292969 186.8333282470703 Q 70.66667175292969 197.3333282470703 77.66667175292969 210.3333282470703 Q 84.66667175292969 223.3333282470703 94.66667175292969 235.8333282470703 Q 104.66667175292969 248.3333282470703 110.66667175292969 255.3333282470703 Q 116.66667175292969 262.3333282470703 118.66667175292969 265.3333282470703 Q 120.66667175292969 268.3333282470703 121.16667175292969 268.3333282470703 Q 121.66667175292969 268.3333282470703 123.16667175292969 266.8333282470703 Q 124.66667175292969 265.3333282470703 124.66667175292969 259.3333282470703 Q 124.66667175292969 253.3333282470703 126.16667175292969 240.8333282470703 Q 127.66667175292969 228.3333282470703 127.66667175292969 204.3333282470703 Q 127.66667175292969 180.3333282470703 127.66667175292969 165.3333282470703 Q 127.66667175292969 150.3333282470703 127.66667175292969 136.3333282470703 Q 127.66667175292969 122.33332824707031 127.66667175292969 116.33332824707031 Q 127.66667175292969 110.33332824707031 128.1666717529297 106.83332824707031 Q 128.6666717529297 103.33332824707031 129.6666717529297 101.83332824707031 Q 130.6666717529297 100.33332824707031 131.1666717529297 100.83332824707031 Q 131.6666717529297 101.33332824707031 134.1666717529297 104.83332824707031 Q 136.6666717529297 108.33332824707031 143.1666717529297 116.33332824707031 Q 149.6666717529297 124.33332824707031 154.6666717529297 129.8333282470703 Q 159.6666717529297 135.3333282470703 163.1666717529297 139.8333282470703 Q 166.6666717529297 144.3333282470703 169.6666717529297 149.8333282470703 Q 172.6666717529297 155.3333282470703 173.1666717529297 155.8333282470703 L 173.6866717529297 156.35332824707032" stroke-linecap="round" />
</g>
</svg>