<?xml version="1.0" encoding="UTF-8" standalone="no" ?>
<!DOCTYPE svg PUBLIC "-//W3C//DTD SVG 1.1//EN" "http://www.w3.org/Graphics/SVG/1.1/DTD/svg11.dtd">
<svg xmlns="http://www.w3.org/2000/svg" xmlns:xlink="http://www.w3.org/1999/xlink" version="1.1" width="200" height="300" viewBox="0 0 200 300" xml:space="preserve">
<desc>Created with Fabric.js 4.4.0</desc>
<defs>
</defs>
<g transform="matrix(1 0 0 1 67 131.17)"  >
<path style="stroke: rgb(0,0,0); stroke-width: 20; stroke-dasharray: none; stroke-linecap: round; stroke-dashoffset: 0; stroke-linejoin: round; stroke-miterlimit: 10; fill: none; fill-rule: nonzero; opacity: 1;"  transform=" translate(-67, -131.17)" d="M 59.31334350585937 41.98 Q 59.333343505859375 42 60.16667175292969 51.833343505859375 Q 61 61.66668701171875 62.16667175292969 78.16668701171875 Q 63.333343505859375 94.66668701171875 63.833343505859375 100.66668701171875 Q 64.33334350585938 106.66668701171875 64.83334350585938 112.66668701171875 Q 65.33334350585938 118.66668701171875 66.16667175292969 130.16668701171875 Q 67 141.66668701171875 68.16667175292969 151.50001525878906 Q 69.33334350585938 161.33334350585938 70.33334350585938 170.83334350585938 Q 71.33334350585938 180.33334350585938 72.00000762939453 188.50001525878906 Q 72.66667175292969 196.66668701171875 73.16667175292969 203.33334350585938 Q 73.66667175292969 210 74.16667175292969 215.1666717529297 L 74.68667175292968 220.35334350585939" stroke-linecap="round" />
</g>
<g transform="matrix(1 0 0 1 101.27 119.85)"  >
<path style="stroke: rgb(0,0,0); stroke-width: 20; stroke-dasharray: none; stroke-linecap: round; stroke-dashoffset: 0; stroke-linejoin: round; stroke-miterlimit: 10; fill: none; fill-rule: nonzero; opacity: 1;"  transform=" translate(-101.27, -119.85)" d="M 29.353335876464843 87.35334350585937 Q 29.333335876464844 87.33334350585938 28.333335876464844 85.83334350585938 Q 27.333335876464844 84.33334350585938 26.833335876464844 83.16667175292969 Q 26.333335876464844 82 25.500003814697266 78.83334350585938 Q 24.666671752929688 75.66668701171875 25.333335876464844 71.66668701171875 Q 26 67.66668701171875 29 63.16668701171875 Q 32 58.66668701171875 38.833335876464844 53.833343505859375 Q 45.66667175292969 49 55.833335876464844 46.333343505859375 Q 66 43.66668701171875 77.33333587646484 44.50001525878906 Q 88.66667175292969 45.333343505859375 99.83333587646484 48.16667175292969 Q 111 51 120.33333587646484 54.5 Q 129.6666717529297 58 135.50000762939453 61.16667175292969 Q 141.33334350585938 64.33334350585938 144.6666717529297 68.00001525878906 Q 148 71.66668701171875 149.6666717529297 78.83334350585938 Q 151.33334350585938 86 150.1666717529297 94.83334350585938 Q 149 103.66668701171875 145.1666717529297 110.50001525878906 Q 141.33334350585938 117.33334350585938 136.1666717529297 122.50001525878906 Q 131 127.66668701171875 124.83333587646484 131.33334350585938 Q 118.66667175292969 135 106.33333587646484 136 Q 94 137 89.5 135.1666717529297 Q 85 133.33334350585938 82.5 131.33334350585938 Q 80 129.33334350585938 78.5 127.00001525878906 Q 77 124.66668701171875 76.66667175292969 122.16668701171875 Q 76.33334350585938 119.66668701171875 76.83334350585938 117.83334350585938 Q 77.33334350585938 116 78.16667175292969 114.83334350585938 Q 79 113.66668701171875 80 112.83334350585938 Q 81 112 83 112 Q 85 112 88 113.83334350585938 Q 91 115.66668701171875 95 120.33334350585938 Q 99 125 104.66667175292969 133 Q 110.33334350585938 141 116.16667175292969 149.1666717529297 Q 122 157.33334350585938 128 163.83334350585938 Q 134 170.33334350585938 140.6666717529297 175.6666717529297 Q 147.33334350585938 181 154.83334350585938 185.1666717529297 Q 162.33334350585938 189.33334350585938 170.00000762939453 192.50001525878906 L 177.6866717529297 195.68668701171876" stroke-linecap="round" />
</g>
</svg>