<?xml version="1.0" encoding="UTF-8" standalone="no" ?>
<!DOCTYPE svg PUBLIC "-//W3C//DTD SVG 1.1//EN" "http://www.w3.org/Graphics/SVG/1.1/DTD/svg11.dtd">
<svg xmlns="http://www.w3.org/2000/svg" xmlns:xlink="http://www.w3.org/1999/xlink" version="1.1" width="200" height="300" viewBox="0 0 200 300" xml:space="preserve">
<desc>Created with Fabric.js 4.4.0</desc>
<defs>
</defs>
<g transform="matrix(1 0 0 1 111.59 131.55)"  >
<path style="stroke: rgb(0,0,0); stroke-width: 20; stroke-dasharray: none; stroke-linecap: round; stroke-dashoffset: 0; stroke-linejoin: round; stroke-miterlimit: 10; fill: none; fill-rule: nonzero; opacity: 1;"  transform=" translate(-111.59, -131.55)" d="M 154.35334350585939 73.35334350585937 Q 154.33334350585938 73.33334350585938 154.00000762939453 71.66667175292969 Q 153.6666717529297 70 152.83333587646484 67.33334350585938 Q 152 64.66668701171875 150.1666717529297 61.333343505859375 Q 148.33334350585938 58 145.50000762939453 54.333343505859375 Q 142.6666717529297 50.66668701171875 134.1666717529297 45.50001525878906 Q 125.66667175292969 40.333343505859375 114.16667175292969 38.66667175292969 Q 102.66667175292969 37 90.50000762939453 41.5 Q 78.33334350585938 46 71.83334350585938 53.16667175292969 Q 65.33334350585938 60.333343505859375 59.83333969116211 71.16667175292969 Q 54.333335876464844 82 51.833335876464844 91.16667175292969 Q 49.333335876464844 100.33334350585938 51.000003814697266 110.00001525878906 Q 52.66667175292969 119.66668701171875 54.16667175292969 121.83334350585938 Q 55.66667175292969 124 62.50000762939453 128.1666717529297 Q 69.33334350585938 132.33334350585938 78.33334350585938 135.1666717529297 Q 87.33334350585938 138 97.50000762939453 140 Q 107.66667175292969 142 123.16667175292969 145.83334350585938 Q 138.6666717529297 149.66668701171875 147.1666717529297 153.66668701171875 Q 155.6666717529297 157.66668701171875 161.00000762939453 161.50001525878906 Q 166.33334350585938 165.33334350585938 168.00000762939453 167.00001525878906 Q 169.6666717529297 168.66668701171875 171.83333587646484 172.50001525878906 Q 174 176.33334350585938 170.6666717529297 187.1666717529297 Q 167.33334350585938 198 164.83334350585938 200.5 Q 162.33334350585938 203 149.33334350585938 210.5 Q 136.33334350585938 218 127.00000762939453 220.83334350585938 Q 117.66667175292969 223.66668701171875 109.16667175292969 224.66668701171875 Q 100.66667175292969 225.66668701171875 93.66667175292969 225.00001525878906 Q 86.66667175292969 224.33334350585938 80.16667175292969 221.50001525878906 Q 73.66667175292969 218.66668701171875 72.33333587646484 217.33334350585938 L 70.98 215.98" stroke-linecap="round" />
</g>
</svg>