<?xml version="1.0" encoding="UTF-8" standalone="no" ?>
<!DOCTYPE svg PUBLIC "-//W3C//DTD SVG 1.1//EN" "http://www.w3.org/Graphics/SVG/1.1/DTD/svg11.dtd">
<svg xmlns="http://www.w3.org/2000/svg" xmlns:xlink="http://www.w3.org/1999/xlink" version="1.1" width="200" height="300" viewBox="0 0 200 300" xml:space="preserve">
<desc>Created with Fabric.js 4.4.0</desc>
<defs>
</defs>
<g transform="matrix(1 0 0 1 82.68 210.83)"  >
<path style="stroke: rgb(0,0,0); stroke-width: 20; stroke-dasharray: none; stroke-linecap: round; stroke-dashoffset: 0; stroke-linejoin: round; stroke-miterlimit: 10; fill: none; fill-rule: nonzero; opacity: 1;"  transform=" translate(-82.68, -210.83)" d="M 130.6866717529297 173.35332824707032 Q 130.6666717529297 173.3333282470703 130.6666717529297 172.8333282470703 Q 130.6666717529297 172.3333282470703 130.1666717529297 171.3333282470703 Q 129.6666717529297 170.3333282470703 126.66667175292969 167.3333282470703 Q 123.66667175292969 164.3333282470703 121.16667175292969 163.3333282470703 Q 118.66667175292969 162.3333282470703 115.66667175292969 160.3333282470703 Q 112.66667175292969 158.3333282470703 108.66667175292969 157.3333282470703 Q 104.66667175292969 156.3333282470703 101.66667175292969 155.8333282470703 Q 98.66667175292969 155.3333282470703 94.16667175292969 154.8333282470703 Q 89.66667175292969 154.3333282470703 80.66667175292969 154.3333282470703 Q 71.66667175292969 154.3333282470703 70.16667175292969 155.3333282470703 Q 68.66667175292969 156.3333282470703 65.66667175292969 157.3333282470703 Q 62.66667175292969 158.3333282470703 61.66667175292969 159.3333282470703 Q 60.66667175292969 160.3333282470703 60.66667175292969 161.8333282470703 Q 60.66667175292969 163.3333282470703 62.66667175292969 165.8333282470703 Q 64.66667175292969 168.3333282470703 67.66667175292969 172.3333282470703 Q 70.66667175292969 176.3333282470703 75.16667175292969 180.8333282470703 Q 79.66667175292969 185.3333282470703 84.16667175292969 190.3333282470703 Q 88.66667175292969 195.3333282470703 95.66667175292969 203.8333282470703 Q 102.66667175292969 212.3333282470703 110.16667175292969 221.3333282470703 Q 117.66667175292969 230.3333282470703 120.16667175292969 235.3333282470703 Q 122.66667175292969 240.3333282470703 124.16667175292969 245.3333282470703 Q 125.66667175292969 250.3333282470703 125.66667175292969 254.3333282470703 Q 125.66667175292969 258.3333282470703 123.16667175292969 258.8333282470703 Q 120.66667175292969 259.3333282470703 116.66667175292969 260.8333282470703 Q 112.66667175292969 262.3333282470703 109.66667175292969 262.8333282470703 Q 106.66667175292969 263.3333282470703 100.16667175292969 264.3333282470703 Q 93.66667175292969 265.3333282470703 88.66667175292969 266.3333282470703 Q 83.66667175292969 267.3333282470703 79.66667175292969 267.3333282470703 Q 75.66667175292969 267.3333282470703 73.16667175292969 267.3333282470703 Q 70.66667175292969 267.3333282470703 68.66667175292969 266.3333282470703 Q 66.66667175292969 265.3333282470703 63.16667175292969 262.8333282470703 Q 59.66667175292969 260.3333282470703 56.16667175292969 257.3333282470703 Q 52.66667175292969 254.3333282470703 48.66667175292969 251.8333282470703 Q 44.66667175292969 249.3333282470703 42.66667175292969 246.8333282470703 Q 40.66667175292969 244.3333282470703 39.66667175292969 242.3333282470703 Q 38.66667175292969 240.3333282470703 37.16667175292969 236.8333282470703 Q 35.66667175292969 233.3333282470703 35.16667175292969 231.3333282470703 Q 34.66667175292969 229.3333282470703 34.66667175292969 228.8333282470703 L 34.66667175292969 228.3133282470703" stroke-linecap="round" />
</g>
</svg>