<?xml version="1.0" encoding="UTF-8" standalone="no" ?><!DOCTYPE svg PUBLIC "-//W3C//DTD SVG 1.1//EN" "http://www.w3.org/Graphics/SVG/1.1/DTD/svg11.dtd"><svg xmlns="http://www.w3.org/2000/svg" xmlns:xlink="http://www.w3.org/1999/xlink" version="1.1" viewBox="0 0 200 300" xml:space="preserve"><desc>Created with Fabric.js 4.6.0</desc><defs/><g transform="matrix(1 0 0 1 70.01 160.51)"><path style="stroke:rgb(0,0,0);stroke-width:20;stroke-dasharray:none;stroke-linecap:round;stroke-dashoffset:0;stroke-linejoin:round;stroke-miterlimit:10;fill:none;fill-rule:nonzero;opacity:1" transform=" translate(-70.01, -160.51)" d="M 135.52 145.02 Q 135.5 145 133 143.5 Q 130.5 142 128.5 141 Q 126.5 140 122 137.5 Q 117.5 135 113.5 132 Q 109.5 129 102.5 125 Q 95.5 121 90.5 118 Q 85.5 115 80.5 112.5 Q 75.5 110 68.5 107.5 Q 61.5 105 58 105 Q 54.5 105 50.5 105 Q 46.5 105 39.5 107 Q 32.5 109 28 112 Q 23.5 115 18.5 120 Q 13.5 125 11 129 Q 8.5 133 6.5 137.5 Q 4.5 142 4.5 148.5 Q 4.5 155 6.5 159 Q 8.5 163 12 167.5 Q 15.5 172 31.5 182 Q 47.5 192 57 196 Q 66.5 200 80.5 203.5 Q 94.5 207 99 208.5 Q 103.5 210 106 210.5 Q 108.5 211 109.5 211.5 Q 110.5 212 109 212 Q 107.5 212 105.5 212 Q 103.5 212 88.5 213 Q 73.5 214 62 214.5 Q 50.5 215 43 215 Q 35.5 215 28.5 215 Q 21.5 215 19.5 215 Q 17.5 215 15 215.5 L 12.48 216.02" stroke-linecap="round"/></g></svg>