<?xml version="1.0" encoding="UTF-8" standalone="no" ?>
<!DOCTYPE svg PUBLIC "-//W3C//DTD SVG 1.1//EN" "http://www.w3.org/Graphics/SVG/1.1/DTD/svg11.dtd">
<svg xmlns="http://www.w3.org/2000/svg" xmlns:xlink="http://www.w3.org/1999/xlink" version="1.1" width="200" height="300" viewBox="0 0 200 300" xml:space="preserve">
<desc>Created with Fabric.js 4.4.0</desc>
<defs>
</defs>
<g transform="matrix(1 0 0 1 106.17 46.84)"  >
<path style="stroke: rgb(0,0,0); stroke-width: 20; stroke-dasharray: none; stroke-linecap: round; stroke-dashoffset: 0; stroke-linejoin: round; stroke-miterlimit: 10; fill: none; fill-rule: nonzero; opacity: 1;"  transform=" translate(-106.17, -46.84)" d="M 41.646671752929684 51.01998474121094 Q 41.66667175292969 50.99998474121094 48.333335876464844 50.666656494140625 Q 55 50.33332824707031 61.5 50 Q 68 49.66667175292969 90.66667175292969 48.16667175292969 Q 113.33334350585938 46.66667175292969 119.83334350585938 46 Q 126.33334350585938 45.33332824707031 132.33334350585938 44.83332824707031 Q 138.33334350585938 44.33332824707031 143.33334350585938 43.83332824707031 Q 148.33334350585938 43.33332824707031 154.1666717529297 43 Q 160 42.66667175292969 162.1666717529297 42.66667175292969 Q 164.33334350585938 42.66667175292969 166.50000762939453 42.66667175292969 Q 168.6666717529297 42.66667175292969 169.6666717529297 42.66667175292969 L 170.6866717529297 42.66667175292969" stroke-linecap="round" />
</g>
<g transform="matrix(1 0 0 1 108.49 151.67)"  >
<path style="stroke: rgb(0,0,0); stroke-width: 20; stroke-dasharray: none; stroke-linecap: round; stroke-dashoffset: 0; stroke-linejoin: round; stroke-miterlimit: 10; fill: none; fill-rule: nonzero; opacity: 1;"  transform=" translate(-108.49, -151.67)" d="M 104.31334350585938 52.31332824707031 Q 104.33334350585938 52.33332824707031 104.66667175292969 54 Q 105 55.66667175292969 106.33333587646484 62.5 Q 107.66667175292969 69.33332824707031 108.66667175292969 76.16665649414062 Q 109.66667175292969 82.99998474121094 110.00000762939453 86.66665649414062 Q 110.33334350585938 90.33332824707031 110.66667175292969 98.5 Q 111 106.66667175292969 111 114.66667175292969 Q 111 122.66667175292969 111.16667175292969 130.8333282470703 Q 111.33334350585938 138.99998474121094 111.83334350585938 156.99998474121094 Q 112.33334350585938 174.99998474121094 112.50000762939453 183.66665649414062 Q 112.66667175292969 192.3333282470703 112.66667175292969 200.66665649414062 Q 112.66667175292969 208.99998474121094 111.33333587646484 227.16665649414062 Q 110 245.3333282470703 109.66667175292969 247.3333282470703 Q 109.33334350585938 249.3333282470703 109.16667175292969 250.16665649414062 L 108.98 251.01998474121095" stroke-linecap="round" />
</g>
</svg>