<?xml version="1.0" encoding="UTF-8" standalone="no" ?>
<!DOCTYPE svg PUBLIC "-//W3C//DTD SVG 1.1//EN" "http://www.w3.org/Graphics/SVG/1.1/DTD/svg11.dtd">
<svg xmlns="http://www.w3.org/2000/svg" xmlns:xlink="http://www.w3.org/1999/xlink" version="1.1" width="200" height="300" viewBox="0 0 200 300" xml:space="preserve">
<desc>Created with Fabric.js 4.6.0</desc>
<defs>
</defs>
<g transform="matrix(1 0 0 1 87.51 143.99)"  >
<path style="stroke: rgb(0,0,0); stroke-width: 20; stroke-dasharray: none; stroke-linecap: round; stroke-dashoffset: 0; stroke-linejoin: round; stroke-miterlimit: 10; fill: none; fill-rule: nonzero; opacity: 1;"  transform=" translate(-87.51, -143.99)" d="M 75.5 76.98 Q 75.5 77 75 77.5 Q 74.5 78 74.5 79.5 Q 74.5 81 74 83 Q 73.5 85 73 88 Q 72.5 91 72 93 Q 71.5 95 70.5 99 Q 69.5 103 69 105.5 Q 68.5 108 68 111.5 Q 67.5 115 67 117 Q 66.5 119 66.5 122 Q 66.5 125 66.5 128.5 Q 66.5 132 66 134.5 Q 65.5 137 65.5 139 Q 65.5 141 65 143 Q 64.5 145 64.5 147 Q 64.5 149 64 151 Q 63.5 153 63.5 154.5 Q 63.5 156 63 158 Q 62.5 160 62.5 162.5 Q 62.5 165 62.5 166.5 Q 62.5 168 62.5 169.5 Q 62.5 171 62.5 173.5 Q 62.5 176 62.5 177.5 Q 62.5 179 62.5 179.5 Q 62.5 180 62.5 180.5 Q 62.5 181 62.5 182.5 Q 62.5 184 62.5 185 Q 62.5 186 63 187.5 Q 63.5 189 64 190.5 Q 64.5 192 65 192.5 Q 65.5 193 65.5 193.5 Q 65.5 194 65.5 195 Q 65.5 196 66 196.5 Q 66.5 197 66.5 197.5 Q 66.5 198 67 199 Q 67.5 200 68 201 Q 68.5 202 69.5 203 Q 70.5 204 71 204.5 Q 71.5 205 72 205.5 Q 72.5 206 73 207 Q 73.5 208 74 208 Q 74.5 208 75.5 208.5 Q 76.5 209 80 210 Q 83.5 211 86 211 Q 88.5 211 89.5 211 Q 90.5 211 91.5 211 Q 92.5 211 93 211 Q 93.5 211 94.5 210.5 Q 95.5 210 97 210 Q 98.5 210 100.5 209.5 Q 102.5 209 105 208 Q 107.5 207 108.5 206.5 Q 109.5 206 110 205.5 Q 110.5 205 111 205 Q 111.5 205 112 204.5 L 112.52 203.98" stroke-linecap="round" />
</g>
<g transform="matrix(1 0 0 1 64.5 162.51)"  >
<path style="stroke: rgb(0,0,0); stroke-width: 20; stroke-dasharray: none; stroke-linecap: round; stroke-dashoffset: 0; stroke-linejoin: round; stroke-miterlimit: 10; fill: none; fill-rule: nonzero; opacity: 1;"  transform=" translate(-64.5, -162.51)" d="M 47.48 161 Q 47.5 161 48.5 161 Q 49.5 161 51 161 Q 52.5 161 54.5 161 Q 56.5 161 57 161 Q 57.5 161 58 161 Q 58.5 161 59 161 Q 59.5 161 60.5 161 Q 61.5 161 62 161 Q 62.5 161 63 161 Q 63.5 161 64 161 Q 64.5 161 65.5 161 Q 66.5 161 67 161 Q 67.5 161 68 161 Q 68.5 161 69 161 Q 69.5 161 70 161 Q 70.5 161 71 161 Q 71.5 161 72 161 Q 72.5 161 73 161 Q 73.5 161 74 161 Q 74.5 161 75 161 Q 75.5 161 76 161.5 Q 76.5 162 77 162 Q 77.5 162 78 162 Q 78.5 162 79 162 Q 79.5 162 80 162 Q 80.5 162 81 163 L 81.52 164.02" stroke-linecap="round" />
</g>
</svg>