<?xml version="1.0" encoding="UTF-8" standalone="no" ?>
<!DOCTYPE svg PUBLIC "-//W3C//DTD SVG 1.1//EN" "http://www.w3.org/Graphics/SVG/1.1/DTD/svg11.dtd">
<svg xmlns="http://www.w3.org/2000/svg" xmlns:xlink="http://www.w3.org/1999/xlink" version="1.1" width="200" height="300" viewBox="0 0 200 300" xml:space="preserve">
<desc>Created with Fabric.js 4.6.0</desc>
<defs>
</defs>
<g transform="matrix(1 0 0 1 103.51 159.5)"  >
<path style="stroke: rgb(0,0,0); stroke-width: 20; stroke-dasharray: none; stroke-linecap: round; stroke-dashoffset: 0; stroke-linejoin: round; stroke-miterlimit: 10; fill: none; fill-rule: nonzero; opacity: 1;"  transform=" translate(-103.51, -159.5)" d="M 65.5 115.98 Q 65.5 116 65 116.5 Q 64.5 117 64.5 118 Q 64.5 119 64 120.5 Q 63.5 122 63.5 123.5 Q 63.5 125 63.5 126 Q 63.5 127 63 128.5 Q 62.5 130 62.5 131.5 Q 62.5 133 62.5 135 Q 62.5 137 62.5 138 Q 62.5 139 62 140 Q 61.5 141 61.5 143 Q 61.5 145 61.5 146 Q 61.5 147 61.5 148 Q 61.5 149 61.5 150.5 Q 61.5 152 61.5 153 Q 61.5 154 61.5 155.5 Q 61.5 157 61.5 158.5 Q 61.5 160 61.5 161 Q 61.5 162 61.5 163 Q 61.5 164 61.5 165.5 Q 61.5 167 61.5 168 Q 61.5 169 61.5 170 Q 61.5 171 61.5 172 Q 61.5 173 61.5 173.5 Q 61.5 174 61.5 175 Q 61.5 176 61.5 177 Q 61.5 178 62 178.5 Q 62.5 179 62.5 180.5 Q 62.5 182 63 182.5 Q 63.5 183 64 184 Q 64.5 185 65 185.5 Q 65.5 186 65.5 186.5 Q 65.5 187 66 187.5 Q 66.5 188 67 188.5 Q 67.5 189 68.5 190 Q 69.5 191 70.5 192 Q 71.5 193 72 193.5 Q 72.5 194 73.5 194.5 Q 74.5 195 76 196 Q 77.5 197 78.5 197.5 Q 79.5 198 82 198.5 Q 84.5 199 85.5 199 Q 86.5 199 87 199 Q 87.5 199 88.5 199 Q 89.5 199 90 199 Q 90.5 199 91 199 Q 91.5 199 92.5 199 Q 93.5 199 94 199 Q 94.5 199 95 199 Q 95.5 199 96.5 198.5 Q 97.5 198 98 197.5 Q 98.5 197 99.5 196 Q 100.5 195 102.5 192.5 Q 104.5 190 107 187 Q 109.5 184 113 179 Q 116.5 174 118 171.5 Q 119.5 169 120.5 167.5 Q 121.5 166 121.5 165.5 Q 121.5 165 122 164.5 Q 122.5 164 122.5 163 Q 122.5 162 123.5 160 Q 124.5 158 125 157.5 Q 125.5 157 126 156 Q 126.5 155 126.5 154 Q 126.5 153 126.5 152.5 Q 126.5 152 126.5 151.5 Q 126.5 151 126.5 150.5 Q 126.5 150 126.5 149.5 Q 126.5 149 127 148.5 Q 127.5 148 127.5 147.5 Q 127.5 147 127.5 146.5 Q 127.5 146 127.5 145.5 Q 127.5 145 127 144 Q 126.5 143 126.5 142.5 Q 126.5 142 126.5 140.5 Q 126.5 139 126.5 138.5 Q 126.5 138 126.5 137.5 Q 126.5 137 126.5 136.5 Q 126.5 136 126.5 135.5 Q 126.5 135 126.5 135.5 Q 126.5 136 126.5 136.5 Q 126.5 137 126.5 139 Q 126.5 141 126.5 142.5 Q 126.5 144 126.5 145 Q 126.5 146 126.5 148 Q 126.5 150 126.5 151 Q 126.5 152 126.5 153 Q 126.5 154 126.5 154.5 Q 126.5 155 126.5 156 Q 126.5 157 126.5 157.5 Q 126.5 158 127 159 Q 127.5 160 127.5 161 Q 127.5 162 128 163 Q 128.5 164 129 165 Q 129.5 166 130 167 Q 130.5 168 130.5 169.5 Q 130.5 171 131 172.5 Q 131.5 174 132 175 Q 132.5 176 132.5 177 Q 132.5 178 133 179.5 Q 133.5 181 134 182.5 Q 134.5 184 135 185 Q 135.5 186 136 187.5 Q 136.5 189 137 189.5 Q 137.5 190 138 191 Q 138.5 192 138.5 192.5 Q 138.5 193 138.5 193.5 Q 138.5 194 139 195 Q 139.5 196 140 196.5 Q 140.5 197 141 197.5 Q 141.5 198 142 198.5 Q 142.5 199 142.5 200 Q 142.5 201 143 201 Q 143.5 201 143.5 201.5 Q 143.5 202 144 202 Q 144.5 202 145 202.5 L 145.52 203.02" stroke-linecap="round" />
</g>
</svg>