<?xml version="1.0" encoding="UTF-8" standalone="no" ?>
<!DOCTYPE svg PUBLIC "-//W3C//DTD SVG 1.1//EN" "http://www.w3.org/Graphics/SVG/1.1/DTD/svg11.dtd">
<svg xmlns="http://www.w3.org/2000/svg" xmlns:xlink="http://www.w3.org/1999/xlink" version="1.1" width="200" height="300" viewBox="0 0 200 300" xml:space="preserve">
<desc>Created with Fabric.js 4.4.0</desc>
<defs>
</defs>
<g transform="matrix(1 0 0 1 104.78 126.68)"  >
<path style="stroke: rgb(0,0,0); stroke-width: 20; stroke-dasharray: none; stroke-linecap: round; stroke-dashoffset: 0; stroke-linejoin: round; stroke-miterlimit: 10; fill: none; fill-rule: nonzero; opacity: 1;"  transform=" translate(-104.78, -126.68)" d="M 65.35334350585937 30.979984741210938 Q 65.33334350585938 30.999984741210938 64.83334350585938 31.999984741210938 Q 64.33334350585938 32.99998474121094 63.00000762939453 37.666656494140625 Q 61.66667175292969 42.33332824707031 60.333335876464844 49.666656494140625 Q 59 56.99998474121094 57.66666793823242 72.66665649414062 Q 56.333335876464844 88.33332824707031 56.000003814697266 109.6666488647461 Q 55.66667175292969 130.99996948242188 57.333335876464844 154.49996948242188 Q 59 177.99996948242188 61.5 188.83331298828125 Q 64 199.66665649414062 68.33333587646484 205.83331298828125 Q 72.66667175292969 211.99996948242188 81.50000762939453 216.83331298828125 Q 90.33334350585938 221.66665649414062 101.00000762939453 222.16665649414062 Q 111.66667175292969 222.66665649414062 121.16667175292969 218.16665649414062 Q 130.6666717529297 213.66665649414062 142.50000762939453 177.83331298828125 Q 154.33334350585938 141.99996948242188 153.33334350585938 129.33332061767578 Q 152.33334350585938 116.66667175292969 151.50000762939453 88.33332824707031 L 150.64667175292968 59.979984741210934" stroke-linecap="round" />
</g>
</svg>