<?xml version="1.0" encoding="UTF-8" standalone="no" ?>
<!DOCTYPE svg PUBLIC "-//W3C//DTD SVG 1.1//EN" "http://www.w3.org/Graphics/SVG/1.1/DTD/svg11.dtd">
<svg xmlns="http://www.w3.org/2000/svg" xmlns:xlink="http://www.w3.org/1999/xlink" version="1.1" width="200" height="300" viewBox="0 0 200 300" xml:space="preserve">
<desc>Created with Fabric.js 4.6.0</desc>
<defs>
</defs>
<g transform="matrix(1 0 0 1 96 170.93)"  >
<path style="stroke: rgb(0,0,0); stroke-width: 20; stroke-dasharray: none; stroke-linecap: round; stroke-dashoffset: 0; stroke-linejoin: round; stroke-miterlimit: 10; fill: none; fill-rule: nonzero; opacity: 1;"  transform=" translate(-96, -170.93)" d="M 60.48 128.98 Q 60.5 129 61 130.5 Q 61.5 132 62.5 134.5 Q 63.5 137 67 146 Q 70.5 155 72 159.5 Q 73.5 164 75 168 Q 76.5 172 78 176.5 Q 79.5 181 80 182.5 Q 80.5 184 81 186 Q 81.5 188 82 189.5 Q 82.5 191 82.5 192 Q 82.5 193 83 194 Q 83.5 195 83.5 195.5 Q 83.5 196 83.5 197 Q 83.5 198 84 198.5 Q 84.5 199 85 200 Q 85.5 201 85.5 201.5 Q 85.5 202 86 203 Q 86.5 204 86.5 204.5 Q 86.5 205 87 205.5 Q 87.5 206 87.5 206.5 Q 87.5 207 87.5 207.5 Q 87.5 208 87.5 208.5 Q 87.5 209 87.5 209.5 Q 87.5 210 88 210.5 Q 88.5 211 89 211.5 Q 89.5 212 89.5 212.5 Q 89.5 213 90 212.5 Q 90.5 212 92.5 209.5 Q 94.5 207 96 204.5 Q 97.5 202 98.5 199.5 Q 99.5 197 101 194 Q 102.5 191 103 190 Q 103.5 189 104 187 Q 104.5 185 105.5 182.5 Q 106.5 180 107.5 177.5 Q 108.5 175 109.5 172 Q 110.5 169 111 167.5 Q 111.5 166 112 165.5 Q 112.5 165 112.5 164.5 Q 112.5 164 112.5 163.5 Q 112.5 163 112.5 162.5 Q 112.5 162 113 161 Q 113.5 160 114.5 159 Q 115.5 158 116 156 Q 116.5 154 117 153 Q 117.5 152 118 151.5 Q 118.5 151 118.5 150.5 Q 118.5 150 119 149 Q 119.5 148 119.5 147.5 Q 119.5 147 120 146.5 Q 120.5 146 121 145 Q 121.5 144 122 143 Q 122.5 142 124.5 140 Q 126.5 138 127 137 Q 127.5 136 128 135 Q 128.5 134 129 133.5 Q 129.5 133 129.5 132.5 Q 129.5 132 129.5 131.5 Q 129.5 131 130.5 130.5 L 131.52 129.98" stroke-linecap="round" />
</g>
</svg>