<?xml version="1.0" encoding="UTF-8" standalone="no" ?>
<!DOCTYPE svg PUBLIC "-//W3C//DTD SVG 1.1//EN" "http://www.w3.org/Graphics/SVG/1.1/DTD/svg11.dtd">
<svg xmlns="http://www.w3.org/2000/svg" xmlns:xlink="http://www.w3.org/1999/xlink" version="1.1" width="200" height="300" viewBox="0 0 200 300" xml:space="preserve">
<desc>Created with Fabric.js 4.4.0</desc>
<defs>
</defs>
<g transform="matrix(1 0 0 1 105.88 143.95)"  >
<path style="stroke: rgb(0,0,0); stroke-width: 20; stroke-dasharray: none; stroke-linecap: round; stroke-dashoffset: 0; stroke-linejoin: round; stroke-miterlimit: 10; fill: none; fill-rule: nonzero; opacity: 1;"  transform=" translate(-105.88, -143.95)" d="M 49.31333587646484 36.31332824707031 Q 49.333335876464844 36.33332824707031 49.16666793823242 36.666656494140625 Q 49 36.99998474121094 49.66666793823242 41.49998474121094 Q 50.333335876464844 45.99998474121094 53.000003814697266 56.83332824707031 Q 55.66667175292969 67.66667175292969 63.00000762939453 97.66667175292969 Q 70.33334350585938 127.66667175292969 78.00000762939453 151.1666717529297 Q 85.66667175292969 174.6666717529297 88.16667175292969 181.8333282470703 Q 90.66667175292969 188.99998474121094 96.83333587646484 205.8333282470703 Q 103 222.6666717529297 106.16667175292969 233.1666717529297 Q 109.33334350585938 243.6666717529297 110.66667175292969 249 Q 112 254.3333282470703 112.83333587646484 258.5 Q 113.66667175292969 262.6666717529297 114.33333587646484 266.8333282470703 Q 115 270.99998474121094 115.33333587646484 272.99998474121094 Q 115.66667175292969 274.99998474121094 115.66667175292969 275.6666564941406 Q 115.66667175292969 276.3333282470703 115.66667175292969 276.8333282470703 Q 115.66667175292969 277.3333282470703 115.66667175292969 277.6666564941406 Q 115.66667175292969 277.99998474121094 115.66667175292969 278.3333282470703 Q 115.66667175292969 278.6666717529297 115.33333587646484 278.3333282470703 Q 115 277.99998474121094 114.66667175292969 277.3333282470703 Q 114.33334350585938 276.6666717529297 113.50000762939453 270.6666717529297 Q 112.66667175292969 264.6666717529297 112.00000762939453 260.1666717529297 Q 111.33334350585938 255.6666717529297 110.00000762939453 215.6666717529297 Q 108.66667175292969 175.6666717529297 109.50000762939453 160.3333282470703 Q 110.33334350585938 144.99998474121094 112.66667175292969 129.49998474121094 Q 115 113.99998474121094 118.83333587646484 100.16665649414062 Q 122.66667175292969 86.33332824707031 130.83333587646484 64.83332824707031 Q 139 43.33332824707031 143 36.166656494140625 Q 147 28.999984741210938 152.83333587646484 21.166656494140625 Q 158.6666717529297 13.333328247070312 160.6666717529297 11.333328247070312 L 162.6866717529297 9.313328247070313" stroke-linecap="round" />
</g>
</svg>