<?xml version="1.0" encoding="UTF-8" standalone="no" ?>
<!DOCTYPE svg PUBLIC "-//W3C//DTD SVG 1.1//EN" "http://www.w3.org/Graphics/SVG/1.1/DTD/svg11.dtd">
<svg xmlns="http://www.w3.org/2000/svg" xmlns:xlink="http://www.w3.org/1999/xlink" version="1.1" width="200" height="300" viewBox="0 0 200 300" xml:space="preserve">
<desc>Created with Fabric.js 4.4.0</desc>
<defs>
</defs>
<g transform="matrix(1 0 0 1 91.5 134.72)"  >
<path style="stroke: rgb(0,0,0); stroke-width: 20; stroke-dasharray: none; stroke-linecap: round; stroke-dashoffset: 0; stroke-linejoin: round; stroke-miterlimit: 10; fill: none; fill-rule: nonzero; opacity: 1;"  transform=" translate(-91.5, -134.72)" d="M 12.98 108.33332824707031 Q 13 108.33332824707031 13 107.33332824707031 Q 13 106.33332824707031 13.5 106.33332824707031 Q 14 106.33332824707031 15 106.33332824707031 Q 16 106.33332824707031 18 107.33332824707031 Q 20 108.33332824707031 23 112.33332824707031 Q 26 116.33332824707031 31.5 124.83332824707031 Q 37 133.3333282470703 43 143.8333282470703 Q 49 154.3333282470703 54.5 164.8333282470703 Q 60 175.3333282470703 64.5 183.8333282470703 Q 69 192.3333282470703 72.5 198.8333282470703 Q 76 205.3333282470703 77.5 207.8333282470703 Q 79 210.3333282470703 79 209.3333282470703 Q 79 208.3333282470703 79 207.8333282470703 Q 79 207.3333282470703 79 204.3333282470703 Q 79 201.3333282470703 80.5 194.3333282470703 Q 82 187.3333282470703 84.5 179.8333282470703 Q 87 172.3333282470703 90 163.3333282470703 Q 93 154.3333282470703 96.5 147.3333282470703 Q 100 140.3333282470703 103 136.3333282470703 Q 106 132.3333282470703 106.5 131.8333282470703 Q 107 131.3333282470703 107.5 131.8333282470703 Q 108 132.3333282470703 109 134.3333282470703 Q 110 136.3333282470703 112 145.3333282470703 Q 114 154.3333282470703 117 164.3333282470703 Q 120 174.3333282470703 123 184.3333282470703 Q 126 194.3333282470703 128.5 203.3333282470703 Q 131 212.3333282470703 133 216.3333282470703 Q 135 220.3333282470703 135.5 220.8333282470703 Q 136 221.3333282470703 136 219.8333282470703 Q 136 218.3333282470703 136 215.3333282470703 Q 136 212.3333282470703 136 202.3333282470703 Q 136 192.3333282470703 138.5 182.3333282470703 Q 141 172.3333282470703 144.5 159.3333282470703 Q 148 146.3333282470703 151 133.3333282470703 Q 154 120.33332824707031 157 107.33332824707031 Q 160 94.33332824707031 163.5 83.33332824707031 Q 167 72.33332824707031 168 63.33332824707031 Q 169 54.33332824707031 169.5 51.33332824707031 L 170.02 48.31332824707031" stroke-linecap="round" />
</g>
</svg>