<?xml version="1.0" encoding="UTF-8" standalone="no" ?>
<!DOCTYPE svg PUBLIC "-//W3C//DTD SVG 1.1//EN" "http://www.w3.org/Graphics/SVG/1.1/DTD/svg11.dtd">
<svg xmlns="http://www.w3.org/2000/svg" xmlns:xlink="http://www.w3.org/1999/xlink" version="1.1" width="200" height="300" viewBox="0 0 200 300" xml:space="preserve">
<desc>Created with Fabric.js 4.6.0</desc>
<defs>
</defs>
<g transform="matrix(1 0 0 1 78.67 165.49)"  >
<path style="stroke: rgb(0,0,0); stroke-width: 20; stroke-dasharray: none; stroke-linecap: round; stroke-dashoffset: 0; stroke-linejoin: round; stroke-miterlimit: 10; fill: none; fill-rule: nonzero; opacity: 1;"  transform=" translate(-78.67, -165.49)" d="M 14.64668701171875 152.06331298828124 Q 14.66668701171875 152.08331298828125 14.66668701171875 153.08331298828125 Q 14.66668701171875 154.08331298828125 16.66668701171875 156.08331298828125 Q 18.66668701171875 158.08331298828128 22.66668701171875 164.58331298828125 Q 26.66668701171875 171.08331298828125 29.66668701171875 175.08331298828125 Q 32.66668701171875 179.08331298828128 34.66668701171875 182.58331298828125 Q 36.66668701171875 186.08331298828125 39.16668701171875 188.58331298828125 Q 41.66668701171876 191.08331298828128 43.16668701171876 193.58331298828125 Q 44.66668701171876 196.08331298828125 45.66668701171875 197.58331298828125 Q 46.66668701171875 199.08331298828125 47.16668701171875 199.08331298828125 Q 47.66668701171876 199.08331298828125 47.66668701171876 199.58331298828125 Q 47.66668701171876 200.08331298828128 49.16668701171876 199.08331298828125 Q 50.66668701171876 198.08331298828125 52.66668701171875 196.08331298828125 Q 54.66668701171875 194.08331298828128 57.66668701171875 190.58331298828125 Q 60.66668701171875 187.08331298828125 66.66668701171875 182.58331298828125 Q 72.66668701171875 178.08331298828125 77.16668701171875 175.08331298828125 Q 81.66668701171875 172.08331298828125 85.16668701171875 169.58331298828125 Q 88.66668701171876 167.08331298828128 91.66668701171876 165.08331298828125 Q 94.66668701171876 163.08331298828125 95.16668701171875 162.08331298828125 Q 95.66668701171875 161.08331298828128 96.16668701171875 161.08331298828128 Q 96.66668701171875 161.08331298828128 96.66668701171875 160.58331298828125 Q 96.66668701171875 160.08331298828125 96.66668701171875 159.58331298828125 Q 96.66668701171875 159.08331298828125 96.66668701171875 158.58331298828125 Q 96.66668701171875 158.08331298828128 96.66668701171875 157.58331298828125 Q 96.66668701171875 157.08331298828125 96.66668701171875 156.58331298828125 Q 96.66668701171875 156.08331298828125 97.16668701171875 156.08331298828125 Q 97.66668701171876 156.08331298828125 98.16668701171875 156.58331298828125 Q 98.66668701171875 157.08331298828125 99.16668701171875 159.08331298828125 Q 99.66668701171875 161.08331298828128 99.66668701171875 162.08331298828125 Q 99.66668701171875 163.08331298828125 100.16668701171875 166.58331298828125 Q 100.66668701171876 170.08331298828128 101.16668701171875 172.58331298828125 Q 101.66668701171875 175.08331298828125 102.66668701171875 178.08331298828125 Q 103.66668701171876 181.08331298828125 104.16668701171875 183.58331298828125 Q 104.66668701171875 186.08331298828125 106.66668701171875 189.58331298828125 Q 108.66668701171875 193.08331298828125 109.16668701171875 194.08331298828125 Q 109.66668701171876 195.08331298828125 109.66668701171876 195.58331298828125 Q 109.66668701171876 196.08331298828125 110.16668701171875 196.58331298828125 Q 110.66668701171875 197.08331298828128 111.16668701171875 197.08331298828128 Q 111.66668701171875 197.08331298828128 112.16668701171875 197.08331298828128 Q 112.66668701171876 197.08331298828128 113.16668701171875 197.08331298828128 Q 113.66668701171875 197.08331298828128 114.16668701171875 197.08331298828128 Q 114.66668701171875 197.08331298828128 116.16668701171875 196.58331298828125 Q 117.66668701171875 196.08331298828125 118.66668701171875 193.58331298828125 Q 119.66668701171875 191.08331298828128 120.66668701171875 187.58331298828125 Q 121.66668701171875 184.08331298828125 122.66668701171875 179.58331298828125 Q 123.66668701171875 175.08331298828125 124.16668701171875 170.08331298828125 Q 124.66668701171875 165.08331298828125 125.16668701171875 161.58331298828125 Q 125.66668701171875 158.08331298828128 126.66668701171875 155.08331298828125 Q 127.66668701171875 152.08331298828125 128.66668701171875 150.08331298828125 Q 129.66668701171875 148.08331298828125 130.16668701171875 146.08331298828125 Q 130.66668701171875 144.08331298828125 132.16668701171875 142.58331298828125 Q 133.66668701171875 141.08331298828125 135.16668701171875 138.58331298828125 Q 136.66668701171875 136.08331298828125 138.16668701171875 135.58331298828125 Q 139.66668701171875 135.08331298828125 140.16668701171875 134.08331298828125 Q 140.66668701171875 133.08331298828125 141.16668701171875 132.58331298828125 Q 141.66668701171875 132.08331298828125 142.16668701171875 131.58331298828125 L 142.68668701171876 131.06331298828124" stroke-linecap="round" />
</g>
</svg>