<?xml version="1.0" encoding="UTF-8" standalone="no" ?>
<!DOCTYPE svg PUBLIC "-//W3C//DTD SVG 1.1//EN" "http://www.w3.org/Graphics/SVG/1.1/DTD/svg11.dtd">
<svg xmlns="http://www.w3.org/2000/svg" xmlns:xlink="http://www.w3.org/1999/xlink" version="1.1" width="200" height="300" viewBox="0 0 200 300" xml:space="preserve">
<desc>Created with Fabric.js 4.4.0</desc>
<defs>
</defs>
<g transform="matrix(1 0 0 1 119.33 133.44)"  >
<path style="stroke: rgb(0,0,0); stroke-width: 20; stroke-dasharray: none; stroke-linecap: round; stroke-dashoffset: 0; stroke-linejoin: round; stroke-miterlimit: 10; fill: none; fill-rule: nonzero; opacity: 1;"  transform=" translate(-119.33, -133.44)" d="M 40.646671752929684 45.646671752929684 Q 40.66667175292969 45.66667175292969 42.000003814697266 57.83332824707031 Q 43.333335876464844 69.99998474121094 46.000003814697266 86.16665649414062 Q 48.66667175292969 102.33332824707031 52.333335876464844 119.49999237060547 Q 56 136.66665649414062 60.16667175292969 151.5 Q 64.33334350585938 166.33334350585938 68.66667175292969 178.5 Q 73 190.66665649414062 76.16667175292969 199.5 Q 79.33334350585938 208.33334350585938 81.16667175292969 213 Q 83 217.66665649414062 83.83333587646484 219.33331298828125 Q 84.66667175292969 220.99996948242188 85.16667175292969 221.16665649414062 Q 85.66667175292969 221.33334350585938 87.33333587646484 218.33334350585938 Q 89 215.33334350585938 92.83333587646484 205.33334350585938 Q 96.66667175292969 195.33334350585938 100.33333587646484 185.16665649414062 Q 104 174.99996948242188 107.16667175292969 167.99996948242188 Q 110.33334350585938 160.99996948242188 113.33334350585938 156.83331298828125 Q 116.33334350585938 152.66665649414062 119.50000762939453 150.5 Q 122.66667175292969 148.33334350585938 127.00000762939453 149.16665649414062 Q 131.33334350585938 149.99996948242188 135.83334350585938 154.16665649414062 Q 140.33334350585938 158.33334350585938 145.50000762939453 166.16665649414062 Q 150.6666717529297 173.99996948242188 155.6666717529297 182.66665649414062 Q 160.6666717529297 191.33334350585938 164.33333587646484 197.5 Q 168 203.66665649414062 170.33333587646484 206.83331298828125 Q 172.6666717529297 209.99996948242188 174.00000762939453 210.99996948242188 Q 175.33334350585938 211.99996948242188 176.33334350585938 211.49996948242188 Q 177.33334350585938 210.99996948242188 179.00000762939453 204.83331298828125 Q 180.6666717529297 198.66665649414062 181.83333587646484 186.33331298828125 Q 183 173.99996948242188 183.6666717529297 160.66665649414062 Q 184.33334350585938 147.33334350585938 185.00001525878906 134.66665649414062 Q 185.66668701171875 121.99996948242188 187.00001525878906 110.83332061767578 Q 188.33334350585938 99.66667175292969 190.33334350585938 88.5 Q 192.33334350585938 77.33332824707031 195.1666717529297 67.66665649414062 L 198.02 57.979984741210934" stroke-linecap="round" />
</g>
</svg>