<?xml version="1.0" encoding="UTF-8" standalone="no" ?>
<!DOCTYPE svg PUBLIC "-//W3C//DTD SVG 1.1//EN" "http://www.w3.org/Graphics/SVG/1.1/DTD/svg11.dtd">
<svg xmlns="http://www.w3.org/2000/svg" xmlns:xlink="http://www.w3.org/1999/xlink" version="1.1" width="200" height="300" viewBox="0 0 200 300" xml:space="preserve">
<desc>Created with Fabric.js 4.4.0</desc>
<defs>
</defs>
<g transform="matrix(1 0 0 1 119.59 170.32)"  >
<path style="stroke: rgb(0,0,0); stroke-width: 20; stroke-dasharray: none; stroke-linecap: round; stroke-dashoffset: 0; stroke-linejoin: round; stroke-miterlimit: 10; fill: none; fill-rule: nonzero; opacity: 1;"  transform=" translate(-119.59, -170.32)" d="M 65.64667175292969 100.31332824707032 Q 65.66667175292969 100.33332824707031 66.66667175292969 101.33332824707031 Q 67.66667175292969 102.33332824707031 69.16667175292969 105.33332824707031 Q 70.66667175292969 108.33332824707031 73.66667175292969 110.83332824707031 Q 76.66667175292969 113.33332824707031 84.66667175292969 121.83332824707031 Q 92.66667175292969 130.3333282470703 101.66667175292969 142.3333282470703 Q 110.66667175292969 154.3333282470703 118.16667175292969 164.8333282470703 Q 125.66667175292969 175.3333282470703 133.1666717529297 184.8333282470703 Q 140.6666717529297 194.3333282470703 146.1666717529297 201.3333282470703 Q 151.6666717529297 208.3333282470703 157.6666717529297 216.3333282470703 Q 163.6666717529297 224.3333282470703 167.1666717529297 229.3333282470703 Q 170.6666717529297 234.3333282470703 171.6666717529297 236.8333282470703 Q 172.6666717529297 239.3333282470703 173.1666717529297 239.8333282470703 Q 173.6666717529297 240.3333282470703 173.1666717529297 240.3333282470703 Q 172.6666717529297 240.3333282470703 172.1666717529297 239.3333282470703 Q 171.6666717529297 238.3333282470703 171.1666717529297 238.3333282470703 L 170.64667175292968 238.3333282470703" stroke-linecap="round" />
</g>
<g transform="matrix(1 0 0 1 130.59 152.91)"  >
<path style="stroke: rgb(0,0,0); stroke-width: 20; stroke-dasharray: none; stroke-linecap: round; stroke-dashoffset: 0; stroke-linejoin: round; stroke-miterlimit: 10; fill: none; fill-rule: nonzero; opacity: 1;"  transform=" translate(-130.59, -152.91)" d="M 84.64667175292969 202.35332824707032 Q 84.66667175292969 202.3333282470703 85.66667175292969 202.3333282470703 Q 86.66667175292969 202.3333282470703 88.66667175292969 201.3333282470703 Q 90.66667175292969 200.3333282470703 96.66667175292969 196.3333282470703 Q 102.66667175292969 192.3333282470703 111.66667175292969 186.3333282470703 Q 120.66667175292969 180.3333282470703 130.1666717529297 170.3333282470703 Q 139.6666717529297 160.3333282470703 147.1666717529297 150.3333282470703 Q 154.6666717529297 140.3333282470703 159.6666717529297 130.8333282470703 Q 164.6666717529297 121.33332824707031 168.1666717529297 116.33332824707031 Q 171.6666717529297 111.33332824707031 173.6666717529297 107.83332824707031 Q 175.6666717529297 104.33332824707031 176.1666717529297 103.83332824707031 Q 176.6666717529297 103.33332824707031 176.1666717529297 103.83332824707031 Q 175.6666717529297 104.33332824707031 175.1666717529297 104.33332824707031 Q 174.6666717529297 104.33332824707031 174.1666717529297 105.83332824707031 Q 173.6666717529297 107.33332824707031 172.1666717529297 108.33332824707031 Q 170.6666717529297 109.33332824707031 170.1666717529297 110.83332824707031 Q 169.6666717529297 112.33332824707031 168.1666717529297 114.33332824707031 Q 166.6666717529297 116.33332824707031 166.6666717529297 117.33332824707031 L 166.6666717529297 118.35332824707031" stroke-linecap="round" />
</g>
</svg>