<?xml version="1.0" encoding="UTF-8" standalone="no" ?>
<!DOCTYPE svg PUBLIC "-//W3C//DTD SVG 1.1//EN" "http://www.w3.org/Graphics/SVG/1.1/DTD/svg11.dtd">
<svg xmlns="http://www.w3.org/2000/svg" xmlns:xlink="http://www.w3.org/1999/xlink" version="1.1" width="200" height="300" viewBox="0 0 200 300" xml:space="preserve">
<desc>Created with Fabric.js 4.6.0</desc>
<defs>
</defs>
<g transform="matrix(1 0 0 1 99.67 149.08)"  >
<path style="stroke: rgb(0,0,0); stroke-width: 20; stroke-dasharray: none; stroke-linecap: round; stroke-dashoffset: 0; stroke-linejoin: round; stroke-miterlimit: 10; fill: none; fill-rule: nonzero; opacity: 1;"  transform=" translate(-99.67, -149.08)" d="M 53.646687011718754 91.06331298828127 Q 53.66668701171876 91.08331298828126 55.66668701171875 93.08331298828125 Q 57.66668701171875 95.08331298828125 59.66668701171875 98.08331298828125 Q 61.66668701171875 101.08331298828125 66.66668701171875 108.58331298828125 Q 71.66668701171875 116.08331298828125 82.16668701171875 128.58331298828125 Q 92.66668701171875 141.08331298828125 96.16668701171875 146.08331298828125 Q 99.66668701171875 151.08331298828125 103.66668701171875 156.08331298828125 Q 107.66668701171875 161.08331298828128 111.16668701171875 165.58331298828128 Q 114.66668701171875 170.08331298828128 119.66668701171875 174.58331298828128 Q 124.66668701171875 179.08331298828128 127.16668701171875 182.08331298828128 Q 129.66668701171875 185.08331298828128 130.66668701171875 187.08331298828125 Q 131.66668701171875 189.08331298828125 133.66668701171875 191.08331298828125 Q 135.66668701171875 193.08331298828125 136.16668701171875 194.08331298828125 Q 136.66668701171875 195.08331298828125 137.66668701171875 196.08331298828125 Q 138.66668701171875 197.08331298828128 139.66668701171875 199.08331298828125 Q 140.66668701171875 201.08331298828125 141.66668701171875 201.58331298828125 Q 142.66668701171875 202.08331298828125 143.16668701171875 203.08331298828125 Q 143.66668701171875 204.08331298828125 144.66668701171875 205.58331298828125 L 145.68668701171876 207.10331298828126" stroke-linecap="round" />
</g>
<g transform="matrix(1 0 0 1 111.67 131.58)"  >
<path style="stroke: rgb(0,0,0); stroke-width: 20; stroke-dasharray: none; stroke-linecap: round; stroke-dashoffset: 0; stroke-linejoin: round; stroke-miterlimit: 10; fill: none; fill-rule: nonzero; opacity: 1;"  transform=" translate(-111.67, -131.58)" d="M 74.64668701171875 186.10331298828126 Q 74.66668701171875 186.08331298828125 75.66668701171875 184.08331298828125 Q 76.66668701171875 182.08331298828128 78.16668701171875 180.08331298828125 Q 79.66668701171876 178.08331298828125 84.66668701171875 169.58331298828125 Q 89.66668701171875 161.08331298828128 93.66668701171875 154.08331298828125 Q 97.66668701171876 147.08331298828125 99.16668701171876 144.58331298828125 Q 100.66668701171876 142.08331298828125 103.16668701171875 138.58331298828125 Q 105.66668701171875 135.08331298828125 110.16668701171875 128.58331298828125 Q 114.66668701171875 122.08331298828125 117.66668701171875 118.58331298828125 Q 120.66668701171875 115.08331298828126 124.66668701171875 110.58331298828126 Q 128.66668701171875 106.08331298828126 132.16668701171875 101.08331298828125 Q 135.66668701171875 96.08331298828125 137.16668701171875 94.58331298828125 Q 138.66668701171875 93.08331298828125 139.16668701171875 92.08331298828125 Q 139.66668701171875 91.08331298828126 140.16668701171875 90.08331298828125 Q 140.66668701171875 89.08331298828125 141.66668701171875 87.58331298828125 Q 142.66668701171875 86.08331298828125 143.66668701171875 84.58331298828125 Q 144.66668701171875 83.08331298828125 145.66668701171875 82.08331298828125 Q 146.66668701171875 81.08331298828125 146.66668701171875 80.58331298828125 Q 146.66668701171875 80.08331298828125 147.16668701171875 79.08331298828125 Q 147.66668701171875 78.08331298828125 148.16668701171875 77.58331298828125 L 148.68668701171876 77.06331298828125" stroke-linecap="round" />
</g>
</svg>