<?xml version="1.0" encoding="UTF-8" standalone="no" ?>
<!DOCTYPE svg PUBLIC "-//W3C//DTD SVG 1.1//EN" "http://www.w3.org/Graphics/SVG/1.1/DTD/svg11.dtd">
<svg xmlns="http://www.w3.org/2000/svg" xmlns:xlink="http://www.w3.org/1999/xlink" version="1.1" width="200" height="300" viewBox="0 0 200 300" xml:space="preserve">
<desc>Created with Fabric.js 4.4.0</desc>
<defs>
</defs>
<g transform="matrix(1 0 0 1 100.67 144.5)"  >
<path style="stroke: rgb(0,0,0); stroke-width: 20; stroke-dasharray: none; stroke-linecap: round; stroke-dashoffset: 0; stroke-linejoin: round; stroke-miterlimit: 10; fill: none; fill-rule: nonzero; opacity: 1;"  transform=" translate(-100.67, -144.5)" d="M 30.313335876464844 27.646671752929688 Q 30.333335876464844 27.666671752929688 31.000003814697266 28.166671752929688 Q 31.666671752929688 28.666671752929688 34.66667175292969 31.833328247070312 Q 37.66667175292969 34.99998474121094 43.833335876464844 42.49998474121094 Q 50 49.99998474121094 58.16667175292969 61.666656494140625 Q 66.33334350585938 73.33332824707031 74.83334350585938 88 Q 83.33334350585938 102.66667175292969 92.00000762939453 118.33332824707031 Q 100.66667175292969 133.99998474121094 108.83333587646484 149.66665649414062 Q 117 165.3333282470703 124.33333587646484 180 Q 131.6666717529297 194.6666717529297 138.33333587646484 207 Q 145 219.3333282470703 151.5 230 Q 158 240.6666717529297 164.5 251 L 171.02 261.3533282470703" stroke-linecap="round" />
</g>
<g transform="matrix(1 0 0 1 105.33 155)"  >
<path style="stroke: rgb(0,0,0); stroke-width: 20; stroke-dasharray: none; stroke-linecap: round; stroke-dashoffset: 0; stroke-linejoin: round; stroke-miterlimit: 10; fill: none; fill-rule: nonzero; opacity: 1;"  transform=" translate(-105.33, -155)" d="M 52.98 263.0199847412109 Q 53 262.99998474121094 53.66666793823242 260.3333282470703 Q 54.333335876464844 257.6666717529297 56.66666793823242 250.1666717529297 Q 59 242.6666717529297 63.333335876464844 230.5 Q 67.66667175292969 218.3333282470703 73.50000762939453 201.8333282470703 Q 79.33334350585938 185.3333282470703 86.16667175292969 167.5 Q 93 149.6666717529297 100.33333587646484 134 Q 107.66667175292969 118.33332824707031 115.83333587646484 104.83332824707031 Q 124 91.33332824707031 132.5 79.33332824707031 Q 141 67.33332824707031 149.33333587646484 57.166656494140625 L 157.6866717529297 46.979984741210934" stroke-linecap="round" />
</g>
</svg>