<?xml version="1.0" encoding="UTF-8" standalone="no" ?>
<!DOCTYPE svg PUBLIC "-//W3C//DTD SVG 1.1//EN" "http://www.w3.org/Graphics/SVG/1.1/DTD/svg11.dtd">
<svg xmlns="http://www.w3.org/2000/svg" xmlns:xlink="http://www.w3.org/1999/xlink" version="1.1" width="200" height="300" viewBox="0 0 200 300" xml:space="preserve">
<desc>Created with Fabric.js 4.4.0</desc>
<defs>
</defs>
<g transform="matrix(1 0 0 1 68.33 77.5)"  >
<path style="stroke: rgb(0,0,0); stroke-width: 20; stroke-dasharray: none; stroke-linecap: round; stroke-dashoffset: 0; stroke-linejoin: round; stroke-miterlimit: 10; fill: none; fill-rule: nonzero; opacity: 1;"  transform=" translate(-68.33, -77.5)" d="M 45.646671752929684 21.313328247070313 Q 45.66667175292969 21.333328247070312 45.833335876464844 22 Q 46 22.666671752929688 49.16666793823242 30 Q 52.333335876464844 37.33332824707031 57.66666793823242 51.666656494140625 Q 63 65.99998474121094 69 80.83332824707031 Q 75 95.66667175292969 79.5 106.83332824707031 Q 84 117.99998474121094 87.5 125.83332824707031 L 91.02 133.6866717529297" stroke-linecap="round" />
</g>
<g transform="matrix(1 0 0 1 127.01 151.33)"  >
<path style="stroke: rgb(0,0,0); stroke-width: 20; stroke-dasharray: none; stroke-linecap: round; stroke-dashoffset: 0; stroke-linejoin: round; stroke-miterlimit: 10; fill: none; fill-rule: nonzero; opacity: 1;"  transform=" translate(-127.01, -151.33)" d="M 63.35334350585938 274.0199847412109 Q 63.333343505859375 273.99998474121094 62.333343505859375 272.8333282470703 Q 61.333343505859375 271.6666717529297 60.333343505859375 268.8333282470703 Q 59.333343505859375 265.99998474121094 59.333343505859375 259.8333282470703 Q 59.333343505859375 253.6666717529297 61.16667175292969 244 Q 63 234.3333282470703 67.66667175292969 223 Q 72.33334350585938 211.6666717529297 80.00000762939453 198.3333282470703 Q 87.66667175292969 184.99998474121094 97.16667175292969 171.49998474121094 Q 106.66667175292969 157.99998474121094 117.66667175292969 143.16665649414062 Q 128.6666717529297 128.3333282470703 139.00000762939453 112.83332824707031 Q 149.33334350585938 97.33332824707031 158.1666717529297 82.83332824707031 Q 167 68.33332824707031 174.83333587646484 56.166656494140625 Q 182.6666717529297 43.99998474121094 188.66667938232422 36.33332824707031 L 194.68668701171876 28.646671752929688" stroke-linecap="round" />
</g>
</svg>