<?xml version="1.0" encoding="UTF-8" standalone="no" ?>
<!DOCTYPE svg PUBLIC "-//W3C//DTD SVG 1.1//EN" "http://www.w3.org/Graphics/SVG/1.1/DTD/svg11.dtd">
<svg xmlns="http://www.w3.org/2000/svg" xmlns:xlink="http://www.w3.org/1999/xlink" version="1.1" width="200" height="300" viewBox="0 0 200 300" xml:space="preserve">
<desc>Created with Fabric.js 4.4.0</desc>
<defs>
</defs>
<g transform="matrix(1 0 0 1 62.67 154.83)"  >
<path style="stroke: rgb(0,0,0); stroke-width: 20; stroke-dasharray: none; stroke-linecap: round; stroke-dashoffset: 0; stroke-linejoin: round; stroke-miterlimit: 10; fill: none; fill-rule: nonzero; opacity: 1;"  transform=" translate(-62.67, -154.83)" d="M 46.646671752929684 130.3133282470703 Q 46.66667175292969 130.3333282470703 48.66667175292969 132.3333282470703 Q 50.66667175292969 134.3333282470703 53.16667175292969 140.3333282470703 Q 55.66667175292969 146.3333282470703 58.16667175292969 151.3333282470703 Q 60.66667175292969 156.3333282470703 63.66667175292969 161.3333282470703 Q 66.66667175292969 166.3333282470703 68.66667175292969 169.3333282470703 Q 70.66667175292969 172.3333282470703 72.16667175292969 173.8333282470703 Q 73.66667175292969 175.3333282470703 74.16667175292969 175.3333282470703 Q 74.66667175292969 175.3333282470703 75.16667175292969 175.8333282470703 Q 75.66667175292969 176.3333282470703 76.16667175292969 176.3333282470703 Q 76.66667175292969 176.3333282470703 77.16667175292969 177.3333282470703 Q 77.66667175292969 178.3333282470703 78.16667175292969 178.8333282470703 L 78.68667175292968 179.35332824707032" stroke-linecap="round" />
</g>
<g transform="matrix(1 0 0 1 98.17 168.33)"  >
<path style="stroke: rgb(0,0,0); stroke-width: 20; stroke-dasharray: none; stroke-linecap: round; stroke-dashoffset: 0; stroke-linejoin: round; stroke-miterlimit: 10; fill: none; fill-rule: nonzero; opacity: 1;"  transform=" translate(-98.17, -168.33)" d="M 68.64667175292969 240.35332824707032 Q 68.66667175292969 240.3333282470703 68.66667175292969 239.8333282470703 Q 68.66667175292969 239.3333282470703 69.16667175292969 238.8333282470703 Q 69.66667175292969 238.3333282470703 70.66667175292969 234.8333282470703 Q 71.66667175292969 231.3333282470703 72.66667175292969 227.3333282470703 Q 73.66667175292969 223.3333282470703 74.66667175292969 217.8333282470703 Q 75.66667175292969 212.3333282470703 77.66667175292969 204.3333282470703 Q 79.66667175292969 196.3333282470703 83.16667175292969 188.3333282470703 Q 86.66667175292969 180.3333282470703 90.16667175292969 171.3333282470703 Q 93.66667175292969 162.3333282470703 98.16667175292969 152.3333282470703 Q 102.66667175292969 142.3333282470703 105.66667175292969 137.3333282470703 Q 108.66667175292969 132.3333282470703 113.66667175292969 124.33332824707031 Q 118.66667175292969 116.33332824707031 121.66667175292969 109.83332824707031 Q 124.66667175292969 103.33332824707031 125.16667175292969 101.83332824707031 Q 125.66667175292969 100.33332824707031 126.66667175292969 98.33332824707031 L 127.68667175292968 96.31332824707032" stroke-linecap="round" />
</g>
</svg>