<?xml version="1.0" encoding="UTF-8" standalone="no" ?>
<!DOCTYPE svg PUBLIC "-//W3C//DTD SVG 1.1//EN" "http://www.w3.org/Graphics/SVG/1.1/DTD/svg11.dtd">
<svg xmlns="http://www.w3.org/2000/svg" xmlns:xlink="http://www.w3.org/1999/xlink" version="1.1" width="200" height="300" viewBox="0 0 200 300" xml:space="preserve">
<desc>Created with Fabric.js 4.6.0</desc>
<defs>
</defs>
<g transform="matrix(1 0 0 1 104.93 143.49)"  >
<path style="stroke: rgb(0,0,0); stroke-width: 20; stroke-dasharray: none; stroke-linecap: round; stroke-dashoffset: 0; stroke-linejoin: round; stroke-miterlimit: 10; fill: none; fill-rule: nonzero; opacity: 1;"  transform=" translate(-104.93, -143.49)" d="M 43.48 101.98 Q 43.5 102 44 102 Q 44.5 102 45.5 102.5 Q 46.5 103 49 104 Q 51.5 105 55.5 106 Q 59.5 107 62.5 107.5 Q 65.5 108 68 108 Q 70.5 108 75 108.5 Q 79.5 109 81.5 109 Q 83.5 109 84.5 109.5 Q 85.5 110 87.5 110 Q 89.5 110 90.5 110 Q 91.5 110 94.5 110 Q 97.5 110 99.5 110.5 Q 101.5 111 104 111 Q 106.5 111 110 111 Q 113.5 111 114 111 Q 114.5 111 115.5 111 Q 116.5 111 117.5 111 Q 118.5 111 119 111 Q 119.5 111 121 111 Q 122.5 111 123.5 111 Q 124.5 111 125.5 111 Q 126.5 111 128.5 111 Q 130.5 111 131.5 111 Q 132.5 111 133.5 111 Q 134.5 111 135.5 111 Q 136.5 111 137.5 111 Q 138.5 111 140 111 Q 141.5 111 142.5 111 Q 143.5 111 145 111 Q 146.5 111 147.5 111 Q 148.5 111 149 111 Q 149.5 111 150.5 111 Q 151.5 111 152 111 Q 152.5 111 153 111 Q 153.5 111 154 111 Q 154.5 111 156.5 111.5 Q 158.5 112 159 112 Q 159.5 112 160.5 112.5 Q 161.5 113 162.5 113 Q 163.5 113 164 113 Q 164.5 113 165 113 Q 165.5 113 165.5 113.5 Q 165.5 114 166 114 Q 166.5 114 166 114 Q 165.5 114 165.5 114.5 Q 165.5 115 164 116 Q 162.5 117 161 118 Q 159.5 119 156.5 120.5 Q 153.5 122 152.5 122.5 Q 151.5 123 150.5 123.5 Q 149.5 124 149 124.5 Q 148.5 125 148 125 Q 147.5 125 146 126 Q 144.5 127 142 129 Q 139.5 131 137.5 132 Q 135.5 133 133 134.5 Q 130.5 136 129 137 Q 127.5 138 126 139 Q 124.5 140 122.5 141.5 Q 120.5 143 119 144 Q 117.5 145 115 147 Q 112.5 149 111.5 150 Q 110.5 151 108.5 152 Q 106.5 153 104.5 154 Q 102.5 155 101 156 Q 99.5 157 97.5 158 Q 95.5 159 93.5 160 Q 91.5 161 90 162 Q 88.5 163 87.5 164 Q 86.5 165 85 166 Q 83.5 167 82.5 167 Q 81.5 167 81 167.5 Q 80.5 168 80 168 Q 79.5 168 78.5 168.5 Q 77.5 169 77 169.5 Q 76.5 170 75.5 170.5 Q 74.5 171 74 171.5 Q 73.5 172 73 172 Q 72.5 172 72 172.5 Q 71.5 173 71 173.5 Q 70.5 174 69.5 174.5 Q 68.5 175 68 175 Q 67.5 175 66.5 176 Q 65.5 177 65 177.5 Q 64.5 178 63.5 178.5 Q 62.5 179 61.5 179.5 Q 60.5 180 60 180 Q 59.5 180 58.5 181 Q 57.5 182 57 182.5 Q 56.5 183 56 183 Q 55.5 183 55.5 183.5 Q 55.5 184 55 184.5 Q 54.5 185 55.5 185 Q 56.5 185 58 185 Q 59.5 185 64 185 Q 68.5 185 72 184.5 Q 75.5 184 76.5 184 Q 77.5 184 79 183.5 Q 80.5 183 84 182.5 Q 87.5 182 90.5 181.5 Q 93.5 181 99.5 180.5 Q 105.5 180 110 180 Q 114.5 180 117 180 Q 119.5 180 122.5 180 Q 125.5 180 127 180 Q 128.5 180 130 180 Q 131.5 180 132.5 180 Q 133.5 180 134 180 Q 134.5 180 135.5 180 Q 136.5 180 137 180 Q 137.5 180 138 180 Q 138.5 180 139 180 Q 139.5 180 140 180 Q 140.5 180 141 180 Q 141.5 180 142 180.5 Q 142.5 181 143.5 181.5 Q 144.5 182 146 182.5 Q 147.5 183 148 183 Q 148.5 183 149 183 Q 149.5 183 150 183 Q 150.5 183 151 183 Q 151.5 183 152.5 183.5 Q 153.5 184 154 184 Q 154.5 184 155 184 Q 155.5 184 156.5 184 Q 157.5 184 158 184 Q 158.5 184 159.5 184 Q 160.5 184 161 184 Q 161.5 184 162.5 184 L 163.52 184" stroke-linecap="round" />
</g>
<g transform="matrix(1 0 0 1 119.5 144.5)"  >
<path style="stroke: rgb(0,0,0); stroke-width: 20; stroke-dasharray: none; stroke-linecap: round; stroke-dashoffset: 0; stroke-linejoin: round; stroke-miterlimit: 10; fill: none; fill-rule: nonzero; opacity: 1;"  transform=" translate(-119.5, -144.5)" d="M 81.48 141 Q 81.5 141 82 141 Q 82.5 141 84.5 141 Q 86.5 141 89 141 Q 91.5 141 94 141 Q 96.5 141 99.5 141 Q 102.5 141 105 141 Q 107.5 141 110.5 141 Q 113.5 141 116.5 141 Q 119.5 141 122 141 Q 124.5 141 127 141 Q 129.5 141 130.5 141 Q 131.5 141 132.5 141 Q 133.5 141 135 141.5 Q 136.5 142 138.5 142.5 Q 140.5 143 141.5 143.5 Q 142.5 144 145 144.5 Q 147.5 145 149 146 Q 150.5 147 151.5 147 Q 152.5 147 153 147.5 Q 153.5 148 154 148 Q 154.5 148 155 148 Q 155.5 148 156.5 148 L 157.52 148" stroke-linecap="round" />
</g>
</svg>