<?xml version="1.0" encoding="UTF-8" standalone="no" ?>
<!DOCTYPE svg PUBLIC "-//W3C//DTD SVG 1.1//EN" "http://www.w3.org/Graphics/SVG/1.1/DTD/svg11.dtd">
<svg xmlns="http://www.w3.org/2000/svg" xmlns:xlink="http://www.w3.org/1999/xlink" version="1.1" width="200" height="300" viewBox="0 0 200 300" xml:space="preserve">
<desc>Created with Fabric.js 4.4.0</desc>
<defs>
</defs>
<g transform="matrix(1 0 0 1 134.54 164.91)"  >
<path style="stroke: rgb(0,0,0); stroke-width: 20; stroke-dasharray: none; stroke-linecap: round; stroke-dashoffset: 0; stroke-linejoin: round; stroke-miterlimit: 10; fill: none; fill-rule: nonzero; opacity: 1;"  transform=" translate(-134.54, -164.91)" d="M 31.98 63.68667175292969 Q 32 63.66667175292969 32.5 62.83332824707031 Q 33 61.99998474121094 36.333335876464844 59.49998474121094 Q 39.66667175292969 56.99998474121094 47.16667175292969 53.49998474121094 Q 54.66667175292969 49.99998474121094 65.33333587646484 46.99998474121094 Q 76 43.99998474121094 88 42.666656494140625 Q 100 41.33332824707031 113 41.666656494140625 Q 126 41.99998474121094 138.1666717529297 43.33332824707031 Q 150.33334350585938 44.66667175292969 160.83334350585938 47 Q 171.33334350585938 49.33332824707031 178.6666717529297 52.666656494140625 Q 186 55.99998474121094 190.33334350585938 59.83332824707031 Q 194.66668701171875 63.66667175292969 197.66668701171875 70.66667175292969 Q 200.66668701171875 77.66667175292969 200.33334350585938 86.83332824707031 Q 200 95.99998474121094 195.83334350585938 106.99998474121094 Q 191.66668701171875 117.99998474121094 184.66667938232422 129.99998474121094 Q 177.6666717529297 141.99998474121094 168.50000762939453 154.3333282470703 Q 159.33334350585938 166.6666717529297 149.1666717529297 178.1666717529297 Q 139 189.6666717529297 128.33333587646484 200 Q 117.66667175292969 210.3333282470703 107.00000762939453 220 Q 96.33334350585938 229.6666717529297 87.00000762939453 237.8333282470703 Q 77.66667175292969 245.99998474121094 69.33333587646484 252.8333282470703 Q 61 259.6666717529297 54.66666793823242 264.8333282470703 Q 48.333335876464844 269.99998474121094 43.16666793823242 273.8333282470703 Q 38 277.6666717529297 34.833335876464844 280 Q 31.666671752929688 282.3333282470703 29.666671752929688 283.6666564941406 Q 27.666671752929688 284.99998474121094 26.500003814697266 285.8333282470703 Q 25.333335876464844 286.6666717529297 24.666667938232422 287.1666717529297 Q 24 287.6666717529297 23.333335876464844 288.00001525878906 Q 22.666671752929688 288.33335876464844 22.333335876464844 288.33335876464844 Q 22 288.33335876464844 21.666667938232422 288.33335876464844 Q 21.333335876464844 288.33335876464844 21.500003814697266 287.6666717529297 Q 21.666671752929688 286.99998474121094 23.500003814697266 285.1666717529297 Q 25.333335876464844 283.33335876464844 29.500003814697266 280.00001525878906 Q 33.66667175292969 276.6666717529297 42.000003814697266 272 Q 50.333335876464844 267.3333282470703 63.66666793823242 262 Q 77 256.6666717529297 93.5 252.1666717529297 Q 110 247.6666717529297 126.33333587646484 243.6666717529297 Q 142.6666717529297 239.6666717529297 159.50000762939453 235 Q 176.33334350585938 230.3333282470703 190.50001525878906 226 Q 204.66668701171875 221.6666717529297 217.00001525878906 218.1666717529297 Q 229.33334350585938 214.6666717529297 238.50001525878906 212.5 L 247.68668701171876 210.3133282470703" stroke-linecap="round" />
</g>
</svg>